<?xml version="1.0" encoding="utf-8"?>
<svg width="16" height="16" fill="currentColor" class="etlbox-logo" viewBox="0 0 16 16" xmlns="http://www.w3.org/2000/svg">
  <path d="M8.186 1.113a.5.5 0 0 0-.372 0L1.846 3.5l2.404.961L10.404 2l-2.218-.887zm3.564 1.426L5.596 5 8 5.961 14.154 3.5l-2.404-.961zm3.25 1.7-6.5 2.6v7.922l6.5-2.6V4.24zM7.5 14.762V6.838L1 4.239v7.923l6.5 2.6zM7.443.184a1.5 1.5 0 0 1 1.114 0l7.129 2.852A.5.5 0 0 1 16 3.5v8.662a1 1 0 0 1-.629.928l-7.185 2.874a.5.5 0 0 1-.372 0L.63 13.09a1 1 0 0 1-.63-.928V3.5a.5.5 0 0 1 .314-.464L7.443.184z"/>
  <path d="M -7.287 43.983 L -7.287 47.673 L -14.427 47.673 L -14.427 53.693 L -5.977 53.693 L -5.977 57.493 L -19.007 57.493 L -19.007 34.813 L -6.007 34.813 L -6.007 38.623 L -14.427 38.623 L -14.427 43.983 L -7.287 43.983 ZM 11.652 34.813 L 11.652 38.623 L 6.052 38.623 L 6.052 57.493 L 1.452 57.493 L 1.452 38.623 L -4.068 38.623 L -4.068 34.813 L 11.652 34.813 ZM 18.866 34.813 L 18.866 53.693 L 26.906 53.693 L 26.906 57.493 L 14.286 57.493 L 14.286 34.813 L 18.866 34.813 Z" transform="matrix(0.12534299492835999, 0.049250002950429916, 0.0009350000182166696, 0.1611970067024231, 3.7332990169525146, 0.015956001356244087)" style="fill: rgb(51, 51, 51); white-space: pre;"/>
  <path d="M 36.758 8.154 L 30.168 8.154 L 30.168 -11.756 L 36.318 -11.756 C 38.398 -11.756 39.978 -11.293 41.058 -10.366 C 42.138 -9.439 42.678 -8.083 42.678 -6.296 C 42.678 -5.283 42.455 -4.413 42.008 -3.686 C 41.561 -2.959 40.951 -2.426 40.178 -2.086 C 41.071 -1.833 41.758 -1.319 42.238 -0.546 C 42.725 0.221 42.968 1.171 42.968 2.304 C 42.968 4.237 42.435 5.694 41.368 6.674 C 40.308 7.661 38.771 8.154 36.758 8.154 Z M 37.018 -0.496 L 34.188 -0.496 L 34.188 4.814 L 36.758 4.814 C 37.478 4.814 38.025 4.591 38.398 4.144 C 38.771 3.697 38.958 3.064 38.958 2.244 C 38.958 0.457 38.311 -0.456 37.018 -0.496 Z M 34.188 -8.406 L 34.188 -3.426 L 36.278 -3.426 C 37.858 -3.426 38.648 -4.243 38.648 -5.876 C 38.648 -6.776 38.465 -7.423 38.098 -7.816 C 37.731 -8.209 37.138 -8.406 36.318 -8.406 L 34.188 -8.406 ZM 59.887 -3.416 L 59.887 -0.006 C 59.887 2.661 59.257 4.734 57.997 6.214 C 56.737 7.687 54.984 8.424 52.737 8.424 C 50.504 8.424 48.75 7.694 47.477 6.234 C 46.204 4.767 45.557 2.717 45.537 0.084 L 45.537 -3.316 C 45.537 -6.049 46.17 -8.186 47.437 -9.726 C 48.704 -11.259 50.464 -12.026 52.717 -12.026 C 54.93 -12.026 56.674 -11.273 57.947 -9.766 C 59.227 -8.253 59.874 -6.136 59.887 -3.416 Z M 55.857 0.114 L 55.857 -3.346 C 55.857 -5.139 55.6 -6.473 55.087 -7.346 C 54.58 -8.226 53.79 -8.666 52.717 -8.666 C 51.65 -8.666 50.86 -8.243 50.347 -7.396 C 49.834 -6.556 49.57 -5.273 49.557 -3.546 L 49.557 -0.006 C 49.557 1.734 49.817 3.017 50.337 3.844 C 50.857 4.664 51.657 5.074 52.737 5.074 C 53.79 5.074 54.57 4.671 55.077 3.864 C 55.59 3.057 55.85 1.807 55.857 0.114 ZM 66.025 -11.756 L 68.705 -4.916 L 71.385 -11.756 L 75.995 -11.756 L 71.325 -1.886 L 76.105 8.154 L 71.445 8.154 L 68.705 1.194 L 65.985 8.154 L 61.325 8.154 L 66.115 -1.886 L 61.425 -11.756 L 66.025 -11.756 Z" transform="matrix(0.12531399726867676, 0.050099004060029984, 0.004387000110000372, 0.1833290159702301, -2.3493120670318604, 9.245244979858398)" style="fill: rgb(51, 51, 51); white-space: pre;"/>
  <path d="M 32.62 -2.876 L 32.62 0.364 L 26.36 0.364 L 26.36 5.634 L 33.77 5.634 L 33.77 8.974 L 22.34 8.974 L 22.34 -10.936 L 33.74 -10.936 L 33.74 -7.586 L 26.36 -7.586 L 26.36 -2.876 L 32.62 -2.876 ZM 39.63 -10.936 L 42.31 -4.096 L 44.99 -10.936 L 49.6 -10.936 L 44.93 -1.066 L 49.71 8.974 L 45.05 8.974 L 42.31 2.014 L 39.59 8.974 L 34.93 8.974 L 39.72 -1.066 L 35.03 -10.936 L 39.63 -10.936 ZM 60.876 2.344 L 64.896 2.344 C 64.796 4.611 64.16 6.327 62.986 7.494 C 61.813 8.661 60.153 9.244 58.006 9.244 C 55.76 9.244 54.036 8.504 52.836 7.024 C 51.636 5.544 51.036 3.431 51.036 0.684 L 51.036 -2.656 C 51.036 -5.396 51.656 -7.506 52.896 -8.986 C 54.136 -10.466 55.86 -11.206 58.066 -11.206 C 60.233 -11.206 61.88 -10.599 63.006 -9.386 C 64.133 -8.173 64.773 -6.433 64.926 -4.166 L 60.896 -4.166 C 60.856 -5.566 60.64 -6.533 60.246 -7.066 C 59.846 -7.599 59.12 -7.866 58.066 -7.866 C 56.986 -7.866 56.223 -7.493 55.776 -6.746 C 55.33 -5.993 55.093 -4.753 55.066 -3.026 L 55.066 0.734 C 55.066 2.707 55.29 4.064 55.736 4.804 C 56.176 5.544 56.933 5.914 58.006 5.914 C 59.066 5.914 59.796 5.657 60.196 5.144 C 60.596 4.624 60.823 3.691 60.876 2.344 ZM 77.655 -2.876 L 77.655 0.364 L 71.395 0.364 L 71.395 5.634 L 78.805 5.634 L 78.805 8.974 L 67.375 8.974 L 67.375 -10.936 L 78.775 -10.936 L 78.775 -7.586 L 71.395 -7.586 L 71.395 -2.876 L 77.655 -2.876 ZM 85.135 -10.936 L 85.135 5.634 L 92.185 5.634 L 92.185 8.974 L 81.115 8.974 L 81.115 -10.936 L 85.135 -10.936 Z" transform="matrix(0.08686999976634979, -0.03363099694252014, -0.00835300050675869, 0.18301601707935333, 6.807898044586182, 9.796539306640625)" style="fill: rgb(51, 51, 51); white-space: pre;"/>
</svg>