<?xml version="1.0" encoding="utf-8"?>
<svg width="16" height="16" fill="currentColor" class="etlbox-logo" viewBox="0 0 16 16" xmlns="http://www.w3.org/2000/svg">
  <path d="M8.186 1.113a.5.5 0 0 0-.372 0L1.846 3.5l2.404.961L10.404 2l-2.218-.887zm3.564 1.426L5.596 5 8 5.961 14.154 3.5l-2.404-.961zm3.25 1.7-6.5 2.6v7.922l6.5-2.6V4.24zM7.5 14.762V6.838L1 4.239v7.923l6.5 2.6zM7.443.184a1.5 1.5 0 0 1 1.114 0l7.129 2.852A.5.5 0 0 1 16 3.5v8.662a1 1 0 0 1-.629.928l-7.185 2.874a.5.5 0 0 1-.372 0L.63 13.09a1 1 0 0 1-.63-.928V3.5a.5.5 0 0 1 .314-.464L7.443.184z"/>
  <path d="M -7.287 43.983 L -7.287 47.673 L -14.427 47.673 L -14.427 53.693 L -5.977 53.693 L -5.977 57.493 L -19.007 57.493 L -19.007 34.813 L -6.007 34.813 L -6.007 38.623 L -14.427 38.623 L -14.427 43.983 L -7.287 43.983 ZM 11.652 34.813 L 11.652 38.623 L 6.052 38.623 L 6.052 57.493 L 1.452 57.493 L 1.452 38.623 L -4.068 38.623 L -4.068 34.813 L 11.652 34.813 ZM 18.866 34.813 L 18.866 53.693 L 26.906 53.693 L 26.906 57.493 L 14.286 57.493 L 14.286 34.813 L 18.866 34.813 Z" transform="matrix(0.12534299492835999, 0.049250002950429916, 0.0009350000182166696, 0.1611970067024231, 3.7332990169525146, 0.015956001356244087)" style="fill: rgb(51, 51, 51); white-space: pre;"/>
  <path d="M 36.758 8.154 L 30.168 8.154 L 30.168 -11.756 L 36.318 -11.756 C 38.398 -11.756 39.978 -11.293 41.058 -10.366 C 42.138 -9.439 42.678 -8.083 42.678 -6.296 C 42.678 -5.283 42.455 -4.413 42.008 -3.686 C 41.561 -2.959 40.951 -2.426 40.178 -2.086 C 41.071 -1.833 41.758 -1.319 42.238 -0.546 C 42.725 0.221 42.968 1.171 42.968 2.304 C 42.968 4.237 42.435 5.694 41.368 6.674 C 40.308 7.661 38.771 8.154 36.758 8.154 Z M 37.018 -0.496 L 34.188 -0.496 L 34.188 4.814 L 36.758 4.814 C 37.478 4.814 38.025 4.591 38.398 4.144 C 38.771 3.697 38.958 3.064 38.958 2.244 C 38.958 0.457 38.311 -0.456 37.018 -0.496 Z M 34.188 -8.406 L 34.188 -3.426 L 36.278 -3.426 C 37.858 -3.426 38.648 -4.243 38.648 -5.876 C 38.648 -6.776 38.465 -7.423 38.098 -7.816 C 37.731 -8.209 37.138 -8.406 36.318 -8.406 L 34.188 -8.406 ZM 59.887 -3.416 L 59.887 -0.006 C 59.887 2.661 59.257 4.734 57.997 6.214 C 56.737 7.687 54.984 8.424 52.737 8.424 C 50.504 8.424 48.75 7.694 47.477 6.234 C 46.204 4.767 45.557 2.717 45.537 0.084 L 45.537 -3.316 C 45.537 -6.049 46.17 -8.186 47.437 -9.726 C 48.704 -11.259 50.464 -12.026 52.717 -12.026 C 54.93 -12.026 56.674 -11.273 57.947 -9.766 C 59.227 -8.253 59.874 -6.136 59.887 -3.416 Z M 55.857 0.114 L 55.857 -3.346 C 55.857 -5.139 55.6 -6.473 55.087 -7.346 C 54.58 -8.226 53.79 -8.666 52.717 -8.666 C 51.65 -8.666 50.86 -8.243 50.347 -7.396 C 49.834 -6.556 49.57 -5.273 49.557 -3.546 L 49.557 -0.006 C 49.557 1.734 49.817 3.017 50.337 3.844 C 50.857 4.664 51.657 5.074 52.737 5.074 C 53.79 5.074 54.57 4.671 55.077 3.864 C 55.59 3.057 55.85 1.807 55.857 0.114 ZM 66.025 -11.756 L 68.705 -4.916 L 71.385 -11.756 L 75.995 -11.756 L 71.325 -1.886 L 76.105 8.154 L 71.445 8.154 L 68.705 1.194 L 65.985 8.154 L 61.325 8.154 L 66.115 -1.886 L 61.425 -11.756 L 66.025 -11.756 Z" transform="matrix(0.12531399726867676, 0.050099004060029984, 0.004387000110000372, 0.1833290159702301, -2.3493120670318604, 9.245244979858398)" style="fill: rgb(51, 51, 51); white-space: pre;"/>
  <path d="M 31.36 8.974 L 28.37 1.704 L 26.37 1.704 L 26.37 8.974 L 22.35 8.974 L 22.35 -10.936 L 28.77 -10.936 C 30.783 -10.936 32.337 -10.413 33.43 -9.366 C 34.53 -8.326 35.08 -6.843 35.08 -4.916 C 35.08 -2.276 34.12 -0.426 32.2 0.634 L 35.68 8.784 L 35.68 8.974 L 31.36 8.974 Z M 26.37 -7.586 L 26.37 -1.646 L 28.66 -1.646 C 29.46 -1.646 30.06 -1.913 30.46 -2.446 C 30.86 -2.979 31.06 -3.693 31.06 -4.586 C 31.06 -6.586 30.28 -7.586 28.72 -7.586 L 26.37 -7.586 ZM 48.124 -2.876 L 48.124 0.364 L 41.864 0.364 L 41.864 5.634 L 49.274 5.634 L 49.274 8.974 L 37.844 8.974 L 37.844 -10.936 L 49.244 -10.936 L 49.244 -7.586 L 41.864 -7.586 L 41.864 -2.876 L 48.124 -2.876 ZM 56.734 8.974 L 51.584 8.974 L 51.584 -10.936 L 56.844 -10.936 C 59.17 -10.936 61.024 -10.196 62.404 -8.716 C 63.784 -7.243 64.487 -5.219 64.514 -2.646 L 64.514 0.584 C 64.514 3.197 63.824 5.247 62.444 6.734 C 61.064 8.227 59.16 8.974 56.734 8.974 Z M 57.064 -7.586 L 55.604 -7.586 L 55.604 5.634 L 56.804 5.634 C 58.144 5.634 59.087 5.281 59.634 4.574 C 60.18 3.867 60.467 2.651 60.494 0.924 L 60.494 -2.536 C 60.494 -4.396 60.234 -5.693 59.714 -6.426 C 59.2 -7.159 58.317 -7.546 57.064 -7.586 ZM 71.602 -10.936 L 71.602 8.974 L 67.582 8.974 L 67.582 -10.936 L 71.602 -10.936 ZM 83.386 3.754 C 83.386 2.941 83.179 2.327 82.766 1.914 C 82.346 1.501 81.589 1.071 80.496 0.624 C 78.503 -0.136 77.069 -1.023 76.196 -2.036 C 75.316 -3.056 74.876 -4.259 74.876 -5.646 C 74.876 -7.319 75.473 -8.666 76.666 -9.686 C 77.853 -10.699 79.363 -11.206 81.196 -11.206 C 82.416 -11.206 83.506 -10.949 84.466 -10.436 C 85.419 -9.916 86.156 -9.189 86.676 -8.256 C 87.189 -7.316 87.446 -6.249 87.446 -5.056 L 83.436 -5.056 C 83.436 -5.983 83.239 -6.689 82.846 -7.176 C 82.446 -7.663 81.873 -7.906 81.126 -7.906 C 80.426 -7.906 79.879 -7.699 79.486 -7.286 C 79.093 -6.873 78.896 -6.316 78.896 -5.616 C 78.896 -5.069 79.116 -4.573 79.556 -4.126 C 79.996 -3.686 80.769 -3.229 81.876 -2.756 C 83.823 -2.056 85.236 -1.196 86.116 -0.176 C 86.989 0.844 87.426 2.144 87.426 3.724 C 87.426 5.457 86.876 6.811 85.776 7.784 C 84.676 8.757 83.176 9.244 81.276 9.244 C 79.989 9.244 78.819 8.981 77.766 8.454 C 76.706 7.927 75.879 7.171 75.286 6.184 C 74.686 5.197 74.386 4.034 74.386 2.694 L 78.416 2.694 C 78.416 3.847 78.639 4.684 79.086 5.204 C 79.533 5.724 80.263 5.984 81.276 5.984 C 82.683 5.984 83.386 5.241 83.386 3.754 Z" transform="matrix(0.08713001012802124, -0.033730000257492065, -0.0013890000991523266, 0.1848209947347641, 7.030819892883301, 9.80835247039795)" style="fill: rgb(51, 51, 51); white-space: pre;"/>
</svg>