<?xml version="1.0" encoding="utf-8"?>
<svg width="16" height="16" fill="currentColor" class="etlbox-logo" viewBox="0 0 16 16" xmlns="http://www.w3.org/2000/svg">
  <path d="M8.186 1.113a.5.5 0 0 0-.372 0L1.846 3.5l2.404.961L10.404 2l-2.218-.887zm3.564 1.426L5.596 5 8 5.961 14.154 3.5l-2.404-.961zm3.25 1.7-6.5 2.6v7.922l6.5-2.6V4.24zM7.5 14.762V6.838L1 4.239v7.923l6.5 2.6zM7.443.184a1.5 1.5 0 0 1 1.114 0l7.129 2.852A.5.5 0 0 1 16 3.5v8.662a1 1 0 0 1-.629.928l-7.185 2.874a.5.5 0 0 1-.372 0L.63 13.09a1 1 0 0 1-.63-.928V3.5a.5.5 0 0 1 .314-.464L7.443.184z"/>
  <path d="M -7.287 43.983 L -7.287 47.673 L -14.427 47.673 L -14.427 53.693 L -5.977 53.693 L -5.977 57.493 L -19.007 57.493 L -19.007 34.813 L -6.007 34.813 L -6.007 38.623 L -14.427 38.623 L -14.427 43.983 L -7.287 43.983 ZM 11.652 34.813 L 11.652 38.623 L 6.052 38.623 L 6.052 57.493 L 1.452 57.493 L 1.452 38.623 L -4.068 38.623 L -4.068 34.813 L 11.652 34.813 ZM 18.866 34.813 L 18.866 53.693 L 26.906 53.693 L 26.906 57.493 L 14.286 57.493 L 14.286 34.813 L 18.866 34.813 Z" transform="matrix(0.12534299492835999, 0.049250002950429916, 0.0009350000182166696, 0.1611970067024231, 3.7332990169525146, 0.015956001356244087)" style="fill: rgb(51, 51, 51); white-space: pre;"/>
  <path d="M 36.758 8.154 L 30.168 8.154 L 30.168 -11.756 L 36.318 -11.756 C 38.398 -11.756 39.978 -11.293 41.058 -10.366 C 42.138 -9.439 42.678 -8.083 42.678 -6.296 C 42.678 -5.283 42.455 -4.413 42.008 -3.686 C 41.561 -2.959 40.951 -2.426 40.178 -2.086 C 41.071 -1.833 41.758 -1.319 42.238 -0.546 C 42.725 0.221 42.968 1.171 42.968 2.304 C 42.968 4.237 42.435 5.694 41.368 6.674 C 40.308 7.661 38.771 8.154 36.758 8.154 Z M 37.018 -0.496 L 34.188 -0.496 L 34.188 4.814 L 36.758 4.814 C 37.478 4.814 38.025 4.591 38.398 4.144 C 38.771 3.697 38.958 3.064 38.958 2.244 C 38.958 0.457 38.311 -0.456 37.018 -0.496 Z M 34.188 -8.406 L 34.188 -3.426 L 36.278 -3.426 C 37.858 -3.426 38.648 -4.243 38.648 -5.876 C 38.648 -6.776 38.465 -7.423 38.098 -7.816 C 37.731 -8.209 37.138 -8.406 36.318 -8.406 L 34.188 -8.406 ZM 59.887 -3.416 L 59.887 -0.006 C 59.887 2.661 59.257 4.734 57.997 6.214 C 56.737 7.687 54.984 8.424 52.737 8.424 C 50.504 8.424 48.75 7.694 47.477 6.234 C 46.204 4.767 45.557 2.717 45.537 0.084 L 45.537 -3.316 C 45.537 -6.049 46.17 -8.186 47.437 -9.726 C 48.704 -11.259 50.464 -12.026 52.717 -12.026 C 54.93 -12.026 56.674 -11.273 57.947 -9.766 C 59.227 -8.253 59.874 -6.136 59.887 -3.416 Z M 55.857 0.114 L 55.857 -3.346 C 55.857 -5.139 55.6 -6.473 55.087 -7.346 C 54.58 -8.226 53.79 -8.666 52.717 -8.666 C 51.65 -8.666 50.86 -8.243 50.347 -7.396 C 49.834 -6.556 49.57 -5.273 49.557 -3.546 L 49.557 -0.006 C 49.557 1.734 49.817 3.017 50.337 3.844 C 50.857 4.664 51.657 5.074 52.737 5.074 C 53.79 5.074 54.57 4.671 55.077 3.864 C 55.59 3.057 55.85 1.807 55.857 0.114 ZM 66.025 -11.756 L 68.705 -4.916 L 71.385 -11.756 L 75.995 -11.756 L 71.325 -1.886 L 76.105 8.154 L 71.445 8.154 L 68.705 1.194 L 65.985 8.154 L 61.325 8.154 L 66.115 -1.886 L 61.425 -11.756 L 66.025 -11.756 Z" transform="matrix(0.12531399726867676, 0.050099004060029984, 0.004387000110000372, 0.1833290159702301, -2.3493120670318604, 9.245244979858398)" style="fill: rgb(51, 51, 51); white-space: pre;"/>
  <path d="M 29.04 1.974 L 26.36 1.974 L 26.36 8.974 L 22.34 8.974 L 22.34 -10.936 L 29.12 -10.936 C 31.087 -10.936 32.657 -10.323 33.83 -9.096 C 35.003 -7.876 35.59 -6.293 35.59 -4.346 C 35.59 -2.393 35.01 -0.853 33.85 0.274 C 32.697 1.407 31.093 1.974 29.04 1.974 Z M 26.36 -7.586 L 26.36 -1.376 L 29.12 -1.376 C 29.887 -1.376 30.48 -1.626 30.9 -2.126 C 31.32 -2.626 31.53 -3.356 31.53 -4.316 C 31.53 -5.309 31.313 -6.099 30.88 -6.686 C 30.453 -7.273 29.88 -7.573 29.16 -7.586 L 26.36 -7.586 ZM 52.278 -2.596 L 52.278 0.814 C 52.278 3.481 51.648 5.554 50.388 7.034 C 49.128 8.507 47.374 9.244 45.128 9.244 C 42.894 9.244 41.141 8.514 39.868 7.054 C 38.594 5.587 37.948 3.537 37.928 0.904 L 37.928 -2.496 C 37.928 -5.229 38.561 -7.366 39.828 -8.906 C 41.094 -10.439 42.854 -11.206 45.108 -11.206 C 47.321 -11.206 49.064 -10.453 50.338 -8.946 C 51.618 -7.433 52.264 -5.316 52.278 -2.596 Z M 48.248 0.934 L 48.248 -2.526 C 48.248 -4.319 47.991 -5.653 47.478 -6.526 C 46.971 -7.406 46.181 -7.846 45.108 -7.846 C 44.041 -7.846 43.251 -7.423 42.738 -6.576 C 42.224 -5.736 41.961 -4.453 41.948 -2.726 L 41.948 0.814 C 41.948 2.554 42.208 3.837 42.728 4.664 C 43.248 5.484 44.048 5.894 45.128 5.894 C 46.181 5.894 46.961 5.491 47.468 4.684 C 47.981 3.877 48.241 2.627 48.248 0.934 ZM 63.576 3.754 C 63.576 2.941 63.369 2.327 62.956 1.914 C 62.536 1.501 61.779 1.071 60.686 0.624 C 58.692 -0.136 57.259 -1.023 56.386 -2.036 C 55.506 -3.056 55.066 -4.259 55.066 -5.646 C 55.066 -7.319 55.662 -8.666 56.856 -9.686 C 58.042 -10.699 59.552 -11.206 61.386 -11.206 C 62.606 -11.206 63.696 -10.949 64.656 -10.436 C 65.609 -9.916 66.346 -9.189 66.866 -8.256 C 67.379 -7.316 67.636 -6.249 67.636 -5.056 L 63.626 -5.056 C 63.626 -5.983 63.429 -6.689 63.036 -7.176 C 62.636 -7.663 62.062 -7.906 61.316 -7.906 C 60.616 -7.906 60.069 -7.699 59.676 -7.286 C 59.282 -6.873 59.086 -6.316 59.086 -5.616 C 59.086 -5.069 59.306 -4.573 59.746 -4.126 C 60.186 -3.686 60.959 -3.229 62.066 -2.756 C 64.012 -2.056 65.426 -1.196 66.306 -0.176 C 67.179 0.844 67.616 2.144 67.616 3.724 C 67.616 5.457 67.066 6.811 65.966 7.784 C 64.866 8.757 63.366 9.244 61.466 9.244 C 60.179 9.244 59.009 8.981 57.956 8.454 C 56.896 7.927 56.069 7.171 55.476 6.184 C 54.876 5.197 54.576 4.034 54.576 2.694 L 58.606 2.694 C 58.606 3.847 58.829 4.684 59.276 5.204 C 59.722 5.724 60.452 5.984 61.466 5.984 C 62.872 5.984 63.576 5.241 63.576 3.754 ZM 83.177 -10.936 L 83.177 -7.586 L 78.257 -7.586 L 78.257 8.974 L 74.227 8.974 L 74.227 -7.586 L 69.387 -7.586 L 69.387 -10.936 L 83.177 -10.936 Z" transform="matrix(0.0914430096745491, -0.03539999946951866, -0.001330000115558505, 0.177016019821167, 6.942387104034424, 9.71041488647461)" style="fill: rgb(51, 51, 51); white-space: pre;"/>
  <path d="M 35.87 -1.496 L 35.87 6.714 C 35.097 7.554 34.147 8.187 33.02 8.614 C 31.9 9.034 30.67 9.244 29.33 9.244 C 27.037 9.244 25.257 8.537 23.99 7.124 C 22.723 5.704 22.073 3.641 22.04 0.934 L 22.04 -2.646 C 22.04 -5.393 22.64 -7.506 23.84 -8.986 C 25.033 -10.466 26.78 -11.206 29.08 -11.206 C 31.24 -11.206 32.87 -10.673 33.97 -9.606 C 35.07 -8.539 35.703 -6.866 35.87 -4.586 L 31.96 -4.586 C 31.853 -5.853 31.59 -6.716 31.17 -7.176 C 30.75 -7.636 30.093 -7.866 29.2 -7.866 C 28.12 -7.866 27.333 -7.469 26.84 -6.676 C 26.347 -5.883 26.09 -4.623 26.07 -2.896 L 26.07 0.714 C 26.07 2.527 26.343 3.847 26.89 4.674 C 27.43 5.501 28.32 5.914 29.56 5.914 C 30.353 5.914 30.997 5.754 31.49 5.434 L 31.84 5.184 L 31.84 1.534 L 29.03 1.534 L 29.03 -1.496 L 35.87 -1.496 ZM 47.739 8.974 L 44.749 1.704 L 42.749 1.704 L 42.749 8.974 L 38.729 8.974 L 38.729 -10.936 L 45.149 -10.936 C 47.162 -10.936 48.715 -10.413 49.809 -9.366 C 50.909 -8.326 51.459 -6.843 51.459 -4.916 C 51.459 -2.276 50.499 -0.426 48.579 0.634 L 52.059 8.784 L 52.059 8.974 L 47.739 8.974 Z M 42.749 -7.586 L 42.749 -1.646 L 45.039 -1.646 C 45.839 -1.646 46.439 -1.913 46.839 -2.446 C 47.239 -2.979 47.439 -3.693 47.439 -4.586 C 47.439 -6.586 46.659 -7.586 45.099 -7.586 L 42.749 -7.586 ZM 64.503 -2.876 L 64.503 0.364 L 58.243 0.364 L 58.243 5.634 L 65.653 5.634 L 65.653 8.974 L 54.223 8.974 L 54.223 -10.936 L 65.623 -10.936 L 65.623 -7.586 L 58.243 -7.586 L 58.243 -2.876 L 64.503 -2.876 ZM 76.373 3.754 C 76.373 2.941 76.166 2.327 75.753 1.914 C 75.333 1.501 74.576 1.071 73.483 0.624 C 71.489 -0.136 70.056 -1.023 69.183 -2.036 C 68.303 -3.056 67.863 -4.259 67.863 -5.646 C 67.863 -7.319 68.459 -8.666 69.653 -9.686 C 70.839 -10.699 72.349 -11.206 74.183 -11.206 C 75.403 -11.206 76.493 -10.949 77.453 -10.436 C 78.406 -9.916 79.143 -9.189 79.663 -8.256 C 80.176 -7.316 80.433 -6.249 80.433 -5.056 L 76.423 -5.056 C 76.423 -5.983 76.226 -6.689 75.833 -7.176 C 75.433 -7.663 74.859 -7.906 74.113 -7.906 C 73.413 -7.906 72.866 -7.699 72.473 -7.286 C 72.079 -6.873 71.883 -6.316 71.883 -5.616 C 71.883 -5.069 72.103 -4.573 72.543 -4.126 C 72.983 -3.686 73.756 -3.229 74.863 -2.756 C 76.809 -2.056 78.223 -1.196 79.103 -0.176 C 79.976 0.844 80.413 2.144 80.413 3.724 C 80.413 5.457 79.863 6.811 78.763 7.784 C 77.663 8.757 76.163 9.244 74.263 9.244 C 72.976 9.244 71.806 8.981 70.753 8.454 C 69.693 7.927 68.866 7.171 68.273 6.184 C 67.673 5.197 67.373 4.034 67.373 2.694 L 71.403 2.694 C 71.403 3.847 71.626 4.684 72.073 5.204 C 72.519 5.724 73.249 5.984 74.263 5.984 C 75.669 5.984 76.373 5.241 76.373 3.754 Z" transform="matrix(0.09357500076293945, -0.03622400388121605, -0.00837700068950653, 0.18354099988937378, 6.7673420906066895, 13.607718467712402)" style="fill: rgb(51, 51, 51); white-space: pre;"/>
</svg>