<?xml version="1.0" encoding="utf-8"?>
<svg width="16" height="16" fill="currentColor" class="etlbox-logo" viewBox="0 0 16 16" xmlns="http://www.w3.org/2000/svg">
  <path d="M8.186 1.113a.5.5 0 0 0-.372 0L1.846 3.5l2.404.961L10.404 2l-2.218-.887zm3.564 1.426L5.596 5 8 5.961 14.154 3.5l-2.404-.961zm3.25 1.7-6.5 2.6v7.922l6.5-2.6V4.24zM7.5 14.762V6.838L1 4.239v7.923l6.5 2.6zM7.443.184a1.5 1.5 0 0 1 1.114 0l7.129 2.852A.5.5 0 0 1 16 3.5v8.662a1 1 0 0 1-.629.928l-7.185 2.874a.5.5 0 0 1-.372 0L.63 13.09a1 1 0 0 1-.63-.928V3.5a.5.5 0 0 1 .314-.464L7.443.184z"/>
  <path d="M -7.287 43.983 L -7.287 47.673 L -14.427 47.673 L -14.427 53.693 L -5.977 53.693 L -5.977 57.493 L -19.007 57.493 L -19.007 34.813 L -6.007 34.813 L -6.007 38.623 L -14.427 38.623 L -14.427 43.983 L -7.287 43.983 ZM 11.652 34.813 L 11.652 38.623 L 6.052 38.623 L 6.052 57.493 L 1.452 57.493 L 1.452 38.623 L -4.068 38.623 L -4.068 34.813 L 11.652 34.813 ZM 18.866 34.813 L 18.866 53.693 L 26.906 53.693 L 26.906 57.493 L 14.286 57.493 L 14.286 34.813 L 18.866 34.813 Z" transform="matrix(0.12534299492835999, 0.049250002950429916, 0.0009350000182166696, 0.1611970067024231, 3.7332990169525146, 0.015956001356244087)" style="fill: rgb(51, 51, 51); white-space: pre;"/>
  <path d="M 36.758 8.154 L 30.168 8.154 L 30.168 -11.756 L 36.318 -11.756 C 38.398 -11.756 39.978 -11.293 41.058 -10.366 C 42.138 -9.439 42.678 -8.083 42.678 -6.296 C 42.678 -5.283 42.455 -4.413 42.008 -3.686 C 41.561 -2.959 40.951 -2.426 40.178 -2.086 C 41.071 -1.833 41.758 -1.319 42.238 -0.546 C 42.725 0.221 42.968 1.171 42.968 2.304 C 42.968 4.237 42.435 5.694 41.368 6.674 C 40.308 7.661 38.771 8.154 36.758 8.154 Z M 37.018 -0.496 L 34.188 -0.496 L 34.188 4.814 L 36.758 4.814 C 37.478 4.814 38.025 4.591 38.398 4.144 C 38.771 3.697 38.958 3.064 38.958 2.244 C 38.958 0.457 38.311 -0.456 37.018 -0.496 Z M 34.188 -8.406 L 34.188 -3.426 L 36.278 -3.426 C 37.858 -3.426 38.648 -4.243 38.648 -5.876 C 38.648 -6.776 38.465 -7.423 38.098 -7.816 C 37.731 -8.209 37.138 -8.406 36.318 -8.406 L 34.188 -8.406 ZM 59.887 -3.416 L 59.887 -0.006 C 59.887 2.661 59.257 4.734 57.997 6.214 C 56.737 7.687 54.984 8.424 52.737 8.424 C 50.504 8.424 48.75 7.694 47.477 6.234 C 46.204 4.767 45.557 2.717 45.537 0.084 L 45.537 -3.316 C 45.537 -6.049 46.17 -8.186 47.437 -9.726 C 48.704 -11.259 50.464 -12.026 52.717 -12.026 C 54.93 -12.026 56.674 -11.273 57.947 -9.766 C 59.227 -8.253 59.874 -6.136 59.887 -3.416 Z M 55.857 0.114 L 55.857 -3.346 C 55.857 -5.139 55.6 -6.473 55.087 -7.346 C 54.58 -8.226 53.79 -8.666 52.717 -8.666 C 51.65 -8.666 50.86 -8.243 50.347 -7.396 C 49.834 -6.556 49.57 -5.273 49.557 -3.546 L 49.557 -0.006 C 49.557 1.734 49.817 3.017 50.337 3.844 C 50.857 4.664 51.657 5.074 52.737 5.074 C 53.79 5.074 54.57 4.671 55.077 3.864 C 55.59 3.057 55.85 1.807 55.857 0.114 ZM 66.025 -11.756 L 68.705 -4.916 L 71.385 -11.756 L 75.995 -11.756 L 71.325 -1.886 L 76.105 8.154 L 71.445 8.154 L 68.705 1.194 L 65.985 8.154 L 61.325 8.154 L 66.115 -1.886 L 61.425 -11.756 L 66.025 -11.756 Z" transform="matrix(0.12531399726867676, 0.050099004060029984, 0.004387000110000372, 0.1833290159702301, -2.3493120670318604, 9.245244979858398)" style="fill: rgb(51, 51, 51); white-space: pre;"/>
  <path d="M 22.34 -10.936 L 27.59 -10.936 L 31.35 3.464 L 35.1 -10.936 L 40.35 -10.936 L 40.35 8.974 L 36.31 8.974 L 36.31 3.584 L 36.68 -4.716 L 32.7 8.974 L 29.97 8.974 L 25.99 -4.716 L 26.36 3.584 L 26.36 8.974 L 22.34 8.974 L 22.34 -10.936 ZM 54.388 8.974 L 53.318 4.904 L 47.838 4.904 L 46.768 8.974 L 42.518 8.974 L 48.738 -10.936 L 52.418 -10.936 L 58.678 8.974 L 54.388 8.974 Z M 50.568 -5.546 L 48.708 1.554 L 52.428 1.554 L 50.568 -5.546 ZM 69.558 8.974 L 66.568 1.704 L 64.568 1.704 L 64.568 8.974 L 60.548 8.974 L 60.548 -10.936 L 66.968 -10.936 C 68.982 -10.936 70.535 -10.413 71.628 -9.366 C 72.728 -8.326 73.278 -6.843 73.278 -4.916 C 73.278 -2.276 72.318 -0.426 70.398 0.634 L 73.878 8.784 L 73.878 8.974 L 69.558 8.974 Z M 64.568 -7.586 L 64.568 -1.646 L 66.858 -1.646 C 67.658 -1.646 68.258 -1.913 68.658 -2.446 C 69.058 -2.979 69.258 -3.693 69.258 -4.586 C 69.258 -6.586 68.478 -7.586 66.918 -7.586 L 64.568 -7.586 ZM 80.242 -10.936 L 80.242 8.974 L 76.222 8.974 L 76.222 -10.936 L 80.242 -10.936 ZM 94.432 8.974 L 93.362 4.904 L 87.882 4.904 L 86.812 8.974 L 82.562 8.974 L 88.782 -10.936 L 92.462 -10.936 L 98.722 8.974 L 94.432 8.974 Z M 90.612 -5.546 L 88.752 1.554 L 92.472 1.554 L 90.612 -5.546 Z" transform="matrix(0.07286900281906128, -0.028209000825881958, -0.00837700068950653, 0.18354099988937378, 7.249783039093018, 9.630736351013184)" style="fill: rgb(51, 51, 51); white-space: pre;"/>
  <path d="M 27.49 8.974 L 22.34 8.974 L 22.34 -10.936 L 27.6 -10.936 C 29.927 -10.936 31.78 -10.196 33.16 -8.716 C 34.54 -7.243 35.243 -5.219 35.27 -2.646 L 35.27 0.584 C 35.27 3.197 34.58 5.247 33.2 6.734 C 31.82 8.227 29.917 8.974 27.49 8.974 Z M 27.82 -7.586 L 26.36 -7.586 L 26.36 5.634 L 27.56 5.634 C 28.9 5.634 29.843 5.281 30.39 4.574 C 30.937 3.867 31.223 2.651 31.25 0.924 L 31.25 -2.536 C 31.25 -4.396 30.99 -5.693 30.47 -6.426 C 29.957 -7.159 29.073 -7.546 27.82 -7.586 ZM 44.748 8.974 L 38.158 8.974 L 38.158 -10.936 L 44.308 -10.936 C 46.388 -10.936 47.968 -10.473 49.048 -9.546 C 50.128 -8.619 50.668 -7.263 50.668 -5.476 C 50.668 -4.463 50.445 -3.593 49.998 -2.866 C 49.551 -2.139 48.941 -1.606 48.168 -1.266 C 49.061 -1.013 49.748 -0.499 50.228 0.274 C 50.715 1.041 50.958 1.991 50.958 3.124 C 50.958 5.057 50.425 6.514 49.358 7.494 C 48.298 8.481 46.761 8.974 44.748 8.974 Z M 45.008 0.324 L 42.178 0.324 L 42.178 5.634 L 44.748 5.634 C 45.468 5.634 46.015 5.411 46.388 4.964 C 46.761 4.517 46.948 3.884 46.948 3.064 C 46.948 1.277 46.301 0.364 45.008 0.324 Z M 42.178 -7.586 L 42.178 -2.606 L 44.268 -2.606 C 45.848 -2.606 46.638 -3.423 46.638 -5.056 C 46.638 -5.956 46.455 -6.603 46.088 -6.996 C 45.721 -7.389 45.128 -7.586 44.308 -7.586 L 42.178 -7.586 Z" transform="matrix(0.07286900281906128, -0.028209000825881958, -0.00837700068950653, 0.18354099988937378, 9.345562934875488, 12.651239395141602)" style="fill: rgb(51, 51, 51); white-space: pre;"/>
</svg>