<?xml version="1.0" encoding="UTF-8" standalone="no"?>
<!-- Created with Inkscape (http://www.inkscape.org/) -->

<svg
   xmlns:dc="http://purl.org/dc/elements/1.1/"
   xmlns:cc="http://creativecommons.org/ns#"
   xmlns:rdf="http://www.w3.org/1999/02/22-rdf-syntax-ns#"
   xmlns:svg="http://www.w3.org/2000/svg"
   xmlns="http://www.w3.org/2000/svg"
   xmlns:sodipodi="http://sodipodi.sourceforge.net/DTD/sodipodi-0.dtd"
   xmlns:inkscape="http://www.inkscape.org/namespaces/inkscape"
   width="196.75311"
   height="47.41296"
   viewBox="0 0 52.057593 12.544679"
   version="1.1"
   id="svg26163"
   inkscape:version="0.92.0 r15299"
   sodipodi:docname="iwg.svg">
  <defs
     id="defs26157">
    <clipPath
       id="clipPath25737"
       clipPathUnits="userSpaceOnUse">
      <path
         inkscape:connector-curvature="0"
         id="path25735"
         d="M 578.126,642.725 H 383.362 v 75.153 h 194.764 v -75.153" />
    </clipPath>
    <clipPath
       id="clipPath25725"
       clipPathUnits="userSpaceOnUse">
      <path
         inkscape:connector-curvature="0"
         id="path25723"
         d="M 578.126,717.878 H 383.362 v 7.286 h 194.764 v -7.286" />
    </clipPath>
  </defs>
  <sodipodi:namedview
     id="base"
     pagecolor="#ffffff"
     bordercolor="#666666"
     borderopacity="1.0"
     inkscape:pageopacity="0.0"
     inkscape:pageshadow="2"
     inkscape:zoom="3.4541805"
     inkscape:cx="95.95719"
     inkscape:cy="24.796556"
     inkscape:document-units="mm"
     inkscape:current-layer="layer1"
     showgrid="false"
     fit-margin-top="0"
     fit-margin-left="0"
     fit-margin-right="0"
     fit-margin-bottom="0"
     units="px"
     inkscape:window-width="1280"
     inkscape:window-height="744"
     inkscape:window-x="-4"
     inkscape:window-y="-4"
     inkscape:window-maximized="1" />
  <metadata
     id="metadata26160">
    <rdf:RDF>
      <cc:Work
         rdf:about="">
        <dc:format>image/svg+xml</dc:format>
        <dc:type
           rdf:resource="http://purl.org/dc/dcmitype/StillImage" />
        <dc:title></dc:title>
      </cc:Work>
    </rdf:RDF>
  </metadata>
  <g
     inkscape:label="Layer 1"
     inkscape:groupmode="layer"
     id="layer1"
     transform="translate(-61.545851,-167.79584)">
    <g
       id="g26369"
       style="fill:#3d7b7d;fill-opacity:1"
       transform="translate(0.13229271,-0.13229294)">
      <path
         d="m 62.726951,168.28153 c -0.166158,0 -0.363361,0.0102 -0.602192,0.0317 -0.18415,0.0173 -0.378177,0.0399 -0.578908,0.067 v 11.00737 c 0.459669,0.0734 0.861483,0.11007 1.196622,0.11007 0.316442,0 0.71367,-0.037 1.182159,-0.11042 V 168.3796 c -0.194734,-0.0272 -0.386292,-0.0494 -0.571853,-0.0667 -0.244475,-0.0212 -0.449439,-0.0314 -0.625828,-0.0314"
         style="fill:#3d7b7d;fill-opacity:1;fill-rule:nonzero;stroke:none;stroke-width:0.35277778"
         id="path25745"
         inkscape:connector-curvature="0" />
      <path
         d="m 84.24816,168.18699 c -0.826206,0 -1.574447,0.14393 -2.224264,0.42792 -0.644878,0.28187 -1.195211,0.68086 -1.636183,1.18604 -0.439914,0.50694 -0.782461,1.1176 -1.017411,1.81504 -0.235303,0.70273 -0.354542,1.47602 -0.354542,2.29799 0,0.82374 0.1143,1.59527 0.339725,2.29271 0.222956,0.69038 0.564092,1.29046 1.013531,1.78435 0.447675,0.49424 1.013883,0.88582 1.683808,1.16452 0.669925,0.27975 1.467555,0.42157 2.370667,0.42157 0.431094,0 0.951088,-0.0371 1.544813,-0.10972 0.543278,-0.066 1.101725,-0.19932 1.662289,-0.39723 v -5.461 c -0.180975,-0.0272 -0.364066,-0.0487 -0.545747,-0.0645 -0.24765,-0.0198 -0.461433,-0.03 -0.635,-0.03 -0.183444,0 -0.385939,0.01 -0.601486,0.03 -0.1651,0.0162 -0.351014,0.0388 -0.564092,0.0681 v 3.81635 l -0.1778,0.0363 c -0.17145,0.0346 -0.369005,0.0526 -0.587022,0.0526 -0.970139,0 -1.714853,-0.30938 -2.214033,-0.91898 -0.488245,-0.5962 -0.735542,-1.49966 -0.735542,-2.685 0,-1.1945 0.252236,-2.11384 0.750006,-2.73191 0.511175,-0.63147 1.240014,-0.95144 2.167114,-0.95144 0.187677,0 0.366888,0.008 0.533047,0.0247 0.159103,0.0155 0.322086,0.0399 0.498828,0.0744 0.167216,0.0339 0.343252,0.079 0.524227,0.13406 0.127,0.0385 0.262467,0.0818 0.404989,0.12982 0.1143,-0.24412 0.226131,-0.52881 0.333375,-0.84949 0.113595,-0.34255 0.18662,-0.69885 0.217311,-1.06115 -0.48013,-0.19297 -0.925689,-0.32315 -1.326444,-0.387 -0.451203,-0.0723 -0.930275,-0.10901 -1.424164,-0.10901"
         style="fill:#3d7b7d;fill-opacity:1;fill-rule:nonzero;stroke:none;stroke-width:0.35277778"
         id="path25749"
         inkscape:connector-curvature="0" />
      <path
         d="m 75.14435,179.56196 c 0.330553,-1.61078 1.063978,-2.82751 1.850672,-4.03225 0.2794,-0.42792 0.595842,-0.91193 0.848431,-1.44286 0.02399,-0.0508 0.04904,-0.1009 0.07373,-0.15099 l 0.0039,-0.007 c 0.09984,-0.20108 0.212725,-0.42827 0.294569,-0.70414 0.117122,-0.39441 0.171803,-0.79728 0.162278,-1.19733 -0.01799,-0.76623 -0.220133,-1.44427 -0.617361,-2.07222 -0.350308,-0.55421 -0.80645,-0.99977 -1.355725,-1.32468 -0.803981,-0.47519 -1.799519,-0.66639 -2.7305,-0.52387 -0.708378,0.10795 -1.346553,0.38311 -1.896533,0.81844 l -0.117828,0.0931 -0.117828,-0.0928 c -0.156633,-0.12276 -0.291394,-0.21625 -0.424039,-0.29492 -0.80398,-0.47519 -1.799166,-0.66639 -2.7305,-0.52387 -1.182158,0.17991 -2.185105,0.83926 -2.824691,1.85596 -0.390172,0.62054 -0.595489,1.3201 -0.610306,2.07963 -0.01905,0.96061 0.315736,1.66193 0.569031,2.10573 0.04445,0.0776 0.08714,0.15628 0.129822,0.23459 l 0.0074,0.0131 c 0.08149,0.14993 0.165453,0.30409 0.262114,0.46108 0.144992,0.23459 0.288925,0.45826 0.462139,0.72672 0.26917,0.41628 0.521758,0.80786 0.75177,1.21991 0.525638,0.94262 0.865011,1.82033 1.066447,2.75907 0.328083,0.0529 0.592314,0.078 0.824441,0.078 0.222956,0 0.502356,-0.0264 0.83185,-0.078 0.28575,-1.39559 0.868539,-2.50261 1.652764,-3.72604 l 0.160514,-0.25012 0.160514,0.24977 c 0.195439,0.3048 0.402167,0.63041 0.590197,0.96732 0.525639,0.94262 0.865011,1.82068 1.066447,2.75907 0.328436,0.0529 0.592667,0.078 0.824442,0.078 0.222956,0 0.502356,-0.0264 0.83185,-0.078 m -4.469342,-5.46171 c -0.113241,0.1831 -0.230716,0.36407 -0.34043,0.53199 -0.381353,0.5842 -0.782814,1.22097 -1.135945,1.91982 l -0.170744,0.33796 -0.169686,-0.33831 c -0.09031,-0.17992 -0.187678,-0.36407 -0.290336,-0.54787 -0.25647,-0.46002 -0.536222,-0.89252 -0.80645,-1.31127 -0.147461,-0.2286 -0.298803,-0.46249 -0.443442,-0.69709 -0.07408,-0.1203 -0.147461,-0.25506 -0.218369,-0.38559 -0.05009,-0.0917 -0.100542,-0.18379 -0.153106,-0.27552 -0.256116,-0.44943 -0.36195,-0.8262 -0.35313,-1.26047 0.0088,-0.46355 0.126294,-0.86854 0.358422,-1.2379 0.221192,-0.35172 0.733778,-0.96308 1.683103,-1.10772 0.12453,-0.0191 0.251177,-0.0286 0.376413,-0.0286 0.601134,0 1.054806,0.21485 1.271412,0.34255 0.08431,0.0501 0.166863,0.10654 0.251883,0.17322 l 0.117828,0.0924 -0.06138,0.13618 c -0.22225,0.49283 -0.340783,1.03046 -0.351719,1.59773 -0.0127,0.64981 0.132292,1.26188 0.443442,1.87148 l 0.04868,0.0956 z m 3.179586,1.90359 c -0.256116,-0.45931 -0.535869,-0.89217 -0.806097,-1.31092 l -0.0095,-0.0145 c -0.14358,-0.22225 -0.2921,-0.45226 -0.434269,-0.68298 -0.07338,-0.11924 -0.143933,-0.24871 -0.21837,-0.38559 l -0.0039,-0.007 c -0.04904,-0.0896 -0.09807,-0.17921 -0.149225,-0.26847 -0.256117,-0.44943 -0.36195,-0.8262 -0.353483,-1.26047 0.0092,-0.46355 0.126294,-0.86854 0.358775,-1.2379 0.221191,-0.35172 0.733777,-0.96308 1.683102,-1.10772 0.124531,-0.0191 0.251178,-0.0286 0.376414,-0.0286 0.601133,0 1.054806,0.21485 1.271411,0.3429 0.328436,0.19403 0.591609,0.45227 0.804334,0.78882 0.240594,0.38029 0.352425,0.76094 0.363713,1.23437 0.0067,0.28504 -0.04762,0.5334 -0.0949,0.69144 -0.04127,0.1397 -0.110419,0.27869 -0.190147,0.43991 -0.03104,0.0621 -0.06138,0.12348 -0.09102,0.18521 -0.204611,0.43004 -0.47625,0.84632 -0.739422,1.24884 -0.382058,0.5849 -0.783167,1.22166 -1.13665,1.92087 l -0.170744,0.33796 -0.169686,-0.33831 c -0.08996,-0.17921 -0.187678,-0.36336 -0.290337,-0.54787"
         style="fill:#3d7b7d;fill-opacity:1;fill-rule:nonzero;stroke:none;stroke-width:0.35277778"
         id="path25753"
         inkscape:connector-curvature="0" />
    </g>
    <g
       id="g26452"
       transform="translate(0.13229271,-0.13229294)">
      <path
         d="m 90.986145,168.29177 c 0.09243,-0.0152 0.183797,-0.0226 0.273403,-0.0226 0.09031,0 0.182739,0.007 0.278341,0.0226 v 2.69804 c -0.0956,0.0148 -0.186619,0.0222 -0.273755,0.0222 -0.09278,0 -0.185561,-0.007 -0.277989,-0.0222"
         style="fill:#00a3c8;fill-opacity:1;fill-rule:nonzero;stroke:none;stroke-width:0.35277778"
         id="path25757"
         inkscape:connector-curvature="0" />
      <path
         d="m 92.06284,169.04988 c 0.03528,-0.008 0.0702,-0.0134 0.105481,-0.0169 0.03457,-0.004 0.07373,-0.006 0.116063,-0.006 0.04269,0 0.07973,0.002 0.112889,0.006 0.0321,0.004 0.06597,0.009 0.101248,0.0169 l 0.02046,0.0547 0.01693,0.0744 0.01305,0.0769 0.0095,0.0642 c 0.02469,-0.0374 0.05503,-0.0751 0.08961,-0.11254 0.03528,-0.0378 0.0762,-0.0716 0.122414,-0.10125 0.04621,-0.0303 0.09807,-0.0547 0.155575,-0.0734 0.0575,-0.0187 0.121003,-0.0282 0.191206,-0.0282 0.220133,0 0.386291,0.0603 0.497416,0.18027 0.111478,0.11995 0.166864,0.30868 0.166864,0.56656 v 1.23825 c -0.08996,0.0152 -0.178858,0.0222 -0.266347,0.0222 -0.08749,0 -0.176389,-0.007 -0.266347,-0.0222 v -1.09572 c 0,-0.13512 -0.02081,-0.23919 -0.06209,-0.31151 -0.04127,-0.0723 -0.113242,-0.109 -0.215547,-0.109 -0.04269,0 -0.08678,0.006 -0.131586,0.0187 -0.0448,0.0131 -0.08572,0.0374 -0.121709,0.0734 -0.03634,0.0363 -0.06562,0.0871 -0.08855,0.15205 -0.02258,0.0649 -0.03351,0.15028 -0.03351,0.25506 v 1.01705 c -0.08996,0.0152 -0.178858,0.0222 -0.266347,0.0222 -0.08749,0 -0.176389,-0.007 -0.2667,-0.0222"
         style="fill:#00a3c8;fill-opacity:1;fill-rule:nonzero;stroke:none;stroke-width:0.35277778"
         id="path25761"
         inkscape:connector-curvature="0" />
      <path
         d="m 94.318148,169.45488 h -0.243769 l -0.0187,-0.0748 0.701675,-0.89676 h 0.08608 v 0.56656 h 0.454025 c 0.0078,0.0377 0.0127,0.0709 0.01517,0.10125 0.0021,0.03 0.0035,0.0614 0.0035,0.0938 0,0.0349 -0.0014,0.0688 -0.0035,0.10124 -0.0025,0.0325 -0.0074,0.0688 -0.01517,0.10866 h -0.454025 v 0.76165 c 0,0.078 0.0063,0.1404 0.0187,0.18803 0.0127,0.0476 0.03069,0.085 0.05468,0.11253 0.02364,0.0275 0.05327,0.0462 0.08784,0.0565 0.03528,0.01 0.07655,0.0145 0.124177,0.0145 0.03775,0 0.07444,-0.003 0.11042,-0.009 0.03634,-0.006 0.06809,-0.0116 0.0956,-0.0169 0.01764,0.0476 0.03034,0.0974 0.03775,0.14852 0.0074,0.0512 0.01129,0.0967 0.01129,0.13687 l -0.0018,0.0692 -0.006,0.0547 c -0.115006,0.0275 -0.233539,0.0413 -0.356306,0.0413 -0.227542,0 -0.401814,-0.0533 -0.521758,-0.15945 -0.119945,-0.10654 -0.179917,-0.2794 -0.179917,-0.52"
         style="fill:#00a3c8;fill-opacity:1;fill-rule:nonzero;stroke:none;stroke-width:0.35277778"
         id="path25765"
         inkscape:connector-curvature="0" />
      <path
         d="m 96.126549,170.18301 c 0.01023,0.14993 0.06279,0.25894 0.157692,0.32597 0.09525,0.0681 0.220133,0.10195 0.375002,0.10195 0.08537,0 0.172156,-0.008 0.261056,-0.0247 0.0889,-0.0162 0.173214,-0.0395 0.253294,-0.0691 0.02752,0.0497 0.05151,0.10971 0.07091,0.17992 0.02046,0.0699 0.03175,0.14499 0.03422,0.22542 -0.195439,0.0744 -0.415572,0.11219 -0.660753,0.11219 -0.179916,0 -0.334433,-0.0247 -0.462844,-0.0751 -0.129469,-0.0501 -0.234244,-0.11924 -0.315736,-0.20814 -0.08114,-0.0889 -0.141111,-0.19438 -0.179917,-0.31679 -0.03916,-0.12277 -0.05821,-0.25647 -0.05821,-0.40181 0,-0.14253 0.02011,-0.27623 0.05997,-0.40182 0.04022,-0.12488 0.09948,-0.23354 0.178153,-0.32596 0.07867,-0.0924 0.176389,-0.16581 0.292805,-0.21943 0.116064,-0.054 0.252237,-0.0811 0.407106,-0.0811 0.135114,0 0.255058,0.024 0.360539,0.0716 0.104775,0.0476 0.194028,0.11254 0.267758,0.19509 0.07373,0.0825 0.129822,0.18097 0.167217,0.29457 0.03775,0.11395 0.05644,0.23565 0.05644,0.36583 0,0.0476 -0.0018,0.0945 -0.0056,0.14076 -0.0039,0.0462 -0.0081,0.0832 -0.01305,0.11077 z m 0.761647,-0.37147 c -0.0049,-0.11995 -0.03775,-0.21696 -0.09913,-0.29069 -0.06138,-0.0737 -0.147109,-0.11113 -0.257175,-0.11113 -0.124884,0 -0.220134,0.0353 -0.285398,0.10548 -0.06491,0.0702 -0.103363,0.16863 -0.116416,0.29634"
         style="fill:#00a3c8;fill-opacity:1;fill-rule:nonzero;stroke:none;stroke-width:0.35277778"
         id="path25769"
         inkscape:connector-curvature="0" />
      <path
         d="m 97.811336,169.04988 c 0.03775,-0.008 0.07338,-0.0134 0.107244,-0.0169 0.03387,-0.004 0.07056,-0.006 0.110773,-0.006 0.03704,0 0.07408,0.002 0.110419,0.007 0.03634,0.005 0.07197,0.0116 0.107245,0.0187 l 0.02046,0.0547 0.01693,0.0751 0.01305,0.0787 0.0095,0.0656 c 0.05503,-0.0773 0.122414,-0.14711 0.202494,-0.2085 0.08008,-0.061 0.179917,-0.0917 0.300567,-0.0917 0.02469,0 0.05362,0.001 0.08608,0.004 0.03245,0.002 0.05609,0.006 0.07126,0.0109 0.0046,0.025 0.0088,0.054 0.01094,0.0864 0.0028,0.0328 0.0039,0.0667 0.0039,0.10125 0,0.0427 -0.0018,0.0889 -0.0056,0.13899 -0.0035,0.0497 -0.01058,0.0974 -0.02046,0.14252 -0.02752,-0.005 -0.05821,-0.007 -0.09208,-0.007 h -0.06209 c -0.04233,0 -0.08961,0.005 -0.142169,0.0131 -0.05292,0.009 -0.102659,0.0317 -0.150284,0.0695 -0.04762,0.0374 -0.08714,0.0938 -0.11818,0.16899 -0.03104,0.0751 -0.04692,0.17991 -0.04692,0.31503 v 0.92286 c -0.04515,0.008 -0.08996,0.0124 -0.135114,0.0152 -0.04516,0.002 -0.0889,0.004 -0.131233,0.004 -0.04269,0 -0.08572,-10e-4 -0.129822,-0.004 -0.04339,-0.003 -0.08925,-0.007 -0.136878,-0.0152"
         style="fill:#00a3c8;fill-opacity:1;fill-rule:nonzero;stroke:none;stroke-width:0.35277778"
         id="path25773"
         inkscape:connector-curvature="0" />
      <path
         d="m 99.319858,169.04988 c 0.03528,-0.008 0.0702,-0.0134 0.105481,-0.0169 0.03457,-0.004 0.07373,-0.006 0.116063,-0.006 0.04269,0 0.07973,0.002 0.112889,0.006 0.0321,0.004 0.06597,0.009 0.101248,0.0169 l 0.02046,0.0547 0.01693,0.0744 0.01305,0.0769 0.0095,0.0642 c 0.02469,-0.0374 0.05503,-0.0751 0.08961,-0.11254 0.03528,-0.0378 0.0762,-0.0716 0.122411,-0.10125 0.0462,-0.0303 0.0981,-0.0547 0.15593,-0.0734 0.0572,-0.0187 0.12065,-0.0282 0.19085,-0.0282 0.22013,0 0.38594,0.0603 0.49742,0.18027 0.11112,0.11995 0.16686,0.30868 0.16686,0.56656 v 1.23825 c -0.09,0.0152 -0.17886,0.0222 -0.26635,0.0222 -0.0875,0 -0.17638,-0.007 -0.26634,-0.0222 v -1.09572 c 0,-0.13512 -0.0208,-0.23919 -0.0621,-0.31151 -0.0413,-0.0723 -0.11289,-0.109 -0.21555,-0.109 -0.0427,0 -0.0868,0.006 -0.13159,0.0187 -0.0448,0.0131 -0.0857,0.0374 -0.121701,0.0734 -0.03634,0.0363 -0.06562,0.0871 -0.08855,0.15205 -0.02223,0.0649 -0.03351,0.15028 -0.03351,0.25506 v 1.01705 c -0.08996,0.0152 -0.178858,0.0222 -0.266347,0.0222 -0.08749,0 -0.176389,-0.007 -0.2667,-0.0222"
         style="fill:#00a3c8;fill-opacity:1;fill-rule:nonzero;stroke:none;stroke-width:0.35277778"
         id="path25777"
         inkscape:connector-curvature="0" />
      <path
         d="m 102.49094,169.71417 c 0,-0.06 -0.0106,-0.10901 -0.0307,-0.14676 -0.0198,-0.0374 -0.0473,-0.0667 -0.0822,-0.0878 -0.0349,-0.0215 -0.0783,-0.0356 -0.12947,-0.043 -0.0512,-0.008 -0.1083,-0.0113 -0.17074,-0.0113 -0.13512,0 -0.27905,0.0261 -0.4311,0.0787 -0.0356,-0.0649 -0.0617,-0.12629 -0.079,-0.18379 -0.018,-0.0575 -0.0268,-0.1263 -0.0268,-0.20638 0.11042,-0.0377 0.22049,-0.0653 0.33091,-0.0825 0.10971,-0.0173 0.21237,-0.0265 0.30726,-0.0265 0.26,0 0.46355,0.0628 0.6096,0.18768 0.14711,0.12524 0.21943,0.32526 0.21943,0.60043 v 1.12571 c -0.0871,0.0279 -0.19367,0.054 -0.31856,0.0787 -0.12523,0.025 -0.26634,0.0374 -0.42439,0.0374 -0.127,0 -0.24412,-0.0109 -0.35031,-0.0335 -0.10689,-0.0226 -0.1979,-0.06 -0.27446,-0.11253 -0.0755,-0.0526 -0.13476,-0.11995 -0.17639,-0.20285 -0.0413,-0.0825 -0.0617,-0.1838 -0.0617,-0.30374 0,-0.11995 0.0258,-0.22084 0.0773,-0.30233 0.0515,-0.0811 0.11747,-0.14605 0.19861,-0.19509 0.0815,-0.0487 0.17251,-0.0832 0.27199,-0.10477 0.10019,-0.0212 0.20003,-0.0321 0.30057,-0.0321 0.0723,0 0.1524,0.004 0.24024,0.0113 z m 0,0.38629 c -0.0307,-0.005 -0.0631,-0.009 -0.0981,-0.013 -0.0349,-0.004 -0.0663,-0.005 -0.0938,-0.005 -0.12206,0 -0.21943,0.0215 -0.29034,0.0653 -0.0716,0.0441 -0.10724,0.11465 -0.10724,0.21202 0,0.0653 0.0138,0.11501 0.0413,0.14993 0.0275,0.0353 0.0603,0.061 0.0995,0.0769 0.0392,0.0166 0.0804,0.0264 0.12347,0.0303 0.0441,0.004 0.0822,0.005 0.115,0.005 0.037,0 0.0748,-0.003 0.11219,-0.009 0.0378,-0.006 0.0705,-0.0116 0.0981,-0.0169"
         style="fill:#00a3c8;fill-opacity:1;fill-rule:nonzero;stroke:none;stroke-width:0.35277778"
         id="path25781"
         inkscape:connector-curvature="0" />
      <path
         d="m 103.53374,169.45488 h -0.24377 l -0.0187,-0.0748 0.70168,-0.89676 h 0.0861 v 0.56656 h 0.45402 c 0.008,0.0377 0.0127,0.0709 0.0152,0.10125 0.002,0.03 0.004,0.0614 0.004,0.0938 0,0.0349 -10e-4,0.0688 -0.004,0.10124 -0.002,0.0325 -0.007,0.0688 -0.0152,0.10866 h -0.45402 v 0.76165 c 0,0.078 0.007,0.1404 0.019,0.18803 0.0123,0.0476 0.0307,0.085 0.0543,0.11253 0.024,0.0275 0.0533,0.0462 0.0878,0.0565 0.0353,0.01 0.0766,0.0145 0.12417,0.0145 0.0378,0 0.0744,-0.003 0.11042,-0.009 0.0363,-0.006 0.0684,-0.0116 0.096,-0.0169 0.0173,0.0476 0.03,0.0974 0.0374,0.14852 0.007,0.0512 0.0113,0.0967 0.0113,0.13687 l -0.002,0.0692 -0.006,0.0547 c -0.11465,0.0275 -0.23354,0.0413 -0.35631,0.0413 -0.22754,0 -0.40146,-0.0533 -0.52175,-0.15945 -0.11995,-0.10654 -0.17992,-0.2794 -0.17992,-0.52"
         style="fill:#00a3c8;fill-opacity:1;fill-rule:nonzero;stroke:none;stroke-width:0.35277778"
         id="path25785"
         inkscape:connector-curvature="0" />
      <path
         d="m 105.02396,169.45488 h -0.25153 c -0.007,-0.0321 -0.0134,-0.0667 -0.0169,-0.10301 -0.004,-0.0363 -0.005,-0.0706 -0.005,-0.10301 0,-0.0677 0.007,-0.1337 0.0222,-0.19897 h 0.77329 v 1.93993 c -0.0903,0.0152 -0.1778,0.0226 -0.26282,0.0226 -0.0825,0 -0.16933,-0.007 -0.25894,-0.0226 z m -0.0787,-0.73166 c -0.0152,-0.085 -0.0226,-0.16898 -0.0226,-0.25118 0,-0.0804 0.007,-0.16369 0.0226,-0.25153 0.0423,-0.007 0.0878,-0.013 0.13688,-0.0169 0.0483,-0.004 0.0928,-0.006 0.13335,-0.006 0.042,0 0.0882,0.002 0.13864,0.006 0.0501,0.004 0.0963,0.01 0.13899,0.0169 0.007,0.0427 0.0123,0.0847 0.0148,0.12594 0.002,0.0413 0.004,0.0829 0.004,0.12559 0,0.0402 -0.001,0.0815 -0.004,0.12383 -0.002,0.0423 -0.008,0.085 -0.0148,0.12735 -0.0427,0.007 -0.0885,0.0123 -0.13723,0.0152 -0.049,0.002 -0.0942,0.004 -0.13687,0.004 -0.0402,0 -0.0854,-0.001 -0.13512,-0.004 -0.0497,-0.003 -0.0963,-0.008 -0.13864,-0.0152"
         style="fill:#00a3c8;fill-opacity:1;fill-rule:nonzero;stroke:none;stroke-width:0.35277778"
         id="path25789"
         inkscape:connector-curvature="0" />
      <path
         d="m 106.89226,171.0346 c -0.15769,0 -0.29457,-0.0258 -0.41099,-0.0769 -0.11571,-0.0515 -0.21237,-0.12241 -0.28857,-0.21378 -0.0762,-0.0914 -0.13405,-0.19791 -0.17251,-0.32067 -0.0392,-0.12277 -0.0582,-0.25541 -0.0582,-0.39758 0,-0.14323 0.019,-0.27693 0.0582,-0.40182 0.0385,-0.12523 0.0963,-0.23318 0.17251,-0.3242 0.0762,-0.0917 0.17286,-0.16369 0.28857,-0.21625 0.11642,-0.0522 0.2533,-0.079 0.41099,-0.079 0.15804,0 0.29527,0.0268 0.4131,0.079 0.11712,0.0526 0.21484,0.12453 0.29281,0.21625 0.0773,0.091 0.13476,0.19897 0.17215,0.3242 0.0374,0.12489 0.0564,0.25859 0.0564,0.40182 0,0.14217 -0.019,0.27481 -0.0564,0.39758 -0.0374,0.12276 -0.0949,0.2293 -0.17215,0.32067 -0.078,0.0914 -0.17569,0.16228 -0.29281,0.21378 -0.11783,0.0512 -0.25506,0.0769 -0.4131,0.0769 m 0,-0.40499 c 0.14005,0 0.24095,-0.0522 0.30233,-0.15557 0.0614,-0.10407 0.0921,-0.2533 0.0921,-0.44838 0,-0.19544 -0.0307,-0.34502 -0.0921,-0.44874 -0.0614,-0.10371 -0.16228,-0.15557 -0.30233,-0.15557 -0.13758,0 -0.23671,0.0519 -0.2981,0.15557 -0.0614,0.10372 -0.0917,0.2533 -0.0917,0.44874 0,0.19508 0.0303,0.34431 0.0917,0.44838 0.0614,0.10336 0.16052,0.15557 0.2981,0.15557"
         style="fill:#00a3c8;fill-opacity:1;fill-rule:nonzero;stroke:none;stroke-width:0.35277778"
         id="path25793"
         inkscape:connector-curvature="0" />
      <path
         d="m 108.24656,169.04988 c 0.0353,-0.008 0.0702,-0.0134 0.10548,-0.0169 0.0346,-0.004 0.0737,-0.006 0.11606,-0.006 0.0427,0 0.0797,0.002 0.11289,0.006 0.0321,0.004 0.066,0.009 0.10125,0.0169 l 0.0205,0.0547 0.0169,0.0744 0.0131,0.0769 0.01,0.0642 c 0.0247,-0.0374 0.055,-0.0751 0.0896,-0.11254 0.0353,-0.0378 0.0762,-0.0716 0.12241,-0.10125 0.0462,-0.0303 0.0981,-0.0547 0.15558,-0.0734 0.0575,-0.0187 0.121,-0.0282 0.1912,-0.0282 0.22014,0 0.38594,0.0603 0.49742,0.18027 0.11112,0.11995 0.16686,0.30868 0.16686,0.56656 v 1.23825 c -0.09,0.0152 -0.17886,0.0222 -0.26634,0.0222 -0.0875,0 -0.17639,-0.007 -0.26635,-0.0222 v -1.09572 c 0,-0.13512 -0.0208,-0.23919 -0.0621,-0.31151 -0.0413,-0.0723 -0.11324,-0.109 -0.21555,-0.109 -0.0427,0 -0.0868,0.006 -0.13158,0.0187 -0.0448,0.0131 -0.0857,0.0374 -0.12171,0.0734 -0.0363,0.0363 -0.0656,0.0871 -0.0885,0.15205 -0.0226,0.0649 -0.0335,0.15028 -0.0335,0.25506 v 1.01705 c -0.0903,0.0152 -0.17886,0.0222 -0.26635,0.0222 -0.0875,0 -0.17639,-0.007 -0.2667,-0.0222"
         style="fill:#00a3c8;fill-opacity:1;fill-rule:nonzero;stroke:none;stroke-width:0.35277778"
         id="path25797"
         inkscape:connector-curvature="0" />
      <path
         d="m 111.41764,169.71417 c 0,-0.06 -0.0102,-0.10901 -0.0303,-0.14676 -0.0194,-0.0374 -0.0469,-0.0667 -0.0822,-0.0878 -0.0349,-0.0215 -0.0783,-0.0356 -0.12911,-0.043 -0.0515,-0.008 -0.10866,-0.0113 -0.1711,-0.0113 -0.13511,0 -0.27905,0.0261 -0.43145,0.0787 -0.0353,-0.0649 -0.0614,-0.12629 -0.0787,-0.18379 -0.018,-0.0575 -0.0268,-0.1263 -0.0268,-0.20638 0.11042,-0.0377 0.22049,-0.0653 0.33056,-0.0825 0.11006,-0.0173 0.21237,-0.0265 0.30762,-0.0265 0.26035,0 0.46355,0.0628 0.6096,0.18768 0.14675,0.12524 0.21942,0.32526 0.21942,0.60043 v 1.12571 c -0.0875,0.0279 -0.19367,0.054 -0.31891,0.0787 -0.12488,0.025 -0.26599,0.0374 -0.42403,0.0374 -0.12736,0 -0.24413,-0.0109 -0.35031,-0.0335 -0.10689,-0.0226 -0.19791,-0.06 -0.27446,-0.11253 -0.0758,-0.0526 -0.13477,-0.11995 -0.17639,-0.20285 -0.0413,-0.0825 -0.0617,-0.1838 -0.0617,-0.30374 0,-0.11995 0.0258,-0.22084 0.0769,-0.30233 0.0515,-0.0811 0.11782,-0.14605 0.19896,-0.19509 0.0815,-0.0487 0.17216,-0.0832 0.27199,-0.10477 0.10019,-0.0212 0.20003,-0.0321 0.30057,-0.0321 0.0723,0 0.1524,0.004 0.23989,0.0113 z m 0,0.38629 c -0.0303,-0.005 -0.0628,-0.009 -0.0977,-0.013 -0.0353,-0.004 -0.0663,-0.005 -0.0938,-0.005 -0.12206,0 -0.21943,0.0215 -0.29069,0.0653 -0.0709,0.0441 -0.10689,0.11465 -0.10689,0.21202 0,0.0653 0.0138,0.11501 0.0413,0.14993 0.0275,0.0353 0.0603,0.061 0.0995,0.0769 0.0388,0.0166 0.0801,0.0264 0.12347,0.0303 0.0441,0.004 0.0822,0.005 0.11465,0.005 0.0374,0 0.0751,-0.003 0.11254,-0.009 0.0378,-0.006 0.0702,-0.0116 0.0977,-0.0169"
         style="fill:#00a3c8;fill-opacity:1;fill-rule:nonzero;stroke:none;stroke-width:0.35277778"
         id="path25801"
         inkscape:connector-curvature="0" />
      <path
         d="m 112.39345,168.24695 c 0.09,-0.0152 0.17851,-0.0229 0.26599,-0.0229 0.0854,0 0.17287,0.008 0.26318,0.0229 v 1.96956 c 0,0.078 0.004,0.14005 0.0127,0.18768 0.009,0.048 0.0229,0.0843 0.0416,0.11112 l 0.073,0.054 c 0.03,0.0102 0.0677,0.0152 0.11254,0.0152 l 0.0656,-0.004 0.0695,-0.0113 c 0.0275,0.10265 0.0413,0.20284 0.0413,0.30056 v 0.0543 l -0.007,0.054 c -0.0402,0.013 -0.0882,0.0215 -0.14464,0.0268 -0.0565,0.005 -0.10831,0.007 -0.15593,0.007 -0.19226,0 -0.34678,-0.0533 -0.46285,-0.15945 -0.11641,-0.10654 -0.17462,-0.2794 -0.17462,-0.52"
         style="fill:#00a3c8;fill-opacity:1;fill-rule:nonzero;stroke:none;stroke-width:0.35277778"
         id="path25805"
         inkscape:connector-curvature="0" />
      <path
         d="m 90.783341,172.51311 c 0.09031,-0.0152 0.192969,-0.0226 0.307975,-0.0226 0.0448,0 0.09066,0.001 0.136878,0.004 0.04621,0.002 0.09207,0.009 0.136878,0.0187 l 0.386644,2.03024 0.464961,-2.03024 c 0.05045,-0.007 0.09666,-0.0134 0.138995,-0.0169 0.04233,-0.004 0.08643,-0.006 0.131233,-0.006 0.07514,0 0.15628,0.007 0.244122,0.0226 l 0.483658,2.0828 0.386645,-2.0828 c 0.07726,-0.0152 0.157691,-0.0226 0.240241,-0.0226 0.05009,0 0.09878,0.002 0.146403,0.007 0.04763,0.005 0.09384,0.0102 0.138642,0.0152 l -0.649111,2.69804 c -0.08996,0.0148 -0.183445,0.0222 -0.281164,0.0222 -0.09525,0 -0.199319,-0.007 -0.311503,-0.0222 l -0.431447,-1.7974 -0.465314,1.7974 c -0.05997,0.005 -0.113242,0.01 -0.159455,0.0148 -0.04657,0.005 -0.09701,0.007 -0.152048,0.007 -0.07796,0 -0.161219,-0.007 -0.25153,-0.0222"
         style="fill:#00a3c8;fill-opacity:1;fill-rule:nonzero;stroke:none;stroke-width:0.35277778"
         id="path25809"
         inkscape:connector-curvature="0" />
      <path
         d="m 95.140156,175.25594 c -0.157692,0 -0.294569,-0.0258 -0.410986,-0.0769 -0.115711,-0.0515 -0.212372,-0.12241 -0.288572,-0.21378 -0.0762,-0.0914 -0.134056,-0.19791 -0.172509,-0.32067 -0.03916,-0.12277 -0.05821,-0.25541 -0.05821,-0.39758 0,-0.14288 0.01905,-0.27693 0.05821,-0.40182 0.03845,-0.12523 0.09631,-0.23318 0.172509,-0.3242 0.0762,-0.0917 0.172861,-0.16369 0.288572,-0.21625 0.116417,-0.0522 0.253294,-0.079 0.410986,-0.079 0.158044,0 0.295275,0.0268 0.413103,0.079 0.117475,0.0526 0.214841,0.12453 0.292805,0.21625 0.07726,0.091 0.134761,0.19897 0.172156,0.3242 0.03775,0.12489 0.05644,0.25894 0.05644,0.40182 0,0.14217 -0.0187,0.27481 -0.05644,0.39758 -0.0374,0.12276 -0.0949,0.2293 -0.172156,0.32067 -0.07796,0.0914 -0.17533,0.16228 -0.292805,0.21378 -0.117828,0.0512 -0.255059,0.0769 -0.413103,0.0769 m 0,-0.40499 c 0.140053,0 0.240947,-0.0522 0.302331,-0.15557 0.06138,-0.10407 0.09207,-0.2533 0.09207,-0.44838 0,-0.19509 -0.03069,-0.34502 -0.09207,-0.44838 -0.06138,-0.10407 -0.162278,-0.15593 -0.302331,-0.15593 -0.137583,0 -0.236714,0.0519 -0.298097,0.15593 -0.06138,0.10336 -0.09172,0.25329 -0.09172,0.44838 0,0.19508 0.03034,0.34431 0.09172,0.44838 0.06138,0.10336 0.160514,0.15557 0.298097,0.15557"
         style="fill:#00a3c8;fill-opacity:1;fill-rule:nonzero;stroke:none;stroke-width:0.35277778"
         id="path25813"
         inkscape:connector-curvature="0" />
      <path
         d="m 96.494452,173.27123 c 0.03775,-0.008 0.07338,-0.0134 0.107244,-0.0169 0.03387,-0.004 0.07056,-0.006 0.110773,-0.006 0.03704,0 0.07408,0.002 0.110419,0.007 0.03598,0.005 0.07197,0.0116 0.107245,0.0187 l 0.02046,0.0547 0.01693,0.0751 0.01305,0.0787 0.0095,0.0656 c 0.05503,-0.0773 0.122414,-0.14711 0.202494,-0.2085 0.08008,-0.061 0.179917,-0.0917 0.300567,-0.0917 0.02469,0 0.05327,0.001 0.08608,0.004 0.03245,0.002 0.05609,0.006 0.07126,0.0109 0.0046,0.025 0.0088,0.054 0.01094,0.0864 0.0028,0.0328 0.0039,0.0667 0.0039,0.10125 0,0.0427 -0.0018,0.0889 -0.0056,0.13899 -0.0035,0.0497 -0.01058,0.0974 -0.02046,0.14252 -0.02752,-0.005 -0.05821,-0.007 -0.09208,-0.007 h -0.06209 c -0.04233,0 -0.08961,0.005 -0.142169,0.0131 -0.05292,0.009 -0.102659,0.0317 -0.150284,0.0695 -0.04762,0.0374 -0.08714,0.0938 -0.11818,0.16899 -0.0314,0.0751 -0.04692,0.17991 -0.04692,0.31503 v 0.92286 c -0.04516,0.008 -0.08996,0.0124 -0.135114,0.0152 -0.04516,0.002 -0.0889,0.004 -0.131233,0.004 -0.04269,0 -0.08572,-10e-4 -0.129822,-0.004 -0.04339,-0.003 -0.08925,-0.007 -0.136878,-0.0152"
         style="fill:#00a3c8;fill-opacity:1;fill-rule:nonzero;stroke:none;stroke-width:0.35277778"
         id="path25817"
         inkscape:connector-curvature="0" />
      <path
         d="m 97.969451,172.46829 c 0.08467,-0.0152 0.172861,-0.0229 0.262467,-0.0229 0.09031,0 0.179211,0.008 0.2667,0.0229 v 2.74285 c -0.08749,0.0152 -0.176389,0.0222 -0.2667,0.0222 -0.08961,0 -0.1778,-0.007 -0.262467,-0.0222 z m 0.604308,1.72579 0.479778,-0.92287 c 0.09772,-0.0152 0.196497,-0.0226 0.296333,-0.0226 0.09525,0 0.188031,0.007 0.278342,0.0226 l -0.495653,0.89676 0.57785,1.04317 c -0.102658,0.0152 -0.201436,0.0222 -0.296333,0.0222 -0.08784,0 -0.180269,-0.007 -0.277989,-0.0222"
         style="fill:#00a3c8;fill-opacity:1;fill-rule:nonzero;stroke:none;stroke-width:0.35277778"
         id="path25821"
         inkscape:connector-curvature="0" />
      <path
         d="m 99.999361,173.26771 c 0.03493,-0.008 0.06915,-0.0127 0.103009,-0.0152 0.0339,-0.003 0.072,-0.004 0.11465,-0.004 0.0698,0 0.14112,0.007 0.21379,0.0222 l 0.0205,0.0547 0.0191,0.0765 0.0152,0.0811 0.009,0.0653 c 0.0222,-0.0399 0.0497,-0.079 0.0822,-0.11818 0.0324,-0.0388 0.072,-0.073 0.11818,-0.10301 0.0462,-0.0303 0.0984,-0.0543 0.15593,-0.0734 0.0575,-0.0187 0.12135,-0.0282 0.1912,-0.0282 0.10795,0 0.20849,0.0201 0.30233,0.0603 0.0935,0.0399 0.17569,0.10054 0.24554,0.18203 0.0702,0.0811 0.12453,0.18309 0.16368,0.30551 0.0385,0.12276 0.0582,0.26775 0.0582,0.43532 0,0.16263 -0.024,0.30833 -0.0716,0.4371 -0.0476,0.12876 -0.11642,0.23812 -0.20638,0.32843 -0.09,0.0903 -0.20037,0.15946 -0.33055,0.20849 -0.12982,0.0487 -0.27728,0.0727 -0.44238,0.0727 -0.0423,0 -0.0843,-0.002 -0.12594,-0.005 -0.0413,-0.004 -0.0755,-0.008 -0.10301,-0.0134 v 0.8636 c -0.0476,0.007 -0.0928,0.0124 -0.13688,0.0145 -0.0438,0.003 -0.0871,0.004 -0.12982,0.004 -0.042,0 -0.0854,-0.001 -0.12912,-0.004 -0.0438,-0.002 -0.0893,-0.007 -0.136879,-0.0145 z m 0.532699,1.5307 c 0.0677,0.0201 0.14534,0.03 0.23283,0.03 0.15522,0 0.27375,-0.0501 0.3563,-0.14993 0.0822,-0.10019 0.12418,-0.25153 0.12418,-0.45403 0,-0.0776 -0.007,-0.14957 -0.019,-0.2159 -0.0127,-0.066 -0.0339,-0.12276 -0.0639,-0.17039 -0.03,-0.0476 -0.0681,-0.0854 -0.1143,-0.11289 -0.0466,-0.0275 -0.10336,-0.0413 -0.17075,-0.0413 -0.0628,0 -0.11571,0.012 -0.15945,0.036 -0.0441,0.0236 -0.0797,0.0561 -0.10725,0.0974 -0.0272,0.0413 -0.0476,0.0892 -0.06,0.14428 -0.0123,0.055 -0.0187,0.11395 -0.0187,0.17639"
         style="fill:#00a3c8;fill-opacity:1;fill-rule:nonzero;stroke:none;stroke-width:0.35277778"
         id="path25825"
         inkscape:connector-curvature="0" />
      <path
         d="m 102.21334,172.46829 c 0.09,-0.0152 0.17851,-0.0229 0.26599,-0.0229 0.0854,0 0.17287,0.008 0.26318,0.0229 v 1.96956 c 0,0.078 0.004,0.14005 0.0127,0.18768 0.009,0.0476 0.0229,0.0843 0.0416,0.11112 l 0.073,0.054 c 0.03,0.01 0.0677,0.0152 0.11254,0.0152 l 0.0656,-0.004 0.0695,-0.0113 c 0.0275,0.10265 0.0413,0.20284 0.0413,0.30056 v 0.0543 l -0.007,0.054 c -0.0402,0.013 -0.0882,0.0215 -0.14464,0.0268 -0.0564,0.005 -0.10831,0.007 -0.15593,0.007 -0.19226,0 -0.34643,-0.0529 -0.46285,-0.1591 -0.11641,-0.10654 -0.17462,-0.2794 -0.17462,-0.52"
         style="fill:#00a3c8;fill-opacity:1;fill-rule:nonzero;stroke:none;stroke-width:0.35277778"
         id="path25829"
         inkscape:connector-curvature="0" />
      <path
         d="m 104.41184,173.93551 c 0,-0.06 -0.0102,-0.10901 -0.0303,-0.1464 -0.0198,-0.0377 -0.0469,-0.067 -0.0822,-0.0882 -0.0349,-0.0215 -0.0783,-0.0356 -0.12911,-0.043 -0.0515,-0.008 -0.10866,-0.0113 -0.1711,-0.0113 -0.13511,0 -0.27905,0.0261 -0.43145,0.0787 -0.0353,-0.0649 -0.0614,-0.12629 -0.0787,-0.18379 -0.018,-0.0575 -0.0268,-0.1263 -0.0268,-0.20638 0.11042,-0.0377 0.22049,-0.0653 0.33056,-0.0825 0.11006,-0.0173 0.21237,-0.0265 0.30762,-0.0265 0.26035,0 0.46355,0.0628 0.6096,0.18768 0.14675,0.12524 0.21942,0.32526 0.21942,0.60043 v 1.12571 c -0.0875,0.0279 -0.19367,0.054 -0.31855,0.0787 -0.12524,0.025 -0.26635,0.0374 -0.42439,0.0374 -0.12736,0 -0.24413,-0.0109 -0.35031,-0.0335 -0.10689,-0.0226 -0.19791,-0.06 -0.27446,-0.11253 -0.0759,-0.0526 -0.13477,-0.11995 -0.17639,-0.20285 -0.0413,-0.0825 -0.0617,-0.1838 -0.0617,-0.30374 0,-0.11995 0.0258,-0.22084 0.0769,-0.30233 0.0515,-0.0811 0.11782,-0.14605 0.19896,-0.19509 0.0815,-0.0487 0.17216,-0.0832 0.27199,-0.10477 0.10019,-0.0212 0.20003,-0.0321 0.30057,-0.0321 0.0723,0 0.1524,0.004 0.23989,0.0113 z m 0,0.38629 c -0.0303,-0.005 -0.0628,-0.009 -0.0974,-0.013 -0.0353,-0.004 -0.0667,-0.005 -0.0942,-0.005 -0.12206,0 -0.21943,0.0215 -0.29069,0.0653 -0.0709,0.0441 -0.10689,0.11465 -0.10689,0.21202 0,0.0653 0.0138,0.11501 0.0413,0.14993 0.0275,0.0353 0.0603,0.061 0.0995,0.0769 0.0388,0.0166 0.0801,0.0265 0.12347,0.0303 0.0441,0.004 0.0822,0.005 0.11465,0.005 0.0374,0 0.0751,-0.003 0.11289,-0.009 0.0374,-0.006 0.0699,-0.0116 0.0974,-0.0169"
         style="fill:#00a3c8;fill-opacity:1;fill-rule:nonzero;stroke:none;stroke-width:0.35277778"
         id="path25833"
         inkscape:connector-curvature="0" />
      <path
         d="m 106.70425,174.75361 c 0.0303,0.0497 0.055,0.10795 0.0751,0.17462 0.0201,0.066 0.0296,0.14429 0.0296,0.23425 -0.0998,0.0399 -0.19367,0.0656 -0.28116,0.0766 -0.0875,0.0116 -0.1785,0.0169 -0.27375,0.0169 -0.16263,0 -0.3041,-0.0254 -0.4244,-0.0769 -0.11994,-0.0511 -0.21942,-0.12171 -0.29809,-0.21167 -0.0787,-0.09 -0.13829,-0.1972 -0.17816,-0.32102 -0.0399,-0.12348 -0.06,-0.25824 -0.06,-0.40358 0,-0.14252 0.019,-0.27482 0.0582,-0.39758 0.0385,-0.12206 0.0974,-0.23001 0.17639,-0.32244 0.0787,-0.0924 0.17674,-0.16545 0.29457,-0.21802 0.11747,-0.0522 0.25365,-0.0787 0.40887,-0.0787 0.055,0 0.10583,0.001 0.15205,0.004 0.0462,0.002 0.0907,0.007 0.13299,0.0145 0.0423,0.008 0.085,0.018 0.12771,0.0303 0.0427,0.0124 0.0903,0.0289 0.14252,0.0483 0,0.0579 -0.007,0.12241 -0.0226,0.19332 -0.0152,0.0716 -0.0388,0.1397 -0.0713,0.20497 -0.0748,-0.0254 -0.14076,-0.0423 -0.1972,-0.0508 -0.0557,-0.009 -0.1203,-0.0131 -0.19262,-0.0131 -0.15557,0 -0.27234,0.0504 -0.35101,0.1517 -0.0787,0.10124 -0.11818,0.24588 -0.11818,0.43321 0,0.2032 0.0423,0.35066 0.12735,0.44309 0.085,0.0924 0.20003,0.13864 0.34537,0.13864 0.0374,0 0.072,-3.5e-4 0.10301,-0.002 l 0.0921,-0.009 0.0917,-0.0229 c 0.0314,-0.01 0.0681,-0.0222 0.11077,-0.037"
         style="fill:#00a3c8;fill-opacity:1;fill-rule:nonzero;stroke:none;stroke-width:0.35277778"
         id="path25837"
         inkscape:connector-curvature="0" />
      <path
         d="m 107.55224,174.40436 c 0.0102,0.14993 0.0628,0.25894 0.15769,0.32597 0.0952,0.0681 0.22013,0.10195 0.375,0.10195 0.0854,0 0.17216,-0.008 0.26106,-0.0247 0.0889,-0.0162 0.17321,-0.0395 0.25329,-0.0691 0.0275,0.0497 0.0515,0.10971 0.0709,0.17992 0.0205,0.0699 0.0317,0.14499 0.0342,0.22542 -0.19544,0.0744 -0.41557,0.11219 -0.66075,0.11219 -0.17992,0 -0.33443,-0.0247 -0.4632,-0.0751 -0.12911,-0.0501 -0.23389,-0.11924 -0.31538,-0.20814 -0.0811,-0.0889 -0.14111,-0.19438 -0.17992,-0.31679 -0.0392,-0.12277 -0.0582,-0.25647 -0.0582,-0.40181 0,-0.14253 0.0201,-0.27623 0.06,-0.40182 0.0402,-0.12488 0.0995,-0.23354 0.17815,-0.32596 0.0787,-0.0924 0.17639,-0.16581 0.2928,-0.21943 0.11607,-0.054 0.25224,-0.0811 0.40711,-0.0811 0.13511,0 0.25506,0.024 0.36054,0.0716 0.10477,0.0476 0.19403,0.11254 0.26776,0.19509 0.0737,0.0825 0.12982,0.18097 0.16721,0.29457 0.0378,0.11395 0.0565,0.23565 0.0565,0.36583 0,0.0476 -0.002,0.0945 -0.006,0.14076 -0.004,0.0462 -0.008,0.0832 -0.0131,0.11077 z m 0.76165,-0.37147 c -0.005,-0.11995 -0.0378,-0.21696 -0.0991,-0.29069 -0.0617,-0.0741 -0.14711,-0.11113 -0.25718,-0.11113 -0.12488,0 -0.22013,0.0353 -0.2854,0.10548 -0.0649,0.0699 -0.10336,0.16863 -0.11641,0.29634"
         style="fill:#00a3c8;fill-opacity:1;fill-rule:nonzero;stroke:none;stroke-width:0.35277778"
         id="path25841"
         inkscape:connector-curvature="0" />
      <path
         d="m 92.468261,178.03267 c 0.09243,-0.0148 0.182739,-0.0226 0.270228,-0.0226 0.08749,0 0.179211,0.008 0.274108,0.0226 v 1.32468 c -0.130175,0.0476 -0.265994,0.0794 -0.407458,0.0956 -0.141111,0.0166 -0.264231,0.0243 -0.369711,0.0243 -0.219781,0 -0.412398,-0.0342 -0.577498,-0.10301 -0.165452,-0.0688 -0.302683,-0.16474 -0.41275,-0.28892 -0.110419,-0.12383 -0.192616,-0.27093 -0.24765,-0.44062 -0.05503,-0.17039 -0.08255,-0.3556 -0.08255,-0.55563 0,-0.20037 0.02893,-0.38593 0.08608,-0.55703 0.05786,-0.17145 0.140759,-0.31962 0.249767,-0.44485 0.109008,-0.12489 0.242711,-0.22261 0.401814,-0.29281 0.158397,-0.0699 0.339372,-0.10477 0.541866,-0.10477 0.119945,0 0.232128,0.007 0.335492,0.0226 0.10407,0.0148 0.21202,0.0462 0.324908,0.0938 -0.0049,0.0744 -0.02011,0.14782 -0.0448,0.21943 -0.0254,0.0709 -0.05292,0.14323 -0.08255,0.21555 -0.08784,-0.03 -0.165453,-0.0512 -0.232834,-0.0635 -0.06773,-0.0131 -0.147814,-0.0187 -0.240241,-0.0187 -0.240242,0 -0.424745,0.0776 -0.553509,0.23424 -0.128764,0.15628 -0.193322,0.38841 -0.193322,0.69603 0,0.30763 0.06385,0.53728 0.191558,0.68827 0.127353,0.1517 0.315031,0.22719 0.563034,0.22719 0.04233,0 0.08043,-0.002 0.1143,-0.007 0.03351,-0.005 0.06421,-0.01 0.09172,-0.0148"
         style="fill:#00a3c8;fill-opacity:1;fill-rule:nonzero;stroke:none;stroke-width:0.35277778"
         id="path25845"
         inkscape:connector-curvature="0" />
      <path
         d="m 93.492357,177.49255 c 0.03739,-0.008 0.07338,-0.0134 0.107244,-0.0169 0.03387,-0.004 0.07056,-0.006 0.110773,-0.006 0.03704,0 0.07408,0.002 0.110419,0.007 0.03634,0.005 0.07197,0.0116 0.107245,0.0187 l 0.02046,0.0547 0.01693,0.0751 0.01305,0.0787 0.0095,0.0656 c 0.05503,-0.0773 0.122414,-0.14711 0.202494,-0.2085 0.08008,-0.061 0.179917,-0.0917 0.300214,-0.0917 0.02505,0 0.05362,0.001 0.08643,0.004 0.03245,0.002 0.05609,0.006 0.07126,0.0109 0.0046,0.025 0.0088,0.054 0.01094,0.0864 0.0028,0.0328 0.0039,0.0667 0.0039,0.10125 0,0.0427 -0.0018,0.0889 -0.0056,0.13899 -0.0035,0.0497 -0.01058,0.0974 -0.02046,0.14252 -0.02752,-0.005 -0.05821,-0.007 -0.09207,-0.007 h -0.06209 c -0.04233,0 -0.08961,0.005 -0.142169,0.0131 -0.05292,0.009 -0.102659,0.0317 -0.150284,0.0695 -0.04763,0.0374 -0.08714,0.0938 -0.11818,0.16899 -0.0314,0.0751 -0.04692,0.17991 -0.04692,0.31503 v 0.92286 c -0.04515,0.008 -0.09031,0.0123 -0.135114,0.0152 -0.04515,0.002 -0.0889,0.004 -0.131233,0.004 -0.04269,0 -0.08572,-0.001 -0.129822,-0.004 -0.04339,-0.003 -0.08925,-0.007 -0.136878,-0.0152"
         style="fill:#00a3c8;fill-opacity:1;fill-rule:nonzero;stroke:none;stroke-width:0.35277778"
         id="path25849"
         inkscape:connector-curvature="0" />
      <path
         d="m 95.766345,179.47729 c -0.157692,0 -0.294569,-0.0258 -0.410986,-0.0769 -0.115711,-0.0515 -0.212372,-0.12241 -0.288572,-0.21413 -0.0762,-0.091 -0.134056,-0.19756 -0.172509,-0.32032 -0.03916,-0.12277 -0.05821,-0.25541 -0.05821,-0.39758 0,-0.14323 0.01905,-0.27693 0.05821,-0.40182 0.03845,-0.12523 0.09631,-0.23318 0.172509,-0.3242 0.0762,-0.0917 0.172861,-0.16369 0.288572,-0.21625 0.116417,-0.0522 0.253294,-0.079 0.410986,-0.079 0.158044,0 0.295628,0.0268 0.413103,0.079 0.117122,0.0526 0.214841,0.12453 0.292805,0.21625 0.07726,0.091 0.134761,0.19897 0.172156,0.3242 0.03739,0.12489 0.05644,0.25859 0.05644,0.40182 0,0.14217 -0.01905,0.27481 -0.05644,0.39758 -0.03739,0.12276 -0.0949,0.2293 -0.172156,0.32032 -0.07796,0.0917 -0.175683,0.16263 -0.292805,0.21413 -0.117475,0.0512 -0.255059,0.0769 -0.413103,0.0769 m 0,-0.40499 c 0.140053,0 0.240947,-0.0522 0.302331,-0.15557 0.06138,-0.10407 0.09208,-0.2533 0.09208,-0.44838 0,-0.19544 -0.03069,-0.34502 -0.09208,-0.44874 -0.06138,-0.10371 -0.162278,-0.15557 -0.302331,-0.15557 -0.137583,0 -0.236714,0.0519 -0.298097,0.15557 -0.06138,0.10372 -0.09172,0.2533 -0.09172,0.44874 0,0.19508 0.03034,0.34431 0.09172,0.44838 0.06138,0.10336 0.160514,0.15557 0.298097,0.15557"
         style="fill:#00a3c8;fill-opacity:1;fill-rule:nonzero;stroke:none;stroke-width:0.35277778"
         id="path25853"
         inkscape:connector-curvature="0" />
      <path
         d="m 97.087145,177.49255 c 0.08961,-0.0152 0.178506,-0.0226 0.265994,-0.0226 0.08749,0 0.176389,0.007 0.2667,0.0226 v 1.02799 c 0,0.10266 0.0081,0.18733 0.02434,0.2533 0.01658,0.0663 0.04127,0.11888 0.07514,0.15734 0.03387,0.0392 0.07549,0.0667 0.125589,0.0829 0.05009,0.0162 0.109008,0.0243 0.176741,0.0243 0.09243,0 0.169686,-0.008 0.232128,-0.0265 v -1.51941 c 0.09031,-0.0152 0.1778,-0.0226 0.26282,-0.0226 0.08749,0 0.176388,0.007 0.266347,0.0226 v 1.86478 c -0.07973,0.0275 -0.185561,0.0543 -0.317147,0.0804 -0.130881,0.0268 -0.267759,0.0395 -0.410634,0.0395 -0.127353,0 -0.250472,-0.01 -0.367947,-0.0296 -0.117122,-0.0205 -0.220839,-0.0628 -0.309386,-0.12805 -0.08855,-0.0649 -0.159808,-0.15981 -0.21202,-0.2847 -0.05256,-0.12523 -0.07867,-0.29174 -0.07867,-0.49918"
         style="fill:#00a3c8;fill-opacity:1;fill-rule:nonzero;stroke:none;stroke-width:0.35277778"
         id="path25857"
         inkscape:connector-curvature="0" />
      <path
         d="m 99.256041,177.48903 c 0.03493,-0.008 0.06914,-0.0127 0.103011,-0.0152 0.03387,-0.003 0.07197,-0.004 0.114653,-0.004 0.06985,0 0.141111,0.007 0.213783,0.0222 l 0.02081,0.0547 0.0187,0.0766 0.01517,0.0811 0.0092,0.0653 c 0.02223,-0.0399 0.04974,-0.079 0.0822,-0.11818 0.03246,-0.0388 0.07197,-0.0734 0.118181,-0.10301 0.04621,-0.0303 0.09842,-0.0543 0.155931,-0.0734 0.0575,-0.0187 0.12135,-0.0282 0.1912,-0.0282 0.10795,0 0.20849,0.0201 0.30233,0.0603 0.0935,0.0399 0.17569,0.10054 0.24554,0.18203 0.0702,0.0808 0.12453,0.18309 0.16368,0.30551 0.0385,0.12276 0.0582,0.26775 0.0582,0.43532 0,0.16263 -0.024,0.30833 -0.0716,0.4371 -0.0476,0.12876 -0.11642,0.23812 -0.20638,0.32843 -0.09,0.0903 -0.20037,0.15946 -0.3302,0.20849 -0.13017,0.0487 -0.27763,0.0727 -0.44273,0.0727 -0.04269,0 -0.08432,-0.002 -0.125943,-0.005 -0.04127,-0.004 -0.07549,-0.008 -0.103012,-0.0134 v 0.8636 c -0.04762,0.007 -0.09313,0.0123 -0.136877,0.0145 -0.04375,0.003 -0.08714,0.004 -0.129823,0.004 -0.04198,0 -0.08537,-0.001 -0.129116,-0.004 -0.0441,-0.002 -0.08925,-0.007 -0.136878,-0.0145 z m 0.532694,1.5307 c 0.06773,0.0201 0.145345,0.03 0.232835,0.03 0.15522,0 0.27375,-0.0501 0.3563,-0.14993 0.0825,-0.10019 0.12418,-0.25153 0.12418,-0.45403 0,-0.0776 -0.007,-0.14957 -0.019,-0.21625 -0.0127,-0.0656 -0.0339,-0.12241 -0.0639,-0.17039 -0.03,-0.0476 -0.0681,-0.085 -0.1143,-0.11254 -0.0466,-0.0275 -0.10336,-0.0413 -0.17075,-0.0413 -0.0628,0 -0.11571,0.012 -0.159451,0.0356 -0.04374,0.024 -0.07973,0.0564 -0.107244,0.0977 -0.02752,0.0413 -0.04763,0.0893 -0.05997,0.14428 -0.01235,0.055 -0.0187,0.11395 -0.0187,0.17639"
         style="fill:#00a3c8;fill-opacity:1;fill-rule:nonzero;stroke:none;stroke-width:0.35277778"
         id="path25861"
         inkscape:connector-curvature="0" />
    </g>
  </g>
</svg>
