<?xml version="1.0" encoding="UTF-8" standalone="no"?>
<!-- Created with Inkscape (http://www.inkscape.org/) -->

<svg
   xmlns:dc="http://purl.org/dc/elements/1.1/"
   xmlns:cc="http://creativecommons.org/ns#"
   xmlns:rdf="http://www.w3.org/1999/02/22-rdf-syntax-ns#"
   xmlns:svg="http://www.w3.org/2000/svg"
   xmlns="http://www.w3.org/2000/svg"
   version="1.1"
   width="892.91339"
   height="155.9055"
   id="svg3218">
  <defs
     id="defs3220" />
  <metadata
     id="metadata3223">
    <rdf:RDF>
      <cc:Work
         rdf:about="">
        <dc:format>image/svg+xml</dc:format>
        <dc:type
           rdf:resource="http://purl.org/dc/dcmitype/StillImage" />
        <dc:title></dc:title>
      </cc:Work>
    </rdf:RDF>
  </metadata>
  <g
     transform="translate(12.345792,-462.8478)"
     id="layer1">
    <g
       transform="matrix(2.777779,0,0,2.777779,-587.43782,-1073.3332)"
       id="g3257">
      <path
         d="m 268.35988,578.13041 6.0775,0.0275 c -0.0538,-1.0925 -0.32625,-1.89875 -0.81625,-2.4175 -0.49125,-0.52 -1.21875,-0.77875 -2.1825,-0.77875 -0.8575,0 -1.54875,0.2725 -2.075,0.81875 -0.5275,0.54625 -0.86125,1.32875 -1.00375,2.35 m 19.0125,6.03 -19.12,0.0275 0,0.425 c 0,1.41375 0.255,2.465 0.7625,3.15375 0.50875,0.68875 1.28125,1.0325 2.31625,1.0325 0.625,0 1.16875,-0.185 1.63375,-0.555 0.46375,-0.36875 0.83,-0.90625 1.0975,-1.60875 l 12.47375,0.8375 c -1.08875,3.01 -2.965,5.33 -5.62625,6.96 -2.6625,1.63 -5.92375,2.445 -9.78125,2.445 -2.14375,0 -4.14875,-0.32625 -6.01625,-0.97875 -1.86625,-0.65125 -3.54125,-1.60375 -5.02375,-2.855 -1.66125,-1.44625 -2.93875,-3.1175 -3.8325,-5.01125 -0.8925,-1.895 -1.34,-3.8875 -1.34,-5.97875 0,-2.10875 0.4525,-4.115 1.35375,-6.01875 0.9025,-1.9025 2.175,-3.56 3.82,-4.9725 1.4825,-1.2675 3.1525,-2.22375 5.01,-2.8675 1.85875,-0.64375 3.86875,-0.965 6.03125,-0.965 2.965,0 5.6275,0.59375 7.98625,1.78125 2.35875,1.1875 4.32375,2.915 5.895,5.18375 0.805,1.16 1.4075,2.4425 1.81,3.84375 0.4025,1.4025 0.60375,2.93375 0.60375,4.595 0,0.42875 -0.005,0.75 -0.0138,0.965 -0.009,0.21375 -0.0225,0.40125 -0.04,0.56125"
         id="path3041"
         style="fill:#00b1b0;fill-opacity:1;fill-rule:nonzero;stroke:none" />
      <path
         d="m 288.43613,568.11916 13.22,0 0,13.55875 c 0,1.9475 0.15625,3.2025 0.4675,3.765 0.31125,0.5625 0.88625,0.84375 1.72375,0.84375 0.80125,0 1.35875,-0.2675 1.67,-0.80375 0.31125,-0.53625 0.4675,-1.805 0.4675,-3.805 l 0,-13.55875 13.22,0 0,14.925 c 0,4.79 -1.2275,8.29375 -3.68125,10.51 -2.455,2.21625 -6.3425,3.32375 -11.6625,3.32375 -5.3375,0 -9.24375,-1.1075 -11.71625,-3.32375 -2.4725,-2.21625 -3.70875,-5.72 -3.70875,-10.51"
         id="path3043"
         style="fill:#00b1b0;fill-opacity:1;fill-rule:nonzero;stroke:none" />
      <path
         d="m 319.23988,593.85666 3.58375,-8.54625 c 1.48375,1.00375 2.8425,1.765 4.0775,2.28375 1.23375,0.52 2.28875,0.78 3.165,0.78 0.715,0 1.26125,-0.13875 1.63625,-0.4175 0.375,-0.2775 0.56375,-0.66625 0.56375,-1.16875 0,-0.6975 -0.79625,-1.20875 -2.3875,-1.53125 -0.53625,-0.1075 -0.9575,-0.1975 -1.26,-0.26875 -2.6125,-0.64375 -4.5125,-1.59625 -5.70125,-2.85625 -1.19,-1.26125 -1.78375,-2.92875 -1.78375,-5.00375 0,-2.915 1.2075,-5.2925 3.625,-7.135 2.4175,-1.8425 5.57125,-2.7625 9.46,-2.7625 1.945,0 3.805,0.1825 5.58,0.5475 1.775,0.36625 3.43875,0.915 4.99125,1.64625 l -3.29,8.33375 c -1.24875,-0.84125 -2.37125,-1.47375 -3.37,-1.895 -0.99875,-0.42125 -1.8625,-0.63125 -2.59375,-0.63125 -0.60625,0 -1.0975,0.13 -1.47125,0.38875 -0.375,0.26 -0.5625,0.605 -0.5625,1.035 0,0.7 1.0525,1.27375 3.1575,1.72 0.4975,0.1075 0.89,0.19875 1.17625,0.26875 2.69375,0.645 4.675,1.5875 5.9425,2.83 1.26625,1.2425 1.90125,2.86375 1.90125,4.86625 0,3.11 -1.25125,5.64375 -3.75125,7.60125 -2.50125,1.9575 -5.805,2.93625 -9.91125,2.93625 -2.2325,0 -4.42125,-0.25375 -6.56375,-0.76125 -2.1425,-0.50875 -4.215,-1.26125 -6.21375,-2.26"
         id="path3045"
         style="fill:#00b1b0;fill-opacity:1;fill-rule:nonzero;stroke:none" />
      <path
         d="m 366.67238,582.05916 c 0,-1.21125 -0.32,-2.18125 -0.95625,-2.91125 -0.63875,-0.72875 -1.47625,-1.095 -2.5175,-1.095 -1.04125,0 -1.88125,0.36625 -2.5175,1.095 -0.6375,0.73 -0.95625,1.7 -0.95625,2.91125 0,1.21 0.31875,2.19875 0.95625,2.96375 0.63625,0.76625 1.47625,1.1475 2.5175,1.1475 1.0225,0 1.8575,-0.38125 2.50375,-1.1475 0.64625,-0.765 0.97,-1.75375 0.97,-2.96375 m -19.75375,-27.74 13.18125,0 0,12.88125 c 0,1.125 -0.0225,2.08125 -0.0662,2.8675 -0.045,0.78625 -0.1125,1.45625 -0.20125,2.01 1.1075,-1.59 2.36875,-2.7825 3.78125,-3.5775 1.41125,-0.795 2.985,-1.1925 4.72,-1.1925 3.25375,0 5.935,1.35625 8.045,4.07125 2.11,2.71375 3.165,6.2225 3.165,10.52625 0,4.5175 -1.0275,8.1425 -3.08375,10.875 -2.05625,2.7325 -4.765,4.0975 -8.12625,4.0975 -1.82375,0 -3.4825,-0.425 -4.975,-1.27375 -1.4925,-0.84875 -2.82,-2.13375 -3.98125,-3.85 l 0,4.08 -12.45875,0"
         id="path3047"
         style="fill:#00b1b0;fill-opacity:1;fill-rule:nonzero;stroke:none" />
      <path
         d="m 380.67238,568.11916 13.22,0 0,13.55875 c 0,1.9475 0.15625,3.2025 0.4675,3.765 0.31125,0.5625 0.88625,0.84375 1.72375,0.84375 0.80125,0 1.35875,-0.2675 1.67,-0.80375 0.31125,-0.53625 0.4675,-1.805 0.4675,-3.805 l 0,-13.55875 13.22,0 0,14.925 c 0,4.79 -1.2275,8.29375 -3.6825,10.51 -2.45375,2.21625 -6.34125,3.32375 -11.66125,3.32375 -5.3375,0 -9.24375,-1.1075 -11.71625,-3.32375 -2.4725,-2.21625 -3.70875,-5.72 -3.70875,-10.51"
         id="path3049"
         style="fill:#00b1b0;fill-opacity:1;fill-rule:nonzero;stroke:none" />
      <path
         d="m 412.79488,595.83416 0,-27.715 13.06125,0 0,3.88125 c 1.16125,-1.59 2.455,-2.7825 3.88375,-3.5775 1.42875,-0.795 3.01,-1.1925 4.74125,-1.1925 0.26875,0 0.46875,0.005 0.60375,0.0125 0.13375,0.01 0.25375,0.0225 0.36125,0.0412 l 0,13.445 c -0.75,-0.41125 -1.4375,-0.715 -2.0625,-0.91125 -0.625,-0.1975 -1.19625,-0.295 -1.71375,-0.295 -1.715,0 -3.04125,0.465 -3.97875,1.395 -0.9375,0.93 -1.40625,2.235 -1.40625,3.91625 l 0,11"
         id="path3051"
         style="fill:#00b1b0;fill-opacity:1;fill-rule:nonzero;stroke:none" />
      <path
         d="m 450.19738,581.32791 c 0,1.0775 0.3025,1.935 0.90875,2.5725 0.60625,0.6375 1.4175,0.95625 2.43375,0.95625 1.03375,0 1.8575,-0.31875 2.4725,-0.95625 0.615,-0.6375 0.9225,-1.495 0.9225,-2.5725 0,-1.06 -0.31125,-1.9225 -0.93625,-2.58625 -0.62375,-0.665 -1.4425,-0.9975 -2.45875,-0.9975 -0.99875,0 -1.805,0.3275 -2.42,0.98375 -0.615,0.655 -0.9225,1.5225 -0.9225,2.6 m 6.41625,11.985 0,-2.4075 c -1.25,1.3725 -2.5725,2.39 -3.96625,3.05 -1.395,0.66 -2.93125,0.99 -4.61,0.99 -3.23375,0 -5.90625,-1.21875 -8.01375,-3.65875 -2.10875,-2.43875 -3.1625,-5.57125 -3.1625,-9.395 0,-4.43125 1.0225,-7.9825 3.06875,-10.655 2.04625,-2.67125 4.74875,-4.00625 8.1075,-4.00625 1.7325,0 3.30125,0.36125 4.70375,1.085 1.4025,0.7225 2.69375,1.8425 3.8725,3.35875 l 0,-3.555 12.8725,0 0,23.695 c 0,2.44625 -0.1075,4.27125 -0.32125,5.4775 -0.21375,1.20375 -0.5625,2.3075 -1.04375,3.3075 -1.16125,2.39125 -3.1825,4.19875 -6.06375,5.4225 -2.8825,1.2225 -6.56375,1.835 -11.04375,1.835 -2.4975,0 -4.8225,-0.22 -6.97375,-0.6575 -2.15125,-0.43875 -4.11875,-1.0875 -5.9025,-1.9475 l 2.89375,-8.95375 c 1.535,0.9625 3.03875,1.68 4.51125,2.1525 1.4725,0.4725 2.9325,0.70875 4.37875,0.70875 2.1775,0 3.83625,-0.49875 4.98,-1.495 1.1425,-0.9975 1.7125,-2.44625 1.7125,-4.35125"
         id="path3053"
         style="fill:#00b1b0;fill-opacity:1;fill-rule:nonzero;stroke:none" />
      <path
         d="m 483.93738,578.13041 6.0775,0.0275 c -0.0538,-1.0925 -0.325,-1.89875 -0.81625,-2.4175 -0.49125,-0.52 -1.2175,-0.77875 -2.18125,-0.77875 -0.8575,0 -1.54875,0.2725 -2.07625,0.81875 -0.52625,0.54625 -0.86125,1.32875 -1.00375,2.35 m 19.0125,6.03 -19.11875,0.0275 0,0.425 c 0,1.41375 0.25375,2.465 0.7625,3.15375 0.50875,0.68875 1.28125,1.0325 2.31625,1.0325 0.625,0 1.16875,-0.185 1.6325,-0.555 0.46375,-0.36875 0.83,-0.90625 1.09875,-1.60875 l 12.47375,0.8375 c -1.09,3.01 -2.96625,5.33 -5.6275,6.96 -2.6625,1.63 -5.9225,2.445 -9.78125,2.445 -2.14375,0 -4.14875,-0.32625 -6.015,-0.97875 -1.8675,-0.65125 -3.5425,-1.60375 -5.025,-2.855 -1.66125,-1.44625 -2.93875,-3.1175 -3.83125,-5.01125 -0.89375,-1.895 -1.34,-3.8875 -1.34,-5.97875 0,-2.10875 0.45125,-4.115 1.35375,-6.01875 0.9025,-1.9025 2.175,-3.56 3.81875,-4.9725 1.4825,-1.2675 3.15375,-2.22375 5.01125,-2.8675 1.8575,-0.64375 3.8675,-0.965 6.03,-0.965 2.965,0 5.6275,0.59375 7.98625,1.78125 2.35875,1.1875 4.32375,2.915 5.89625,5.18375 0.80375,1.16 1.40625,2.4425 1.80875,3.84375 0.4025,1.4025 0.60375,2.93375 0.60375,4.595 0,0.42875 -0.005,0.75 -0.0138,0.965 -0.009,0.21375 -0.0212,0.40125 -0.04,0.56125"
         id="path3055"
         style="fill:#00b1b0;fill-opacity:1;fill-rule:nonzero;stroke:none" />
      <path
         d="m 504.55363,595.83416 0,-27.715 13.0625,0 0,3.88125 c 1.16,-1.59 2.455,-2.7825 3.88375,-3.5775 1.42875,-0.795 3.00875,-1.1925 4.74125,-1.1925 0.26875,0 0.46875,0.005 0.6025,0.0125 0.135,0.01 0.255,0.0225 0.3625,0.0412 l 0,13.445 c -0.75125,-0.41125 -1.43875,-0.715 -2.06375,-0.91125 -0.625,-0.1975 -1.195,-0.295 -1.71375,-0.295 -1.715,0 -3.04,0.465 -3.9775,1.395 -0.93875,0.93 -1.40625,2.235 -1.40625,3.91625 l 0,11"
         id="path3057"
         style="fill:#00b1b0;fill-opacity:1;fill-rule:nonzero;stroke:none" />
      <path
         d="m 521.97113,558.32291 0.78875,0 c 0.67375,0 1.40625,-0.0337 1.40625,-0.845 0,-0.62875 -0.57125,-0.8125 -1.0975,-0.8125 l -1.0975,0 0,1.6575 z m 0,2.6975 -0.61625,0 0,-4.9025 1.88625,0 c 1.1075,0 1.5425,0.47875 1.5425,1.36 0,0.90125 -0.5725,1.27875 -1.235,1.3925 l 1.4625,2.15 -0.69625,0 -1.46375,-2.15 -0.88,0 0,2.15 z m 0.92625,1.19875 c 2.01125,0 3.63375,-1.6225 3.63375,-3.63375 0,-2.01125 -1.6225,-3.63375 -3.63375,-3.63375 -2.01125,0 -3.63375,1.6225 -3.63375,3.63375 0,2.01125 1.6225,3.63375 3.63375,3.63375 m 0,-7.885 c 2.3425,0 4.25125,1.90875 4.25125,4.25125 0,2.3425 -1.90875,4.25125 -4.25125,4.25125 -2.3425,0 -4.25125,-1.90875 -4.25125,-4.25125 0,-2.3425 1.90875,-4.25125 4.25125,-4.25125"
         id="path3059"
         style="fill:#00b1b0;fill-opacity:1;fill-rule:nonzero;stroke:none" />
      <path
         d="m 208.30863,595.82541 0,-15.42375 12.27125,-10.43125 c 0,0 3.2725,-2.99375 7.5675,-2.99375 4.29375,0 6.33875,2.10625 6.33875,2.10625 l -10.01875,9.1 c 0,0 -1.3675,-1.45375 -3.0675,-0.22125 -1.38125,0.99875 -1.1275,2.55125 -1.1275,2.55125 l 0,15.3125"
         id="path3061"
         style="fill:#00b1b0;fill-opacity:1;fill-rule:nonzero;stroke:none" />
      <path
         d="m 208.30863,577.40541 0,-9.21 11.0425,0"
         id="path3063"
         style="fill:#00b1b0;fill-opacity:1;fill-rule:nonzero;stroke:none" />
      <path
         d="m 225.18238,595.82541 0,-15.20125 11.04375,-10.20875 c 0,0 6.4425,-5.9875 13.90875,-2.22 4.3975,2.22 3.885,7.10375 3.885,7.10375 l 0,20.52625 -11.865,0 0,-15.865 c 0,0 0.0525,-2.77625 -2.39375,-2.77625 -2.64125,0 -2.555,2.77625 -2.555,2.77625 l 0,15.865"
         id="path3065"
         style="fill:#00b1b0;fill-opacity:1;fill-rule:nonzero;stroke:none" />
    </g>
  </g>
</svg>
