<?xml version="1.0" encoding="utf-8"?>
<svg width="16" height="16" fill="currentColor" class="etlbox-logo" viewBox="0 0 16 16" xmlns="http://www.w3.org/2000/svg">
  <path d="M8.186 1.113a.5.5 0 0 0-.372 0L1.846 3.5l2.404.961L10.404 2l-2.218-.887zm3.564 1.426L5.596 5 8 5.961 14.154 3.5l-2.404-.961zm3.25 1.7-6.5 2.6v7.922l6.5-2.6V4.24zM7.5 14.762V6.838L1 4.239v7.923l6.5 2.6zM7.443.184a1.5 1.5 0 0 1 1.114 0l7.129 2.852A.5.5 0 0 1 16 3.5v8.662a1 1 0 0 1-.629.928l-7.185 2.874a.5.5 0 0 1-.372 0L.63 13.09a1 1 0 0 1-.63-.928V3.5a.5.5 0 0 1 .314-.464L7.443.184z"/>
  <path d="M -7.287 43.983 L -7.287 47.673 L -14.427 47.673 L -14.427 53.693 L -5.977 53.693 L -5.977 57.493 L -19.007 57.493 L -19.007 34.813 L -6.007 34.813 L -6.007 38.623 L -14.427 38.623 L -14.427 43.983 L -7.287 43.983 ZM 11.652 34.813 L 11.652 38.623 L 6.052 38.623 L 6.052 57.493 L 1.452 57.493 L 1.452 38.623 L -4.068 38.623 L -4.068 34.813 L 11.652 34.813 ZM 18.866 34.813 L 18.866 53.693 L 26.906 53.693 L 26.906 57.493 L 14.286 57.493 L 14.286 34.813 L 18.866 34.813 Z" transform="matrix(0.12534299492835999, 0.049250002950429916, 0.0009350000182166696, 0.1611970067024231, 3.7332990169525146, 0.015956001356244087)" style="fill: rgb(51, 51, 51); white-space: pre;"/>
  <path d="M 36.758 8.154 L 30.168 8.154 L 30.168 -11.756 L 36.318 -11.756 C 38.398 -11.756 39.978 -11.293 41.058 -10.366 C 42.138 -9.439 42.678 -8.083 42.678 -6.296 C 42.678 -5.283 42.455 -4.413 42.008 -3.686 C 41.561 -2.959 40.951 -2.426 40.178 -2.086 C 41.071 -1.833 41.758 -1.319 42.238 -0.546 C 42.725 0.221 42.968 1.171 42.968 2.304 C 42.968 4.237 42.435 5.694 41.368 6.674 C 40.308 7.661 38.771 8.154 36.758 8.154 Z M 37.018 -0.496 L 34.188 -0.496 L 34.188 4.814 L 36.758 4.814 C 37.478 4.814 38.025 4.591 38.398 4.144 C 38.771 3.697 38.958 3.064 38.958 2.244 C 38.958 0.457 38.311 -0.456 37.018 -0.496 Z M 34.188 -8.406 L 34.188 -3.426 L 36.278 -3.426 C 37.858 -3.426 38.648 -4.243 38.648 -5.876 C 38.648 -6.776 38.465 -7.423 38.098 -7.816 C 37.731 -8.209 37.138 -8.406 36.318 -8.406 L 34.188 -8.406 ZM 59.887 -3.416 L 59.887 -0.006 C 59.887 2.661 59.257 4.734 57.997 6.214 C 56.737 7.687 54.984 8.424 52.737 8.424 C 50.504 8.424 48.75 7.694 47.477 6.234 C 46.204 4.767 45.557 2.717 45.537 0.084 L 45.537 -3.316 C 45.537 -6.049 46.17 -8.186 47.437 -9.726 C 48.704 -11.259 50.464 -12.026 52.717 -12.026 C 54.93 -12.026 56.674 -11.273 57.947 -9.766 C 59.227 -8.253 59.874 -6.136 59.887 -3.416 Z M 55.857 0.114 L 55.857 -3.346 C 55.857 -5.139 55.6 -6.473 55.087 -7.346 C 54.58 -8.226 53.79 -8.666 52.717 -8.666 C 51.65 -8.666 50.86 -8.243 50.347 -7.396 C 49.834 -6.556 49.57 -5.273 49.557 -3.546 L 49.557 -0.006 C 49.557 1.734 49.817 3.017 50.337 3.844 C 50.857 4.664 51.657 5.074 52.737 5.074 C 53.79 5.074 54.57 4.671 55.077 3.864 C 55.59 3.057 55.85 1.807 55.857 0.114 ZM 66.025 -11.756 L 68.705 -4.916 L 71.385 -11.756 L 75.995 -11.756 L 71.325 -1.886 L 76.105 8.154 L 71.445 8.154 L 68.705 1.194 L 65.985 8.154 L 61.325 8.154 L 66.115 -1.886 L 61.425 -11.756 L 66.025 -11.756 Z" transform="matrix(0.12531399726867676, 0.050099004060029984, 0.004387000110000372, 0.1833290159702301, -2.3493120670318604, 9.245244979858398)" style="fill: rgb(51, 51, 51); white-space: pre;"/>
  <path d="M 30.75 3.754 C 30.75 2.941 30.543 2.327 30.13 1.914 C 29.71 1.501 28.953 1.071 27.86 0.624 C 25.867 -0.136 24.433 -1.023 23.56 -2.036 C 22.68 -3.056 22.24 -4.259 22.24 -5.646 C 22.24 -7.319 22.837 -8.666 24.03 -9.686 C 25.217 -10.699 26.727 -11.206 28.56 -11.206 C 29.78 -11.206 30.87 -10.949 31.83 -10.436 C 32.783 -9.916 33.52 -9.189 34.04 -8.256 C 34.553 -7.316 34.81 -6.249 34.81 -5.056 L 30.8 -5.056 C 30.8 -5.983 30.603 -6.689 30.21 -7.176 C 29.81 -7.663 29.237 -7.906 28.49 -7.906 C 27.79 -7.906 27.243 -7.699 26.85 -7.286 C 26.457 -6.873 26.26 -6.316 26.26 -5.616 C 26.26 -5.069 26.48 -4.573 26.92 -4.126 C 27.36 -3.686 28.133 -3.229 29.24 -2.756 C 31.187 -2.056 32.6 -1.196 33.48 -0.176 C 34.353 0.844 34.79 2.144 34.79 3.724 C 34.79 5.457 34.24 6.811 33.14 7.784 C 32.04 8.757 30.54 9.244 28.64 9.244 C 27.353 9.244 26.183 8.981 25.13 8.454 C 24.07 7.927 23.243 7.171 22.65 6.184 C 22.05 5.197 21.75 4.034 21.75 2.694 L 25.78 2.694 C 25.78 3.847 26.003 4.684 26.45 5.204 C 26.897 5.724 27.627 5.984 28.64 5.984 C 30.047 5.984 30.75 5.241 30.75 3.754 ZM 51.461 -2.766 L 51.461 0.564 C 51.461 3.857 50.571 6.251 48.791 7.744 L 51.541 10.204 L 49.011 12.524 L 45.351 9.184 L 44.301 9.244 C 42.047 9.244 40.284 8.481 39.011 6.954 C 37.737 5.427 37.097 3.317 37.091 0.624 L 37.091 -2.496 C 37.091 -5.229 37.724 -7.366 38.991 -8.906 C 40.257 -10.439 42.017 -11.206 44.271 -11.206 C 46.464 -11.206 48.201 -10.466 49.481 -8.986 C 50.754 -7.513 51.414 -5.439 51.461 -2.766 Z M 47.431 0.664 L 47.431 -2.526 C 47.431 -4.339 47.171 -5.679 46.651 -6.546 C 46.131 -7.413 45.337 -7.846 44.271 -7.846 C 43.204 -7.846 42.414 -7.423 41.901 -6.576 C 41.394 -5.736 41.131 -4.453 41.111 -2.726 L 41.111 0.564 C 41.111 2.391 41.374 3.734 41.901 4.594 C 42.421 5.461 43.221 5.894 44.301 5.894 C 45.347 5.894 46.127 5.464 46.641 4.604 C 47.154 3.744 47.417 2.431 47.431 0.664 ZM 58.379 -10.936 L 58.379 5.634 L 65.429 5.634 L 65.429 8.974 L 54.359 8.974 L 54.359 -10.936 L 58.379 -10.936 ZM 71.957 -10.936 L 71.957 8.974 L 67.937 8.974 L 67.937 -10.936 L 71.957 -10.936 ZM 87.824 -10.936 L 87.824 -7.586 L 82.904 -7.586 L 82.904 8.974 L 78.874 8.974 L 78.874 -7.586 L 74.034 -7.586 L 74.034 -10.936 L 87.824 -10.936 ZM 100.417 -2.876 L 100.417 0.364 L 94.157 0.364 L 94.157 5.634 L 101.567 5.634 L 101.567 8.974 L 90.137 8.974 L 90.137 -10.936 L 101.537 -10.936 L 101.537 -7.586 L 94.157 -7.586 L 94.157 -2.876 L 100.417 -2.876 Z" transform="matrix(0.074459008872509, -0.028826000168919563, -0.00835300050675869, 0.18301601707935333, 7.065237998962402, 9.69691276550293)" style="fill: rgb(51, 51, 51); white-space: pre;"/>
</svg>