<?xml version="1.0" encoding="utf-8"?>
<svg width="16" height="16" fill="currentColor" class="etlbox-logo" viewBox="0 0 16 16" xmlns="http://www.w3.org/2000/svg">
  <path d="M8.186 1.113a.5.5 0 0 0-.372 0L1.846 3.5l2.404.961L10.404 2l-2.218-.887zm3.564 1.426L5.596 5 8 5.961 14.154 3.5l-2.404-.961zm3.25 1.7-6.5 2.6v7.922l6.5-2.6V4.24zM7.5 14.762V6.838L1 4.239v7.923l6.5 2.6zM7.443.184a1.5 1.5 0 0 1 1.114 0l7.129 2.852A.5.5 0 0 1 16 3.5v8.662a1 1 0 0 1-.629.928l-7.185 2.874a.5.5 0 0 1-.372 0L.63 13.09a1 1 0 0 1-.63-.928V3.5a.5.5 0 0 1 .314-.464L7.443.184z"/>
  <path d="M -7.287 43.983 L -7.287 47.673 L -14.427 47.673 L -14.427 53.693 L -5.977 53.693 L -5.977 57.493 L -19.007 57.493 L -19.007 34.813 L -6.007 34.813 L -6.007 38.623 L -14.427 38.623 L -14.427 43.983 L -7.287 43.983 ZM 11.652 34.813 L 11.652 38.623 L 6.052 38.623 L 6.052 57.493 L 1.452 57.493 L 1.452 38.623 L -4.068 38.623 L -4.068 34.813 L 11.652 34.813 ZM 18.866 34.813 L 18.866 53.693 L 26.906 53.693 L 26.906 57.493 L 14.286 57.493 L 14.286 34.813 L 18.866 34.813 Z" transform="matrix(0.12534299492835999, 0.049250002950429916, 0.0009350000182166696, 0.1611970067024231, 3.7332990169525146, 0.015956001356244087)" style="fill: rgb(51, 51, 51); white-space: pre;"/>
  <path d="M 36.758 8.154 L 30.168 8.154 L 30.168 -11.756 L 36.318 -11.756 C 38.398 -11.756 39.978 -11.293 41.058 -10.366 C 42.138 -9.439 42.678 -8.083 42.678 -6.296 C 42.678 -5.283 42.455 -4.413 42.008 -3.686 C 41.561 -2.959 40.951 -2.426 40.178 -2.086 C 41.071 -1.833 41.758 -1.319 42.238 -0.546 C 42.725 0.221 42.968 1.171 42.968 2.304 C 42.968 4.237 42.435 5.694 41.368 6.674 C 40.308 7.661 38.771 8.154 36.758 8.154 Z M 37.018 -0.496 L 34.188 -0.496 L 34.188 4.814 L 36.758 4.814 C 37.478 4.814 38.025 4.591 38.398 4.144 C 38.771 3.697 38.958 3.064 38.958 2.244 C 38.958 0.457 38.311 -0.456 37.018 -0.496 Z M 34.188 -8.406 L 34.188 -3.426 L 36.278 -3.426 C 37.858 -3.426 38.648 -4.243 38.648 -5.876 C 38.648 -6.776 38.465 -7.423 38.098 -7.816 C 37.731 -8.209 37.138 -8.406 36.318 -8.406 L 34.188 -8.406 ZM 59.887 -3.416 L 59.887 -0.006 C 59.887 2.661 59.257 4.734 57.997 6.214 C 56.737 7.687 54.984 8.424 52.737 8.424 C 50.504 8.424 48.75 7.694 47.477 6.234 C 46.204 4.767 45.557 2.717 45.537 0.084 L 45.537 -3.316 C 45.537 -6.049 46.17 -8.186 47.437 -9.726 C 48.704 -11.259 50.464 -12.026 52.717 -12.026 C 54.93 -12.026 56.674 -11.273 57.947 -9.766 C 59.227 -8.253 59.874 -6.136 59.887 -3.416 Z M 55.857 0.114 L 55.857 -3.346 C 55.857 -5.139 55.6 -6.473 55.087 -7.346 C 54.58 -8.226 53.79 -8.666 52.717 -8.666 C 51.65 -8.666 50.86 -8.243 50.347 -7.396 C 49.834 -6.556 49.57 -5.273 49.557 -3.546 L 49.557 -0.006 C 49.557 1.734 49.817 3.017 50.337 3.844 C 50.857 4.664 51.657 5.074 52.737 5.074 C 53.79 5.074 54.57 4.671 55.077 3.864 C 55.59 3.057 55.85 1.807 55.857 0.114 ZM 66.025 -11.756 L 68.705 -4.916 L 71.385 -11.756 L 75.995 -11.756 L 71.325 -1.886 L 76.105 8.154 L 71.445 8.154 L 68.705 1.194 L 65.985 8.154 L 61.325 8.154 L 66.115 -1.886 L 61.425 -11.756 L 66.025 -11.756 Z" transform="matrix(0.12531399726867676, 0.050099004060029984, 0.004387000110000372, 0.1833290159702301, -2.3493120670318604, 9.245244979858398)" style="fill: rgb(51, 51, 51); white-space: pre;"/>
  <path d="M 36.35 -2.596 L 36.35 0.814 C 36.35 3.481 35.72 5.554 34.46 7.034 C 33.2 8.507 31.447 9.244 29.2 9.244 C 26.967 9.244 25.213 8.514 23.94 7.054 C 22.667 5.587 22.02 3.537 22 0.904 L 22 -2.496 C 22 -5.229 22.633 -7.366 23.9 -8.906 C 25.167 -10.439 26.927 -11.206 29.18 -11.206 C 31.393 -11.206 33.137 -10.453 34.41 -8.946 C 35.69 -7.433 36.337 -5.316 36.35 -2.596 Z M 32.32 0.934 L 32.32 -2.526 C 32.32 -4.319 32.063 -5.653 31.55 -6.526 C 31.043 -7.406 30.253 -7.846 29.18 -7.846 C 28.113 -7.846 27.323 -7.423 26.81 -6.576 C 26.297 -5.736 26.033 -4.453 26.02 -2.726 L 26.02 0.814 C 26.02 2.554 26.28 3.837 26.8 4.664 C 27.32 5.484 28.12 5.894 29.2 5.894 C 30.253 5.894 31.033 5.491 31.54 4.684 C 32.053 3.877 32.313 2.627 32.32 0.934 ZM 48.258 8.974 L 45.268 1.704 L 43.268 1.704 L 43.268 8.974 L 39.248 8.974 L 39.248 -10.936 L 45.668 -10.936 C 47.682 -10.936 49.235 -10.413 50.328 -9.366 C 51.428 -8.326 51.978 -6.843 51.978 -4.916 C 51.978 -2.276 51.018 -0.426 49.098 0.634 L 52.578 8.784 L 52.578 8.974 L 48.258 8.974 Z M 43.268 -7.586 L 43.268 -1.646 L 45.558 -1.646 C 46.358 -1.646 46.958 -1.913 47.358 -2.446 C 47.758 -2.979 47.958 -3.693 47.958 -4.586 C 47.958 -6.586 47.178 -7.586 45.618 -7.586 L 43.268 -7.586 ZM 65.312 8.974 L 64.242 4.904 L 58.762 4.904 L 57.692 8.974 L 53.442 8.974 L 59.662 -10.936 L 63.342 -10.936 L 69.602 8.974 L 65.312 8.974 Z M 61.492 -5.546 L 59.632 1.554 L 63.352 1.554 L 61.492 -5.546 ZM 80.646 2.344 L 84.666 2.344 C 84.566 4.611 83.929 6.327 82.756 7.494 C 81.582 8.661 79.922 9.244 77.776 9.244 C 75.529 9.244 73.806 8.504 72.606 7.024 C 71.406 5.544 70.806 3.431 70.806 0.684 L 70.806 -2.656 C 70.806 -5.396 71.426 -7.506 72.666 -8.986 C 73.906 -10.466 75.629 -11.206 77.836 -11.206 C 80.002 -11.206 81.649 -10.599 82.776 -9.386 C 83.902 -8.173 84.542 -6.433 84.696 -4.166 L 80.666 -4.166 C 80.626 -5.566 80.409 -6.533 80.016 -7.066 C 79.616 -7.599 78.889 -7.866 77.836 -7.866 C 76.756 -7.866 75.992 -7.493 75.546 -6.746 C 75.099 -5.993 74.862 -4.753 74.836 -3.026 L 74.836 0.734 C 74.836 2.707 75.059 4.064 75.506 4.804 C 75.946 5.544 76.702 5.914 77.776 5.914 C 78.836 5.914 79.566 5.657 79.966 5.144 C 80.366 4.624 80.592 3.691 80.646 2.344 ZM 91.164 -10.936 L 91.164 5.634 L 98.214 5.634 L 98.214 8.974 L 87.144 8.974 L 87.144 -10.936 L 91.164 -10.936 ZM 110.823 -2.876 L 110.823 0.364 L 104.563 0.364 L 104.563 5.634 L 111.973 5.634 L 111.973 8.974 L 100.543 8.974 L 100.543 -10.936 L 111.943 -10.936 L 111.943 -7.586 L 104.563 -7.586 L 104.563 -2.876 L 110.823 -2.876 Z" transform="matrix(0.06433200091123581, -0.024904001504182816, -0.00837700068950653, 0.18354099988937378, 7.42680025100708, 9.562210083007812)" style="fill: rgb(51, 51, 51); white-space: pre;"/>
</svg>