<?xml version="1.0" encoding="utf-8"?>
<svg width="16" height="16" fill="currentColor" class="etlbox-logo" viewBox="0 0 16 16" xmlns="http://www.w3.org/2000/svg">
  <path d="M8.186 1.113a.5.5 0 0 0-.372 0L1.846 3.5l2.404.961L10.404 2l-2.218-.887zm3.564 1.426L5.596 5 8 5.961 14.154 3.5l-2.404-.961zm3.25 1.7-6.5 2.6v7.922l6.5-2.6V4.24zM7.5 14.762V6.838L1 4.239v7.923l6.5 2.6zM7.443.184a1.5 1.5 0 0 1 1.114 0l7.129 2.852A.5.5 0 0 1 16 3.5v8.662a1 1 0 0 1-.629.928l-7.185 2.874a.5.5 0 0 1-.372 0L.63 13.09a1 1 0 0 1-.63-.928V3.5a.5.5 0 0 1 .314-.464L7.443.184z"/>
  <path d="M -7.287 43.983 L -7.287 47.673 L -14.427 47.673 L -14.427 53.693 L -5.977 53.693 L -5.977 57.493 L -19.007 57.493 L -19.007 34.813 L -6.007 34.813 L -6.007 38.623 L -14.427 38.623 L -14.427 43.983 L -7.287 43.983 ZM 11.652 34.813 L 11.652 38.623 L 6.052 38.623 L 6.052 57.493 L 1.452 57.493 L 1.452 38.623 L -4.068 38.623 L -4.068 34.813 L 11.652 34.813 ZM 18.866 34.813 L 18.866 53.693 L 26.906 53.693 L 26.906 57.493 L 14.286 57.493 L 14.286 34.813 L 18.866 34.813 Z" transform="matrix(0.12534299492835999, 0.049250002950429916, 0.0009350000182166696, 0.1611970067024231, 3.7332990169525146, 0.015956001356244087)" style="fill: rgb(51, 51, 51); white-space: pre;"/>
  <path d="M 36.758 8.154 L 30.168 8.154 L 30.168 -11.756 L 36.318 -11.756 C 38.398 -11.756 39.978 -11.293 41.058 -10.366 C 42.138 -9.439 42.678 -8.083 42.678 -6.296 C 42.678 -5.283 42.455 -4.413 42.008 -3.686 C 41.561 -2.959 40.951 -2.426 40.178 -2.086 C 41.071 -1.833 41.758 -1.319 42.238 -0.546 C 42.725 0.221 42.968 1.171 42.968 2.304 C 42.968 4.237 42.435 5.694 41.368 6.674 C 40.308 7.661 38.771 8.154 36.758 8.154 Z M 37.018 -0.496 L 34.188 -0.496 L 34.188 4.814 L 36.758 4.814 C 37.478 4.814 38.025 4.591 38.398 4.144 C 38.771 3.697 38.958 3.064 38.958 2.244 C 38.958 0.457 38.311 -0.456 37.018 -0.496 Z M 34.188 -8.406 L 34.188 -3.426 L 36.278 -3.426 C 37.858 -3.426 38.648 -4.243 38.648 -5.876 C 38.648 -6.776 38.465 -7.423 38.098 -7.816 C 37.731 -8.209 37.138 -8.406 36.318 -8.406 L 34.188 -8.406 ZM 59.887 -3.416 L 59.887 -0.006 C 59.887 2.661 59.257 4.734 57.997 6.214 C 56.737 7.687 54.984 8.424 52.737 8.424 C 50.504 8.424 48.75 7.694 47.477 6.234 C 46.204 4.767 45.557 2.717 45.537 0.084 L 45.537 -3.316 C 45.537 -6.049 46.17 -8.186 47.437 -9.726 C 48.704 -11.259 50.464 -12.026 52.717 -12.026 C 54.93 -12.026 56.674 -11.273 57.947 -9.766 C 59.227 -8.253 59.874 -6.136 59.887 -3.416 Z M 55.857 0.114 L 55.857 -3.346 C 55.857 -5.139 55.6 -6.473 55.087 -7.346 C 54.58 -8.226 53.79 -8.666 52.717 -8.666 C 51.65 -8.666 50.86 -8.243 50.347 -7.396 C 49.834 -6.556 49.57 -5.273 49.557 -3.546 L 49.557 -0.006 C 49.557 1.734 49.817 3.017 50.337 3.844 C 50.857 4.664 51.657 5.074 52.737 5.074 C 53.79 5.074 54.57 4.671 55.077 3.864 C 55.59 3.057 55.85 1.807 55.857 0.114 ZM 66.025 -11.756 L 68.705 -4.916 L 71.385 -11.756 L 75.995 -11.756 L 71.325 -1.886 L 76.105 8.154 L 71.445 8.154 L 68.705 1.194 L 65.985 8.154 L 61.325 8.154 L 66.115 -1.886 L 61.425 -11.756 L 66.025 -11.756 Z" transform="matrix(0.12531399726867676, 0.050099004060029984, 0.004387000110000372, 0.1833290159702301, -2.3493120670318604, 9.245244979858398)" style="fill: rgb(51, 51, 51); white-space: pre;"/>
  <path d="M 22.34 -10.936 L 27.59 -10.936 L 31.35 3.464 L 35.1 -10.936 L 40.35 -10.936 L 40.35 8.974 L 36.31 8.974 L 36.31 3.584 L 36.68 -4.716 L 32.7 8.974 L 29.97 8.974 L 25.99 -4.716 L 26.36 3.584 L 26.36 8.974 L 22.34 8.974 L 22.34 -10.936 ZM 46.179 -10.936 L 49.189 -1.986 L 52.189 -10.936 L 56.559 -10.936 L 51.229 1.754 L 51.229 8.974 L 47.149 8.974 L 47.149 1.754 L 41.809 -10.936 L 46.179 -10.936 ZM 66.569 3.754 C 66.569 2.941 66.363 2.327 65.949 1.914 C 65.529 1.501 64.773 1.071 63.679 0.624 C 61.686 -0.136 60.253 -1.023 59.379 -2.036 C 58.499 -3.056 58.059 -4.259 58.059 -5.646 C 58.059 -7.319 58.656 -8.666 59.849 -9.686 C 61.036 -10.699 62.546 -11.206 64.379 -11.206 C 65.599 -11.206 66.689 -10.949 67.649 -10.436 C 68.603 -9.916 69.339 -9.189 69.859 -8.256 C 70.373 -7.316 70.629 -6.249 70.629 -5.056 L 66.619 -5.056 C 66.619 -5.983 66.423 -6.689 66.029 -7.176 C 65.629 -7.663 65.056 -7.906 64.309 -7.906 C 63.609 -7.906 63.063 -7.699 62.669 -7.286 C 62.276 -6.873 62.079 -6.316 62.079 -5.616 C 62.079 -5.069 62.299 -4.573 62.739 -4.126 C 63.179 -3.686 63.953 -3.229 65.059 -2.756 C 67.006 -2.056 68.419 -1.196 69.299 -0.176 C 70.173 0.844 70.609 2.144 70.609 3.724 C 70.609 5.457 70.059 6.811 68.959 7.784 C 67.859 8.757 66.359 9.244 64.459 9.244 C 63.173 9.244 62.003 8.981 60.949 8.454 C 59.889 7.927 59.063 7.171 58.469 6.184 C 57.869 5.197 57.569 4.034 57.569 2.694 L 61.599 2.694 C 61.599 3.847 61.823 4.684 62.269 5.204 C 62.716 5.724 63.446 5.984 64.459 5.984 C 65.866 5.984 66.569 5.241 66.569 3.754 ZM 87.28 -2.766 L 87.28 0.564 C 87.28 3.857 86.39 6.251 84.61 7.744 L 87.36 10.204 L 84.83 12.524 L 81.17 9.184 L 80.12 9.244 C 77.867 9.244 76.104 8.481 74.83 6.954 C 73.557 5.427 72.917 3.317 72.91 0.624 L 72.91 -2.496 C 72.91 -5.229 73.544 -7.366 74.81 -8.906 C 76.077 -10.439 77.837 -11.206 80.09 -11.206 C 82.284 -11.206 84.02 -10.466 85.3 -8.986 C 86.574 -7.513 87.234 -5.439 87.28 -2.766 Z M 83.25 0.664 L 83.25 -2.526 C 83.25 -4.339 82.99 -5.679 82.47 -6.546 C 81.95 -7.413 81.157 -7.846 80.09 -7.846 C 79.024 -7.846 78.234 -7.423 77.72 -6.576 C 77.214 -5.736 76.95 -4.453 76.93 -2.726 L 76.93 0.564 C 76.93 2.391 77.194 3.734 77.72 4.594 C 78.24 5.461 79.04 5.894 80.12 5.894 C 81.167 5.894 81.947 5.464 82.46 4.604 C 82.974 3.744 83.237 2.431 83.25 0.664 ZM 94.198 -10.936 L 94.198 5.634 L 101.248 5.634 L 101.248 8.974 L 90.178 8.974 L 90.178 -10.936 L 94.198 -10.936 Z" transform="matrix(0.07286900281906128, -0.028209000825881958, -0.00837700068950653, 0.18354099988937378, 7.249783039093018, 9.630736351013184)" style="fill: rgb(51, 51, 51); white-space: pre;"/>
</svg>