<?xml version="1.0" encoding="utf-8"?>
<svg width="16" height="16" fill="currentColor" class="etlbox-logo" viewBox="0 0 16 16" xmlns="http://www.w3.org/2000/svg">
  <path d="M8.186 1.113a.5.5 0 0 0-.372 0L1.846 3.5l2.404.961L10.404 2l-2.218-.887zm3.564 1.426L5.596 5 8 5.961 14.154 3.5l-2.404-.961zm3.25 1.7-6.5 2.6v7.922l6.5-2.6V4.24zM7.5 14.762V6.838L1 4.239v7.923l6.5 2.6zM7.443.184a1.5 1.5 0 0 1 1.114 0l7.129 2.852A.5.5 0 0 1 16 3.5v8.662a1 1 0 0 1-.629.928l-7.185 2.874a.5.5 0 0 1-.372 0L.63 13.09a1 1 0 0 1-.63-.928V3.5a.5.5 0 0 1 .314-.464L7.443.184z"/>
  <path d="M -7.287 43.983 L -7.287 47.673 L -14.427 47.673 L -14.427 53.693 L -5.977 53.693 L -5.977 57.493 L -19.007 57.493 L -19.007 34.813 L -6.007 34.813 L -6.007 38.623 L -14.427 38.623 L -14.427 43.983 L -7.287 43.983 ZM 11.652 34.813 L 11.652 38.623 L 6.052 38.623 L 6.052 57.493 L 1.452 57.493 L 1.452 38.623 L -4.068 38.623 L -4.068 34.813 L 11.652 34.813 ZM 18.866 34.813 L 18.866 53.693 L 26.906 53.693 L 26.906 57.493 L 14.286 57.493 L 14.286 34.813 L 18.866 34.813 Z" transform="matrix(0.12534299492835999, 0.049250002950429916, 0.0009350000182166696, 0.1611970067024231, 3.7332990169525146, 0.015956001356244087)" style="fill: rgb(51, 51, 51); white-space: pre;"/>
  <path d="M 36.758 8.154 L 30.168 8.154 L 30.168 -11.756 L 36.318 -11.756 C 38.398 -11.756 39.978 -11.293 41.058 -10.366 C 42.138 -9.439 42.678 -8.083 42.678 -6.296 C 42.678 -5.283 42.455 -4.413 42.008 -3.686 C 41.561 -2.959 40.951 -2.426 40.178 -2.086 C 41.071 -1.833 41.758 -1.319 42.238 -0.546 C 42.725 0.221 42.968 1.171 42.968 2.304 C 42.968 4.237 42.435 5.694 41.368 6.674 C 40.308 7.661 38.771 8.154 36.758 8.154 Z M 37.018 -0.496 L 34.188 -0.496 L 34.188 4.814 L 36.758 4.814 C 37.478 4.814 38.025 4.591 38.398 4.144 C 38.771 3.697 38.958 3.064 38.958 2.244 C 38.958 0.457 38.311 -0.456 37.018 -0.496 Z M 34.188 -8.406 L 34.188 -3.426 L 36.278 -3.426 C 37.858 -3.426 38.648 -4.243 38.648 -5.876 C 38.648 -6.776 38.465 -7.423 38.098 -7.816 C 37.731 -8.209 37.138 -8.406 36.318 -8.406 L 34.188 -8.406 ZM 59.887 -3.416 L 59.887 -0.006 C 59.887 2.661 59.257 4.734 57.997 6.214 C 56.737 7.687 54.984 8.424 52.737 8.424 C 50.504 8.424 48.75 7.694 47.477 6.234 C 46.204 4.767 45.557 2.717 45.537 0.084 L 45.537 -3.316 C 45.537 -6.049 46.17 -8.186 47.437 -9.726 C 48.704 -11.259 50.464 -12.026 52.717 -12.026 C 54.93 -12.026 56.674 -11.273 57.947 -9.766 C 59.227 -8.253 59.874 -6.136 59.887 -3.416 Z M 55.857 0.114 L 55.857 -3.346 C 55.857 -5.139 55.6 -6.473 55.087 -7.346 C 54.58 -8.226 53.79 -8.666 52.717 -8.666 C 51.65 -8.666 50.86 -8.243 50.347 -7.396 C 49.834 -6.556 49.57 -5.273 49.557 -3.546 L 49.557 -0.006 C 49.557 1.734 49.817 3.017 50.337 3.844 C 50.857 4.664 51.657 5.074 52.737 5.074 C 53.79 5.074 54.57 4.671 55.077 3.864 C 55.59 3.057 55.85 1.807 55.857 0.114 ZM 66.025 -11.756 L 68.705 -4.916 L 71.385 -11.756 L 75.995 -11.756 L 71.325 -1.886 L 76.105 8.154 L 71.445 8.154 L 68.705 1.194 L 65.985 8.154 L 61.325 8.154 L 66.115 -1.886 L 61.425 -11.756 L 66.025 -11.756 Z" transform="matrix(0.12531399726867676, 0.050099004060029984, 0.004387000110000372, 0.1833290159702301, -2.3493120670318604, 9.245244979858398)" style="fill: rgb(51, 51, 51); white-space: pre;"/>
  <path d="M 31.81 2.344 L 35.83 2.344 C 35.73 4.611 35.093 6.327 33.92 7.494 C 32.747 8.661 31.087 9.244 28.94 9.244 C 26.693 9.244 24.97 8.504 23.77 7.024 C 22.57 5.544 21.97 3.431 21.97 0.684 L 21.97 -2.656 C 21.97 -5.396 22.59 -7.506 23.83 -8.986 C 25.07 -10.466 26.793 -11.206 29 -11.206 C 31.167 -11.206 32.813 -10.599 33.94 -9.386 C 35.067 -8.173 35.707 -6.433 35.86 -4.166 L 31.83 -4.166 C 31.79 -5.566 31.573 -6.533 31.18 -7.066 C 30.78 -7.599 30.053 -7.866 29 -7.866 C 27.92 -7.866 27.157 -7.493 26.71 -6.746 C 26.263 -5.993 26.027 -4.753 26 -3.026 L 26 0.734 C 26 2.707 26.223 4.064 26.67 4.804 C 27.11 5.544 27.867 5.914 28.94 5.914 C 30 5.914 30.73 5.657 31.13 5.144 C 31.53 4.624 31.757 3.691 31.81 2.344 ZM 46.719 3.754 C 46.719 2.941 46.512 2.327 46.099 1.914 C 45.679 1.501 44.922 1.071 43.829 0.624 C 41.835 -0.136 40.402 -1.023 39.529 -2.036 C 38.649 -3.056 38.209 -4.259 38.209 -5.646 C 38.209 -7.319 38.805 -8.666 39.999 -9.686 C 41.185 -10.699 42.695 -11.206 44.529 -11.206 C 45.749 -11.206 46.839 -10.949 47.799 -10.436 C 48.752 -9.916 49.489 -9.189 50.009 -8.256 C 50.522 -7.316 50.779 -6.249 50.779 -5.056 L 46.769 -5.056 C 46.769 -5.983 46.572 -6.689 46.179 -7.176 C 45.779 -7.663 45.205 -7.906 44.459 -7.906 C 43.759 -7.906 43.212 -7.699 42.819 -7.286 C 42.425 -6.873 42.229 -6.316 42.229 -5.616 C 42.229 -5.069 42.449 -4.573 42.889 -4.126 C 43.329 -3.686 44.102 -3.229 45.209 -2.756 C 47.155 -2.056 48.569 -1.196 49.449 -0.176 C 50.322 0.844 50.759 2.144 50.759 3.724 C 50.759 5.457 50.209 6.811 49.109 7.784 C 48.009 8.757 46.509 9.244 44.609 9.244 C 43.322 9.244 42.152 8.981 41.099 8.454 C 40.039 7.927 39.212 7.171 38.619 6.184 C 38.019 5.197 37.719 4.034 37.719 2.694 L 41.749 2.694 C 41.749 3.847 41.972 4.684 42.419 5.204 C 42.865 5.724 43.595 5.984 44.609 5.984 C 46.015 5.984 46.719 5.241 46.719 3.754 ZM 56.57 -10.936 L 59.91 3.504 L 63.26 -10.936 L 67.74 -10.936 L 62 8.974 L 57.82 8.974 L 52.12 -10.936 L 56.57 -10.936 Z" transform="matrix(0.11910900473594666, -0.04611100256443024, -0.00835300050675869, 0.18301601707935333, 6.368281841278076, 9.913370132446289)" style="fill: rgb(51, 51, 51); white-space: pre;"/>
</svg>