<?xml version="1.0" encoding="utf-8"?>
<svg width="16" height="16" fill="currentColor" class="etlbox-logo" viewBox="0 0 16 16" xmlns="http://www.w3.org/2000/svg">
  <path d="M8.186 1.113a.5.5 0 0 0-.372 0L1.846 3.5l2.404.961L10.404 2l-2.218-.887zm3.564 1.426L5.596 5 8 5.961 14.154 3.5l-2.404-.961zm3.25 1.7-6.5 2.6v7.922l6.5-2.6V4.24zM7.5 14.762V6.838L1 4.239v7.923l6.5 2.6zM7.443.184a1.5 1.5 0 0 1 1.114 0l7.129 2.852A.5.5 0 0 1 16 3.5v8.662a1 1 0 0 1-.629.928l-7.185 2.874a.5.5 0 0 1-.372 0L.63 13.09a1 1 0 0 1-.63-.928V3.5a.5.5 0 0 1 .314-.464L7.443.184z"/>
  <path d="M -7.287 43.983 L -7.287 47.673 L -14.427 47.673 L -14.427 53.693 L -5.977 53.693 L -5.977 57.493 L -19.007 57.493 L -19.007 34.813 L -6.007 34.813 L -6.007 38.623 L -14.427 38.623 L -14.427 43.983 L -7.287 43.983 ZM 11.652 34.813 L 11.652 38.623 L 6.052 38.623 L 6.052 57.493 L 1.452 57.493 L 1.452 38.623 L -4.068 38.623 L -4.068 34.813 L 11.652 34.813 ZM 18.866 34.813 L 18.866 53.693 L 26.906 53.693 L 26.906 57.493 L 14.286 57.493 L 14.286 34.813 L 18.866 34.813 Z" transform="matrix(0.12534299492835999, 0.049250002950429916, 0.0009350000182166696, 0.1611970067024231, 3.7332990169525146, 0.015956001356244087)" style="fill: rgb(51, 51, 51); white-space: pre;"/>
  <path d="M 36.758 8.154 L 30.168 8.154 L 30.168 -11.756 L 36.318 -11.756 C 38.398 -11.756 39.978 -11.293 41.058 -10.366 C 42.138 -9.439 42.678 -8.083 42.678 -6.296 C 42.678 -5.283 42.455 -4.413 42.008 -3.686 C 41.561 -2.959 40.951 -2.426 40.178 -2.086 C 41.071 -1.833 41.758 -1.319 42.238 -0.546 C 42.725 0.221 42.968 1.171 42.968 2.304 C 42.968 4.237 42.435 5.694 41.368 6.674 C 40.308 7.661 38.771 8.154 36.758 8.154 Z M 37.018 -0.496 L 34.188 -0.496 L 34.188 4.814 L 36.758 4.814 C 37.478 4.814 38.025 4.591 38.398 4.144 C 38.771 3.697 38.958 3.064 38.958 2.244 C 38.958 0.457 38.311 -0.456 37.018 -0.496 Z M 34.188 -8.406 L 34.188 -3.426 L 36.278 -3.426 C 37.858 -3.426 38.648 -4.243 38.648 -5.876 C 38.648 -6.776 38.465 -7.423 38.098 -7.816 C 37.731 -8.209 37.138 -8.406 36.318 -8.406 L 34.188 -8.406 ZM 59.887 -3.416 L 59.887 -0.006 C 59.887 2.661 59.257 4.734 57.997 6.214 C 56.737 7.687 54.984 8.424 52.737 8.424 C 50.504 8.424 48.75 7.694 47.477 6.234 C 46.204 4.767 45.557 2.717 45.537 0.084 L 45.537 -3.316 C 45.537 -6.049 46.17 -8.186 47.437 -9.726 C 48.704 -11.259 50.464 -12.026 52.717 -12.026 C 54.93 -12.026 56.674 -11.273 57.947 -9.766 C 59.227 -8.253 59.874 -6.136 59.887 -3.416 Z M 55.857 0.114 L 55.857 -3.346 C 55.857 -5.139 55.6 -6.473 55.087 -7.346 C 54.58 -8.226 53.79 -8.666 52.717 -8.666 C 51.65 -8.666 50.86 -8.243 50.347 -7.396 C 49.834 -6.556 49.57 -5.273 49.557 -3.546 L 49.557 -0.006 C 49.557 1.734 49.817 3.017 50.337 3.844 C 50.857 4.664 51.657 5.074 52.737 5.074 C 53.79 5.074 54.57 4.671 55.077 3.864 C 55.59 3.057 55.85 1.807 55.857 0.114 ZM 66.025 -11.756 L 68.705 -4.916 L 71.385 -11.756 L 75.995 -11.756 L 71.325 -1.886 L 76.105 8.154 L 71.445 8.154 L 68.705 1.194 L 65.985 8.154 L 61.325 8.154 L 66.115 -1.886 L 61.425 -11.756 L 66.025 -11.756 Z" transform="matrix(0.12531399726867676, 0.050099004060029984, 0.004387000110000372, 0.1833290159702301, -2.3493120670318604, 9.245244979858398)" style="fill: rgb(51, 51, 51); white-space: pre;"/>
  <path d="M 32.91 8.974 L 31.84 4.904 L 26.36 4.904 L 25.29 8.974 L 21.04 8.974 L 27.26 -10.936 L 30.94 -10.936 L 37.2 8.974 L 32.91 8.974 Z M 29.09 -5.546 L 27.23 1.554 L 30.95 1.554 L 29.09 -5.546 ZM 52.981 -10.936 L 52.981 8.974 L 48.961 8.974 L 43.081 -4.086 L 43.081 8.974 L 39.061 8.974 L 39.061 -10.936 L 43.081 -10.936 L 48.971 2.134 L 48.971 -10.936 L 52.981 -10.936 ZM 67.021 8.974 L 65.951 4.904 L 60.471 4.904 L 59.401 8.974 L 55.151 8.974 L 61.371 -10.936 L 65.051 -10.936 L 71.311 8.974 L 67.021 8.974 Z M 63.201 -5.546 L 61.341 1.554 L 65.061 1.554 L 63.201 -5.546 ZM 77.192 -10.936 L 77.192 5.634 L 84.242 5.634 L 84.242 8.974 L 73.172 8.974 L 73.172 -10.936 L 77.192 -10.936 ZM 85.746 -10.936 L 88.756 -1.986 L 91.756 -10.936 L 96.126 -10.936 L 90.796 1.754 L 90.796 8.974 L 86.716 8.974 L 86.716 1.754 L 81.376 -10.936 L 85.746 -10.936 ZM 106.136 3.754 C 106.136 2.941 105.93 2.327 105.516 1.914 C 105.096 1.501 104.34 1.071 103.246 0.624 C 101.253 -0.136 99.82 -1.023 98.946 -2.036 C 98.066 -3.056 97.626 -4.259 97.626 -5.646 C 97.626 -7.319 98.223 -8.666 99.416 -9.686 C 100.603 -10.699 102.113 -11.206 103.946 -11.206 C 105.166 -11.206 106.256 -10.949 107.216 -10.436 C 108.17 -9.916 108.906 -9.189 109.426 -8.256 C 109.94 -7.316 110.196 -6.249 110.196 -5.056 L 106.186 -5.056 C 106.186 -5.983 105.99 -6.689 105.596 -7.176 C 105.196 -7.663 104.623 -7.906 103.876 -7.906 C 103.176 -7.906 102.63 -7.699 102.236 -7.286 C 101.843 -6.873 101.646 -6.316 101.646 -5.616 C 101.646 -5.069 101.866 -4.573 102.306 -4.126 C 102.746 -3.686 103.52 -3.229 104.626 -2.756 C 106.573 -2.056 107.986 -1.196 108.866 -0.176 C 109.74 0.844 110.176 2.144 110.176 3.724 C 110.176 5.457 109.626 6.811 108.526 7.784 C 107.426 8.757 105.926 9.244 104.026 9.244 C 102.74 9.244 101.57 8.981 100.516 8.454 C 99.456 7.927 98.63 7.171 98.036 6.184 C 97.436 5.197 97.136 4.034 97.136 2.694 L 101.166 2.694 C 101.166 3.847 101.39 4.684 101.836 5.204 C 102.283 5.724 103.013 5.984 104.026 5.984 C 105.433 5.984 106.136 5.241 106.136 3.754 ZM 117.047 -10.936 L 117.047 8.974 L 113.027 8.974 L 113.027 -10.936 L 117.047 -10.936 ZM 128.831 3.754 C 128.831 2.941 128.625 2.327 128.211 1.914 C 127.791 1.501 127.035 1.071 125.941 0.624 C 123.948 -0.136 122.515 -1.023 121.641 -2.036 C 120.761 -3.056 120.321 -4.259 120.321 -5.646 C 120.321 -7.319 120.918 -8.666 122.111 -9.686 C 123.298 -10.699 124.808 -11.206 126.641 -11.206 C 127.861 -11.206 128.951 -10.949 129.911 -10.436 C 130.865 -9.916 131.601 -9.189 132.121 -8.256 C 132.635 -7.316 132.891 -6.249 132.891 -5.056 L 128.881 -5.056 C 128.881 -5.983 128.685 -6.689 128.291 -7.176 C 127.891 -7.663 127.318 -7.906 126.571 -7.906 C 125.871 -7.906 125.325 -7.699 124.931 -7.286 C 124.538 -6.873 124.341 -6.316 124.341 -5.616 C 124.341 -5.069 124.561 -4.573 125.001 -4.126 C 125.441 -3.686 126.215 -3.229 127.321 -2.756 C 129.268 -2.056 130.681 -1.196 131.561 -0.176 C 132.435 0.844 132.871 2.144 132.871 3.724 C 132.871 5.457 132.321 6.811 131.221 7.784 C 130.121 8.757 128.621 9.244 126.721 9.244 C 125.435 9.244 124.265 8.981 123.211 8.454 C 122.151 7.927 121.325 7.171 120.731 6.184 C 120.131 5.197 119.831 4.034 119.831 2.694 L 123.861 2.694 C 123.861 3.847 124.085 4.684 124.531 5.204 C 124.978 5.724 125.708 5.984 126.721 5.984 C 128.128 5.984 128.831 5.241 128.831 3.754 Z" transform="matrix(0.05275500565767288, -0.020423000678420067, -0.008209999650716782, 0.1798800230026245, 7.741072177886963, 9.398040771484375)" style="fill: rgb(51, 51, 51); white-space: pre;"/>
  <path d="M 30.75 3.754 C 30.75 2.941 30.543 2.327 30.13 1.914 C 29.71 1.501 28.953 1.071 27.86 0.624 C 25.867 -0.136 24.433 -1.023 23.56 -2.036 C 22.68 -3.056 22.24 -4.259 22.24 -5.646 C 22.24 -7.319 22.837 -8.666 24.03 -9.686 C 25.217 -10.699 26.727 -11.206 28.56 -11.206 C 29.78 -11.206 30.87 -10.949 31.83 -10.436 C 32.783 -9.916 33.52 -9.189 34.04 -8.256 C 34.553 -7.316 34.81 -6.249 34.81 -5.056 L 30.8 -5.056 C 30.8 -5.983 30.603 -6.689 30.21 -7.176 C 29.81 -7.663 29.237 -7.906 28.49 -7.906 C 27.79 -7.906 27.243 -7.699 26.85 -7.286 C 26.457 -6.873 26.26 -6.316 26.26 -5.616 C 26.26 -5.069 26.48 -4.573 26.92 -4.126 C 27.36 -3.686 28.133 -3.229 29.24 -2.756 C 31.187 -2.056 32.6 -1.196 33.48 -0.176 C 34.353 0.844 34.79 2.144 34.79 3.724 C 34.79 5.457 34.24 6.811 33.14 7.784 C 32.04 8.757 30.54 9.244 28.64 9.244 C 27.353 9.244 26.183 8.981 25.13 8.454 C 24.07 7.927 23.243 7.171 22.65 6.184 C 22.05 5.197 21.75 4.034 21.75 2.694 L 25.78 2.694 C 25.78 3.847 26.003 4.684 26.45 5.204 C 26.897 5.724 27.627 5.984 28.64 5.984 C 30.047 5.984 30.75 5.241 30.75 3.754 ZM 47.741 -2.876 L 47.741 0.364 L 41.481 0.364 L 41.481 5.634 L 48.891 5.634 L 48.891 8.974 L 37.461 8.974 L 37.461 -10.936 L 48.861 -10.936 L 48.861 -7.586 L 41.481 -7.586 L 41.481 -2.876 L 47.741 -2.876 ZM 60.221 8.974 L 57.231 1.704 L 55.231 1.704 L 55.231 8.974 L 51.211 8.974 L 51.211 -10.936 L 57.631 -10.936 C 59.644 -10.936 61.198 -10.413 62.291 -9.366 C 63.391 -8.326 63.941 -6.843 63.941 -4.916 C 63.941 -2.276 62.981 -0.426 61.061 0.634 L 64.541 8.784 L 64.541 8.974 L 60.221 8.974 Z M 55.231 -7.586 L 55.231 -1.646 L 57.521 -1.646 C 58.321 -1.646 58.921 -1.913 59.321 -2.446 C 59.721 -2.979 59.921 -3.693 59.921 -4.586 C 59.921 -6.586 59.141 -7.586 57.581 -7.586 L 55.231 -7.586 ZM 69.585 -10.936 L 72.925 3.504 L 76.275 -10.936 L 80.755 -10.936 L 75.015 8.974 L 70.835 8.974 L 65.135 -10.936 L 69.585 -10.936 ZM 92.912 -2.876 L 92.912 0.364 L 86.652 0.364 L 86.652 5.634 L 94.062 5.634 L 94.062 8.974 L 82.632 8.974 L 82.632 -10.936 L 94.032 -10.936 L 94.032 -7.586 L 86.652 -7.586 L 86.652 -2.876 L 92.912 -2.876 ZM 105.392 8.974 L 102.402 1.704 L 100.402 1.704 L 100.402 8.974 L 96.382 8.974 L 96.382 -10.936 L 102.802 -10.936 C 104.815 -10.936 106.369 -10.413 107.462 -9.366 C 108.562 -8.326 109.112 -6.843 109.112 -4.916 C 109.112 -2.276 108.152 -0.426 106.232 0.634 L 109.712 8.784 L 109.712 8.974 L 105.392 8.974 Z M 100.402 -7.586 L 100.402 -1.646 L 102.692 -1.646 C 103.492 -1.646 104.092 -1.913 104.492 -2.446 C 104.892 -2.979 105.092 -3.693 105.092 -4.586 C 105.092 -6.586 104.312 -7.586 102.752 -7.586 L 100.402 -7.586 Z" transform="matrix(0.06739300489425659, -0.026089001446962357, -0.00837700068950653, 0.18354099988937378, 7.310202121734619, 13.397567749023438)" style="fill: rgb(51, 51, 51); white-space: pre;"/>
</svg>