<?xml version="1.0" encoding="utf-8"?>
<svg width="16" height="16" fill="currentColor" class="etlbox-logo" viewBox="0 0 16 16" xmlns="http://www.w3.org/2000/svg">
  <path d="M8.186 1.113a.5.5 0 0 0-.372 0L1.846 3.5l2.404.961L10.404 2l-2.218-.887zm3.564 1.426L5.596 5 8 5.961 14.154 3.5l-2.404-.961zm3.25 1.7-6.5 2.6v7.922l6.5-2.6V4.24zM7.5 14.762V6.838L1 4.239v7.923l6.5 2.6zM7.443.184a1.5 1.5 0 0 1 1.114 0l7.129 2.852A.5.5 0 0 1 16 3.5v8.662a1 1 0 0 1-.629.928l-7.185 2.874a.5.5 0 0 1-.372 0L.63 13.09a1 1 0 0 1-.63-.928V3.5a.5.5 0 0 1 .314-.464L7.443.184z"/>
  <path d="M -7.287 43.983 L -7.287 47.673 L -14.427 47.673 L -14.427 53.693 L -5.977 53.693 L -5.977 57.493 L -19.007 57.493 L -19.007 34.813 L -6.007 34.813 L -6.007 38.623 L -14.427 38.623 L -14.427 43.983 L -7.287 43.983 ZM 11.652 34.813 L 11.652 38.623 L 6.052 38.623 L 6.052 57.493 L 1.452 57.493 L 1.452 38.623 L -4.068 38.623 L -4.068 34.813 L 11.652 34.813 ZM 18.866 34.813 L 18.866 53.693 L 26.906 53.693 L 26.906 57.493 L 14.286 57.493 L 14.286 34.813 L 18.866 34.813 Z" transform="matrix(0.12534299492835999, 0.049250002950429916, 0.0009350000182166696, 0.1611970067024231, 3.7332990169525146, 0.015956001356244087)" style="fill: rgb(51, 51, 51); white-space: pre;"/>
  <path d="M 36.758 8.154 L 30.168 8.154 L 30.168 -11.756 L 36.318 -11.756 C 38.398 -11.756 39.978 -11.293 41.058 -10.366 C 42.138 -9.439 42.678 -8.083 42.678 -6.296 C 42.678 -5.283 42.455 -4.413 42.008 -3.686 C 41.561 -2.959 40.951 -2.426 40.178 -2.086 C 41.071 -1.833 41.758 -1.319 42.238 -0.546 C 42.725 0.221 42.968 1.171 42.968 2.304 C 42.968 4.237 42.435 5.694 41.368 6.674 C 40.308 7.661 38.771 8.154 36.758 8.154 Z M 37.018 -0.496 L 34.188 -0.496 L 34.188 4.814 L 36.758 4.814 C 37.478 4.814 38.025 4.591 38.398 4.144 C 38.771 3.697 38.958 3.064 38.958 2.244 C 38.958 0.457 38.311 -0.456 37.018 -0.496 Z M 34.188 -8.406 L 34.188 -3.426 L 36.278 -3.426 C 37.858 -3.426 38.648 -4.243 38.648 -5.876 C 38.648 -6.776 38.465 -7.423 38.098 -7.816 C 37.731 -8.209 37.138 -8.406 36.318 -8.406 L 34.188 -8.406 ZM 59.887 -3.416 L 59.887 -0.006 C 59.887 2.661 59.257 4.734 57.997 6.214 C 56.737 7.687 54.984 8.424 52.737 8.424 C 50.504 8.424 48.75 7.694 47.477 6.234 C 46.204 4.767 45.557 2.717 45.537 0.084 L 45.537 -3.316 C 45.537 -6.049 46.17 -8.186 47.437 -9.726 C 48.704 -11.259 50.464 -12.026 52.717 -12.026 C 54.93 -12.026 56.674 -11.273 57.947 -9.766 C 59.227 -8.253 59.874 -6.136 59.887 -3.416 Z M 55.857 0.114 L 55.857 -3.346 C 55.857 -5.139 55.6 -6.473 55.087 -7.346 C 54.58 -8.226 53.79 -8.666 52.717 -8.666 C 51.65 -8.666 50.86 -8.243 50.347 -7.396 C 49.834 -6.556 49.57 -5.273 49.557 -3.546 L 49.557 -0.006 C 49.557 1.734 49.817 3.017 50.337 3.844 C 50.857 4.664 51.657 5.074 52.737 5.074 C 53.79 5.074 54.57 4.671 55.077 3.864 C 55.59 3.057 55.85 1.807 55.857 0.114 ZM 66.025 -11.756 L 68.705 -4.916 L 71.385 -11.756 L 75.995 -11.756 L 71.325 -1.886 L 76.105 8.154 L 71.445 8.154 L 68.705 1.194 L 65.985 8.154 L 61.325 8.154 L 66.115 -1.886 L 61.425 -11.756 L 66.025 -11.756 Z" transform="matrix(0.12531399726867676, 0.050099004060029984, 0.004387000110000372, 0.1833290159702301, -2.3493120670318604, 9.245244979858398)" style="fill: rgb(51, 51, 51); white-space: pre;"/>
  <path d="M 31.81 2.344 L 35.83 2.344 C 35.73 4.611 35.093 6.327 33.92 7.494 C 32.747 8.661 31.087 9.244 28.94 9.244 C 26.693 9.244 24.97 8.504 23.77 7.024 C 22.57 5.544 21.97 3.431 21.97 0.684 L 21.97 -2.656 C 21.97 -5.396 22.59 -7.506 23.83 -8.986 C 25.07 -10.466 26.793 -11.206 29 -11.206 C 31.167 -11.206 32.813 -10.599 33.94 -9.386 C 35.067 -8.173 35.707 -6.433 35.86 -4.166 L 31.83 -4.166 C 31.79 -5.566 31.573 -6.533 31.18 -7.066 C 30.78 -7.599 30.053 -7.866 29 -7.866 C 27.92 -7.866 27.157 -7.493 26.71 -6.746 C 26.263 -5.993 26.027 -4.753 26 -3.026 L 26 0.734 C 26 2.707 26.223 4.064 26.67 4.804 C 27.11 5.544 27.867 5.914 28.94 5.914 C 30 5.914 30.73 5.657 31.13 5.144 C 31.53 4.624 31.757 3.691 31.81 2.344 ZM 52.319 -2.596 L 52.319 0.814 C 52.319 3.481 51.689 5.554 50.429 7.034 C 49.169 8.507 47.415 9.244 45.169 9.244 C 42.935 9.244 41.182 8.514 39.909 7.054 C 38.635 5.587 37.989 3.537 37.969 0.904 L 37.969 -2.496 C 37.969 -5.229 38.602 -7.366 39.869 -8.906 C 41.135 -10.439 42.895 -11.206 45.149 -11.206 C 47.362 -11.206 49.105 -10.453 50.379 -8.946 C 51.659 -7.433 52.305 -5.316 52.319 -2.596 Z M 48.289 0.934 L 48.289 -2.526 C 48.289 -4.319 48.032 -5.653 47.519 -6.526 C 47.012 -7.406 46.222 -7.846 45.149 -7.846 C 44.082 -7.846 43.292 -7.423 42.779 -6.576 C 42.265 -5.736 42.002 -4.453 41.989 -2.726 L 41.989 0.814 C 41.989 2.554 42.249 3.837 42.769 4.664 C 43.289 5.484 44.089 5.894 45.169 5.894 C 46.222 5.894 47.002 5.491 47.509 4.684 C 48.022 3.877 48.282 2.627 48.289 0.934 ZM 64.137 -10.936 L 68.157 -10.936 L 68.157 2.844 C 68.137 4.917 67.567 6.504 66.447 7.604 C 65.327 8.697 63.717 9.244 61.617 9.244 C 59.483 9.244 57.853 8.691 56.727 7.584 C 55.607 6.471 55.047 4.861 55.047 2.754 L 55.047 -10.936 L 59.087 -10.936 L 59.087 2.764 C 59.087 3.897 59.27 4.704 59.637 5.184 C 60.003 5.671 60.663 5.914 61.617 5.914 C 62.577 5.914 63.233 5.674 63.587 5.194 C 63.94 4.714 64.123 3.927 64.137 2.834 L 64.137 -10.936 ZM 80.673 2.344 L 84.693 2.344 C 84.593 4.611 83.956 6.327 82.783 7.494 C 81.609 8.661 79.949 9.244 77.803 9.244 C 75.556 9.244 73.833 8.504 72.633 7.024 C 71.433 5.544 70.833 3.431 70.833 0.684 L 70.833 -2.656 C 70.833 -5.396 71.453 -7.506 72.693 -8.986 C 73.933 -10.466 75.656 -11.206 77.863 -11.206 C 80.029 -11.206 81.676 -10.599 82.803 -9.386 C 83.929 -8.173 84.569 -6.433 84.723 -4.166 L 80.693 -4.166 C 80.653 -5.566 80.436 -6.533 80.043 -7.066 C 79.643 -7.599 78.916 -7.866 77.863 -7.866 C 76.783 -7.866 76.019 -7.493 75.573 -6.746 C 75.126 -5.993 74.889 -4.753 74.863 -3.026 L 74.863 0.734 C 74.863 2.707 75.086 4.064 75.533 4.804 C 75.973 5.544 76.729 5.914 77.803 5.914 C 78.863 5.914 79.593 5.657 79.993 5.144 C 80.393 4.624 80.619 3.691 80.673 2.344 ZM 101.131 -10.936 L 101.131 8.974 L 97.121 8.974 L 97.121 0.454 L 91.191 0.454 L 91.191 8.974 L 87.171 8.974 L 87.171 -10.936 L 91.191 -10.936 L 91.191 -2.876 L 97.121 -2.876 L 97.121 -10.936 L 101.131 -10.936 Z" transform="matrix(0.07124301791191101, -0.027580002322793007, -0.001330000115558505, 0.177016019821167, 7.361223220825195, 9.548272132873535)" style="fill: rgb(51, 51, 51); white-space: pre;"/>
  <path d="M 28.93 8.974 L 22.34 8.974 L 22.34 -10.936 L 28.49 -10.936 C 30.57 -10.936 32.15 -10.473 33.23 -9.546 C 34.31 -8.619 34.85 -7.263 34.85 -5.476 C 34.85 -4.463 34.627 -3.593 34.18 -2.866 C 33.733 -2.139 33.123 -1.606 32.35 -1.266 C 33.243 -1.013 33.93 -0.499 34.41 0.274 C 34.897 1.041 35.14 1.991 35.14 3.124 C 35.14 5.057 34.607 6.514 33.54 7.494 C 32.48 8.481 30.943 8.974 28.93 8.974 Z M 29.19 0.324 L 26.36 0.324 L 26.36 5.634 L 28.93 5.634 C 29.65 5.634 30.197 5.411 30.57 4.964 C 30.943 4.517 31.13 3.884 31.13 3.064 C 31.13 1.277 30.483 0.364 29.19 0.324 Z M 26.36 -7.586 L 26.36 -2.606 L 28.45 -2.606 C 30.03 -2.606 30.82 -3.423 30.82 -5.056 C 30.82 -5.956 30.637 -6.603 30.27 -6.996 C 29.903 -7.389 29.31 -7.586 28.49 -7.586 L 26.36 -7.586 ZM 48.619 8.974 L 47.549 4.904 L 42.069 4.904 L 40.999 8.974 L 36.749 8.974 L 42.969 -10.936 L 46.649 -10.936 L 52.909 8.974 L 48.619 8.974 Z M 44.799 -5.546 L 42.939 1.554 L 46.659 1.554 L 44.799 -5.546 ZM 63.179 3.754 C 63.179 2.941 62.972 2.327 62.559 1.914 C 62.139 1.501 61.382 1.071 60.289 0.624 C 58.296 -0.136 56.862 -1.023 55.989 -2.036 C 55.109 -3.056 54.669 -4.259 54.669 -5.646 C 54.669 -7.319 55.266 -8.666 56.459 -9.686 C 57.646 -10.699 59.156 -11.206 60.989 -11.206 C 62.209 -11.206 63.299 -10.949 64.259 -10.436 C 65.212 -9.916 65.949 -9.189 66.469 -8.256 C 66.982 -7.316 67.239 -6.249 67.239 -5.056 L 63.229 -5.056 C 63.229 -5.983 63.032 -6.689 62.639 -7.176 C 62.239 -7.663 61.666 -7.906 60.919 -7.906 C 60.219 -7.906 59.672 -7.699 59.279 -7.286 C 58.886 -6.873 58.689 -6.316 58.689 -5.616 C 58.689 -5.069 58.909 -4.573 59.349 -4.126 C 59.789 -3.686 60.562 -3.229 61.669 -2.756 C 63.616 -2.056 65.029 -1.196 65.909 -0.176 C 66.782 0.844 67.219 2.144 67.219 3.724 C 67.219 5.457 66.669 6.811 65.569 7.784 C 64.469 8.757 62.969 9.244 61.069 9.244 C 59.782 9.244 58.612 8.981 57.559 8.454 C 56.499 7.927 55.672 7.171 55.079 6.184 C 54.479 5.197 54.179 4.034 54.179 2.694 L 58.209 2.694 C 58.209 3.847 58.432 4.684 58.879 5.204 C 59.326 5.724 60.056 5.984 61.069 5.984 C 62.476 5.984 63.179 5.241 63.179 3.754 ZM 80.17 -2.876 L 80.17 0.364 L 73.91 0.364 L 73.91 5.634 L 81.32 5.634 L 81.32 8.974 L 69.89 8.974 L 69.89 -10.936 L 81.29 -10.936 L 81.29 -7.586 L 73.91 -7.586 L 73.91 -2.876 L 80.17 -2.876 Z" transform="matrix(0.09424500912427902, -0.036483000963926315, -0.00837700068950653, 0.18354099988937378, 6.868234157562256, 13.488022804260254)" style="fill: rgb(51, 51, 51); white-space: pre;"/>
</svg>