<?xml version="1.0" encoding="UTF-8"?> <!-- Generator: Adobe Illustrator 22.0.1, SVG Export Plug-In . SVG Version: 6.00 Build 0) --> <svg xmlns="http://www.w3.org/2000/svg" xmlns:xlink="http://www.w3.org/1999/xlink" version="1.1" id="Layer_1" x="0px" y="0px" viewBox="0 0 2304 741.7" style="enable-background:new 0 0 2304 741.7;" xml:space="preserve"> <style type="text/css"> .st0{fill:#0057A4;} </style> <g> <path class="st0" d="M340.5,195.9v121.5H136.3v187H1.2V195.9H340.5L340.5,195.9z M340.5,0v121.5H1.2V0H340.5L340.5,0z"></path> <polygon class="st0" points="678.7,0 835,504.5 363.3,504.5 469.3,196.7 591.7,196.7 538.2,386.7 667.2,386.7 530.2,0 678.7,0 "></polygon> <polygon class="st0" points="1542.4,0 1542.4,120.7 1224,120.7 1224,0 1542.4,0 "></polygon> <path class="st0" d="M1919.6,200V320h-195.4v68.7h195.4v115.8h-327.5V196.7h327.5V200L1919.6,200z M1919.6,0v120.7h-327.5V0H1919.6 L1919.6,0z"></path> <path class="st0" d="M93.4,696.9c0,7.1-1.3,13.5-3.9,19c-2.6,5.6-6.3,10.3-10.9,14.1c-4.7,3.9-10.1,6.8-16.4,8.7 c-6.3,2-13.1,2.9-20.4,2.9c-5.1,0-9.8-0.4-14.1-1.3c-4.3-0.9-8.2-1.9-11.6-3.2c-3.4-1.3-6.3-2.5-8.6-3.9c-2.3-1.3-3.9-2.5-4.8-3.4 c-0.9-0.9-1.6-2.1-2-3.6C0.2,724.9,0,723,0,720.6c0-1.7,0.1-3.1,0.2-4.3c0.2-1.1,0.4-2.1,0.7-2.8c0.3-0.7,0.7-1.2,1.2-1.5 c0.5-0.3,1-0.4,1.6-0.4c1.1,0,2.6,0.7,4.6,2c2,1.3,4.6,2.8,7.7,4.3c3.1,1.6,6.9,3,11.3,4.4c4.4,1.4,9.5,2.1,15.3,2.1 c4.4,0,8.4-0.6,12-1.8c3.6-1.2,6.8-2.8,9.4-5c2.6-2.2,4.6-4.8,6-7.9c1.4-3.1,2.1-6.7,2.1-10.7c0-4.3-1-8-2.9-11 c-2-3.1-4.5-5.7-7.7-8c-3.2-2.3-6.9-4.4-11-6.3c-4.1-1.9-8.3-3.9-12.6-5.9c-4.3-2-8.5-4.2-12.6-6.6c-4.1-2.4-7.7-5.3-10.9-8.6 c-3.2-3.3-5.8-7.1-7.8-11.6c-2-4.4-3-9.7-3-15.9c0-6.3,1.2-12,3.5-17c2.3-5,5.5-9.1,9.6-12.5c4.1-3.4,9-5.9,14.7-7.7 c5.7-1.8,11.8-2.6,18.4-2.6c3.4,0,6.8,0.3,10.2,0.9c3.4,0.6,6.6,1.4,9.6,2.3c3,1,5.7,2.1,8,3.3c2.3,1.2,3.9,2.2,4.6,2.9 c0.7,0.7,1.2,1.3,1.5,1.8c0.2,0.4,0.4,1,0.6,1.6c0.2,0.7,0.3,1.5,0.4,2.4c0.1,0.9,0.1,2.2,0.1,3.6c0,1.4-0.1,2.7-0.2,3.8 c-0.1,1.1-0.3,2-0.5,2.8c-0.2,0.7-0.6,1.3-1,1.6c-0.4,0.4-0.9,0.5-1.5,0.5c-0.9,0-2.2-0.5-4.1-1.6c-1.8-1.1-4.1-2.3-6.7-3.7 c-2.7-1.4-5.8-2.6-9.5-3.8c-3.6-1.1-7.7-1.7-12.3-1.7c-4.2,0-7.9,0.6-11,1.7c-3.1,1.1-5.7,2.6-7.7,4.5c-2,1.9-3.6,4.1-4.6,6.7 c-1,2.6-1.5,5.3-1.5,8.2c0,4.2,1,7.9,2.9,10.9c2,3,4.6,5.8,7.8,8.1c3.2,2.3,6.9,4.5,11.1,6.5c4.1,2,8.4,3.9,12.7,5.9 c4.3,2,8.5,4.2,12.7,6.6c4.1,2.4,7.8,5.2,11.1,8.5c3.2,3.2,5.9,7.1,7.9,11.5C92.4,685.6,93.4,690.8,93.4,696.9L93.4,696.9z"></path> <path class="st0" d="M218.3,682.5c0,8.6-1.1,16.5-3.4,23.8c-2.3,7.2-5.7,13.5-10.2,18.7c-4.5,5.2-10.1,9.3-16.9,12.3 c-6.8,2.9-14.6,4.4-23.5,4.4c-8.7,0-16.3-1.3-22.7-3.9c-6.5-2.6-11.8-6.3-16.1-11.3c-4.3-4.9-7.5-10.9-9.6-18 c-2.1-7-3.2-15-3.2-23.9c0-8.6,1.1-16.5,3.3-23.8c2.2-7.2,5.6-13.5,10.1-18.7c4.5-5.2,10.1-9.3,16.8-12.2 c6.7-2.9,14.6-4.3,23.6-4.3c8.7,0,16.3,1.3,22.7,3.9c6.5,2.6,11.8,6.3,16.1,11.3c4.3,4.9,7.5,10.9,9.7,18 C217.3,665.8,218.3,673.7,218.3,682.5L218.3,682.5z M198.3,683.8c0-5.7-0.5-11.1-1.6-16.2c-1.1-5.1-2.8-9.5-5.3-13.4 c-2.4-3.8-5.8-6.9-10-9.1c-4.2-2.2-9.4-3.3-15.6-3.3c-5.8,0-10.7,1-14.9,3.1c-4.1,2-7.6,4.9-10.2,8.6c-2.7,3.7-4.7,8.1-6,13.2 c-1.3,5.1-2,10.6-2,16.7c0,5.8,0.5,11.2,1.6,16.3c1.1,5.1,2.8,9.5,5.3,13.3c2.5,3.8,5.8,6.8,10,9c4.2,2.2,9.4,3.3,15.6,3.3 c5.7,0,10.6-1,14.8-3c4.2-2,7.6-4.9,10.3-8.6c2.7-3.7,4.7-8.1,5.9-13.1C197.6,695.5,198.3,689.9,198.3,683.8L198.3,683.8z"></path> <path class="st0" d="M271.4,643.9v92.6c0,0.6-0.2,1.2-0.5,1.6c-0.3,0.4-0.8,0.8-1.6,1.1c-0.7,0.3-1.7,0.5-3,0.7 c-1.3,0.2-2.8,0.2-4.7,0.2c-1.9,0-3.4-0.1-4.7-0.2c-1.3-0.2-2.3-0.4-3-0.7c-0.7-0.3-1.3-0.7-1.6-1.1c-0.3-0.4-0.5-1-0.5-1.6v-92.6 H237c-1.3,0-2.2-0.6-2.8-1.9c-0.6-1.3-0.9-3.3-0.9-6.1c0-1.5,0.1-2.7,0.2-3.8c0.2-1,0.4-1.9,0.7-2.5c0.3-0.7,0.7-1.1,1.2-1.4 c0.5-0.3,1-0.4,1.6-0.4h14.9v-10.9c0-7.4,0.7-13.7,2.1-19c1.4-5.3,3.4-9.6,6.2-13c2.8-3.4,6.3-5.8,10.6-7.5 c4.3-1.6,9.3-2.4,15.1-2.4c2.9,0,5.7,0.3,8.5,0.9c2.7,0.6,4.7,1.1,5.9,1.6c1.2,0.5,2,1,2.5,1.5c0.5,0.5,0.8,1.1,1.1,1.8 c0.3,0.7,0.5,1.6,0.6,2.7c0.1,1.1,0.2,2.3,0.2,3.8c0,1.5-0.1,2.7-0.2,3.6c-0.1,0.9-0.3,1.6-0.5,2.2c-0.2,0.5-0.5,0.9-0.8,1.1 c-0.3,0.2-0.7,0.3-1.1,0.3c-0.6,0-1.3-0.2-2.1-0.5c-0.8-0.4-1.8-0.7-2.9-1.2c-1.2-0.4-2.6-0.8-4.2-1.2c-1.6-0.4-3.5-0.5-5.6-0.5 c-2.9,0-5.3,0.5-7.3,1.4c-2,0.9-3.6,2.4-4.9,4.4c-1.3,2-2.2,4.6-2.8,7.7c-0.6,3.2-0.9,7-0.9,11.6v11.5H319v-25.1 c0-0.5,0.2-1.1,0.5-1.5c0.3-0.5,0.8-0.9,1.5-1.2c0.7-0.4,1.7-0.6,2.9-0.8c1.3-0.2,2.9-0.2,4.8-0.2c1.9,0,3.4,0.1,4.7,0.2 c1.3,0.2,2.2,0.4,2.9,0.8c0.7,0.3,1.2,0.8,1.5,1.2c0.3,0.5,0.5,1,0.5,1.5v25.1h27c0.6,0,1.2,0.1,1.7,0.4c0.5,0.3,0.9,0.7,1.2,1.4 c0.3,0.7,0.6,1.5,0.8,2.5c0.2,1,0.3,2.3,0.3,3.8c0,2.8-0.4,4.9-1.1,6.1c-0.7,1.3-1.6,1.9-2.8,1.9h-27.1v58.9 c0,7.3,1.1,12.8,3.2,16.5c2.1,3.7,6,5.6,11.6,5.6c1.7,0,3.3-0.2,4.8-0.5c1.4-0.4,2.7-0.7,3.8-1.1c1.1-0.4,2.1-0.8,2.9-1.1 c0.8-0.4,1.5-0.5,2.1-0.5c0.5,0,0.9,0.1,1.2,0.3c0.3,0.2,0.6,0.6,0.8,1.1c0.2,0.6,0.4,1.3,0.5,2.2c0.2,0.9,0.2,2.1,0.2,3.5 c0,2.3-0.2,4.1-0.5,5.4c-0.4,1.3-0.8,2.3-1.5,2.9c-0.6,0.6-1.5,1.2-2.7,1.8c-1.2,0.5-2.6,1-4.2,1.3c-1.6,0.3-3.3,0.6-5.2,0.9 c-1.8,0.2-3.6,0.3-5.3,0.3c-5.6,0-10.3-0.7-14.2-2.2c-3.9-1.5-7.1-3.6-9.6-6.6c-2.5-2.9-4.3-6.7-5.5-11.2 c-1.1-4.5-1.7-9.8-1.7-15.9v-61.7H271.4L271.4,643.9z"></path> <path class="st0" d="M542.7,630.7c0,0.5-0.1,1.2-0.2,2c-0.2,0.8-0.4,1.8-0.8,2.9L510.5,736c-0.2,0.9-0.6,1.6-1.1,2.1 c-0.5,0.5-1.2,1-2.1,1.3c-0.9,0.3-2.1,0.5-3.7,0.6c-1.6,0.1-3.5,0.2-5.9,0.2c-2.4,0-4.5-0.1-6.1-0.2c-1.6-0.2-3-0.4-3.9-0.7 c-1-0.3-1.7-0.7-2.2-1.3c-0.5-0.6-0.8-1.2-1.1-2l-22.2-76.7l-0.2-1.1l-0.2,1.1L441.3,736c-0.2,0.9-0.6,1.6-1.1,2.1 c-0.5,0.5-1.3,1-2.3,1.3c-1,0.3-2.3,0.5-3.9,0.6c-1.6,0.1-3.6,0.2-5.9,0.2c-2.4,0-4.4-0.1-5.9-0.2c-1.5-0.2-2.8-0.4-3.8-0.7 c-1-0.3-1.7-0.7-2.2-1.3c-0.5-0.6-0.8-1.2-1.1-2l-30.9-100.4c-0.4-1.2-0.7-2.2-0.8-2.9c-0.2-0.8-0.2-1.4-0.2-2 c0-0.7,0.2-1.3,0.5-1.7c0.3-0.4,0.8-0.8,1.6-1.1c0.7-0.3,1.7-0.4,3-0.5c1.3-0.1,2.8-0.1,4.6-0.1c2.2,0,4,0.1,5.3,0.2 c1.3,0.1,2.3,0.3,3.1,0.6c0.7,0.3,1.2,0.7,1.5,1.2c0.3,0.5,0.6,1.1,0.8,1.8l25.5,87.1l0.2,1.1l0.2-1.1l23.4-87.1 c0.2-0.7,0.4-1.3,0.8-1.8c0.4-0.5,0.9-0.9,1.6-1.2c0.7-0.3,1.7-0.5,2.9-0.6c1.2-0.1,2.8-0.2,4.8-0.2c1.9,0,3.4,0.1,4.6,0.2 c1.2,0.1,2.2,0.3,2.9,0.6c0.7,0.3,1.2,0.6,1.5,1.1c0.3,0.5,0.5,1,0.7,1.6l25.2,87.3l0.2,1.1l0.1-1.1l25.1-87.1 c0.2-0.7,0.4-1.3,0.8-1.8c0.4-0.5,0.9-0.9,1.6-1.2c0.7-0.3,1.8-0.5,3.1-0.6c1.3-0.1,3-0.2,5-0.2c1.9,0,3.4,0,4.5,0.1 c1.1,0.1,2,0.3,2.7,0.6c0.7,0.3,1.1,0.7,1.4,1.1C542.6,629.4,542.7,630,542.7,630.7L542.7,630.7z"></path> <path class="st0" d="M643.7,736.7c0,0.9-0.3,1.6-0.9,2.1c-0.6,0.5-1.5,0.8-2.6,1.1c-1.1,0.2-2.7,0.4-4.8,0.4c-2,0-3.7-0.1-4.9-0.4 c-1.2-0.2-2.1-0.6-2.6-1.1c-0.5-0.5-0.8-1.2-0.8-2.1v-10.6c-4.6,4.9-9.8,8.8-15.4,11.5c-5.7,2.7-11.7,4.1-18,4.1 c-5.6,0-10.6-0.7-15.1-2.2c-4.5-1.4-8.3-3.5-11.5-6.3c-3.2-2.7-5.6-6.1-7.4-10.1c-1.8-4-2.6-8.5-2.6-13.6c0-5.9,1.2-11.1,3.6-15.5 c2.4-4.4,5.9-8,10.4-10.9c4.5-2.9,10.1-5.1,16.7-6.5c6.6-1.4,14-2.2,22.2-2.2h14.6v-8.2c0-4.1-0.4-7.7-1.3-10.8 c-0.9-3.1-2.3-5.7-4.2-7.8c-1.9-2.1-4.4-3.6-7.5-4.7c-3.1-1.1-6.8-1.6-11.3-1.6c-4.8,0-9.1,0.6-12.9,1.7c-3.8,1.1-7.1,2.4-10,3.8 c-2.9,1.4-5.2,2.6-7.2,3.8c-1.9,1.1-3.3,1.7-4.3,1.7c-0.6,0-1.2-0.2-1.6-0.5c-0.5-0.3-0.9-0.8-1.2-1.4c-0.4-0.6-0.6-1.4-0.8-2.4 c-0.2-1-0.2-2.1-0.2-3.2c0-2,0.1-3.5,0.4-4.6c0.3-1.1,0.9-2.2,2-3.2c1.1-1,2.9-2.2,5.5-3.6c2.6-1.4,5.6-2.6,8.9-3.8 c3.4-1.1,7-2.1,11-2.8c4-0.7,8-1.1,12.1-1.1c7.6,0,14,0.9,19.4,2.6c5.3,1.7,9.6,4.2,12.9,7.6c3.3,3.3,5.7,7.5,7.2,12.4 c1.5,4.9,2.2,10.7,2.2,17.3V736.7L643.7,736.7z M624.4,688.4h-16.6c-5.3,0-9.9,0.5-13.9,1.4c-3.9,0.9-7.2,2.2-9.7,4 c-2.6,1.8-4.5,3.9-5.7,6.3c-1.2,2.5-1.8,5.3-1.8,8.5c0,5.5,1.7,9.8,5.2,13.1c3.5,3.2,8.4,4.9,14.6,4.9c5.1,0,9.8-1.3,14.1-3.9 c4.3-2.6,8.9-6.5,13.7-11.9V688.4L624.4,688.4z"></path> <path class="st0" d="M741,637.8c0,1.7,0,3.2-0.1,4.3c-0.1,1.2-0.2,2.1-0.5,2.8c-0.2,0.7-0.5,1.2-0.9,1.5c-0.4,0.4-0.8,0.5-1.5,0.5 c-0.6,0-1.4-0.2-2.3-0.5c-0.9-0.4-1.9-0.7-3.1-1.1c-1.1-0.3-2.4-0.7-3.8-1c-1.4-0.3-2.9-0.5-4.6-0.5c-2,0-3.9,0.4-5.7,1.2 c-1.9,0.8-3.9,2.1-5.9,3.9c-2.1,1.8-4.2,4.2-6.5,7.2c-2.3,3-4.8,6.6-7.5,10.9v69.5c0,0.6-0.2,1.2-0.5,1.6c-0.3,0.4-0.8,0.8-1.5,1.1 c-0.7,0.3-1.7,0.5-2.9,0.7c-1.3,0.2-2.9,0.2-4.8,0.2c-1.9,0-3.4-0.1-4.7-0.2c-1.3-0.2-2.3-0.4-3-0.7c-0.7-0.3-1.3-0.7-1.5-1.1 c-0.3-0.4-0.4-1-0.4-1.6V630.9c0-0.6,0.1-1.2,0.4-1.6c0.2-0.4,0.7-0.8,1.4-1.2c0.7-0.4,1.6-0.6,2.7-0.7c1.1-0.1,2.5-0.2,4.3-0.2 c1.7,0,3.2,0.1,4.3,0.2c1.1,0.1,2,0.4,2.6,0.7c0.6,0.4,1.1,0.7,1.3,1.2c0.3,0.4,0.4,1,0.4,1.6v15.4c2.9-4.2,5.6-7.7,8.2-10.3 c2.5-2.7,4.9-4.8,7.2-6.3c2.3-1.5,4.5-2.6,6.8-3.2c2.2-0.6,4.5-0.9,6.7-0.9c1,0,2.2,0.1,3.5,0.2c1.3,0.1,2.6,0.3,4,0.6 c1.4,0.3,2.7,0.7,3.8,1.1c1.1,0.4,1.9,0.8,2.4,1.2c0.5,0.4,0.8,0.8,0.9,1.1c0.2,0.3,0.3,0.8,0.4,1.3c0.1,0.6,0.2,1.3,0.2,2.4 C741,634.6,741,636,741,637.8L741,637.8z"></path> <path class="st0" d="M850,679.1c0,3.1-0.8,5.2-2.3,6.5c-1.5,1.3-3.3,1.9-5.2,1.9h-69.6c0,5.9,0.6,11.2,1.8,15.8 c1.2,4.7,3.1,8.7,5.9,12.1c2.8,3.4,6.3,5.9,10.7,7.8c4.4,1.8,9.8,2.7,16.2,2.7c5,0,9.5-0.4,13.4-1.2c3.9-0.8,7.3-1.7,10.2-2.8 c2.9-1,5.2-1.9,7.1-2.8c1.8-0.8,3.2-1.2,4.2-1.2c0.6,0,1,0.1,1.5,0.4c0.4,0.3,0.8,0.7,1,1.2c0.2,0.5,0.4,1.3,0.5,2.3 c0.1,1,0.2,2.2,0.2,3.6c0,1,0,1.9-0.1,2.6c-0.1,0.7-0.2,1.4-0.3,2c-0.1,0.6-0.3,1.1-0.6,1.6c-0.3,0.5-0.6,0.9-1.1,1.3 c-0.4,0.4-1.7,1.1-3.8,2.1c-2.1,1-4.9,1.9-8.2,2.9c-3.4,0.9-7.3,1.8-11.7,2.5c-4.4,0.7-9.1,1.1-14.1,1.1c-8.7,0-16.3-1.2-22.8-3.6 c-6.5-2.4-12-6-16.5-10.8c-4.5-4.8-7.8-10.8-10.1-18c-2.3-7.2-3.4-15.6-3.4-25.1c0-9.1,1.2-17.2,3.5-24.5 c2.3-7.2,5.7-13.4,10.2-18.4c4.4-5,9.8-8.9,16-11.6c6.3-2.7,13.3-4,21-4c8.3,0,15.4,1.3,21.2,4c5.8,2.7,10.6,6.2,14.4,10.7 c3.8,4.5,6.5,9.8,8.3,15.8c1.8,6.1,2.6,12.5,2.6,19.4V679.1L850,679.1z M830.5,673.4c0.2-10.2-2-18.2-6.8-23.9 c-4.8-5.8-11.8-8.7-21.2-8.7c-4.8,0-9,0.9-12.6,2.7c-3.6,1.8-6.7,4.2-9.1,7.2c-2.4,3-4.3,6.4-5.7,10.4c-1.3,4-2.1,8.1-2.2,12.4 H830.5L830.5,673.4z"></path> <path class="st0" d="M991.7,587.5c0,1.5-0.1,2.7-0.2,3.6c-0.2,0.9-0.3,1.6-0.5,2.2c-0.2,0.5-0.5,0.9-0.8,1.1 c-0.3,0.2-0.7,0.3-1.2,0.3c-0.6,0-1.2-0.2-2.1-0.5c-0.8-0.4-1.8-0.7-3-1.2c-1.2-0.4-2.6-0.8-4.2-1.2c-1.6-0.4-3.5-0.5-5.6-0.5 c-2.9,0-5.4,0.5-7.4,1.4s-3.7,2.4-4.9,4.4c-1.3,2-2.2,4.6-2.7,7.7c-0.5,3.2-0.8,7-0.8,11.6v11.5H982c0.6,0,1.2,0.1,1.6,0.4 c0.4,0.3,0.8,0.7,1.2,1.4c0.4,0.7,0.6,1.5,0.8,2.5c0.2,1,0.3,2.3,0.3,3.8c0,2.8-0.4,4.9-1.1,6.1c-0.7,1.3-1.6,1.9-2.8,1.9h-23.6 v92.6c0,0.6-0.2,1.2-0.5,1.6c-0.3,0.4-0.8,0.8-1.6,1.1c-0.7,0.3-1.7,0.5-3,0.7c-1.3,0.2-2.8,0.2-4.7,0.2c-1.9,0-3.4-0.1-4.7-0.2 c-1.3-0.2-2.3-0.4-3-0.7c-0.7-0.3-1.3-0.7-1.6-1.1c-0.3-0.4-0.5-1-0.5-1.6v-92.6H924c-1.3,0-2.2-0.6-2.8-1.9 c-0.6-1.3-0.9-3.3-0.9-6.1c0-1.5,0.1-2.7,0.2-3.8c0.2-1,0.4-1.9,0.7-2.5c0.3-0.7,0.7-1.1,1.2-1.4c0.5-0.3,1-0.4,1.6-0.4h14.9v-10.9 c0-7.4,0.7-13.7,2.1-19c1.4-5.3,3.5-9.6,6.3-13c2.8-3.4,6.4-5.8,10.6-7.5c4.3-1.6,9.3-2.4,15.1-2.4c2.7,0,5.4,0.3,8,0.8 c2.6,0.5,4.6,1.1,6,1.6c1.4,0.6,2.3,1.1,2.8,1.6c0.5,0.5,0.9,1.1,1.2,1.8c0.3,0.7,0.5,1.6,0.6,2.7 C991.7,584.7,991.7,586,991.7,587.5L991.7,587.5z"></path> <path class="st0" d="M1100.4,682.5c0,8.6-1.1,16.5-3.4,23.8c-2.3,7.2-5.7,13.5-10.2,18.7c-4.5,5.2-10.1,9.3-16.9,12.3 c-6.8,2.9-14.6,4.4-23.5,4.4c-8.7,0-16.3-1.3-22.7-3.9c-6.5-2.6-11.8-6.3-16.1-11.3c-4.3-4.9-7.5-10.9-9.6-18 c-2.1-7-3.2-15-3.2-23.9c0-8.6,1.1-16.5,3.3-23.8c2.2-7.2,5.6-13.5,10.1-18.7c4.5-5.2,10.1-9.3,16.8-12.2 c6.7-2.9,14.6-4.3,23.6-4.3c8.7,0,16.3,1.3,22.7,3.9c6.5,2.6,11.8,6.3,16.1,11.3c4.3,4.9,7.5,10.9,9.7,18 C1099.4,665.8,1100.4,673.7,1100.4,682.5L1100.4,682.5z M1080.4,683.8c0-5.7-0.5-11.1-1.6-16.2c-1.1-5.1-2.8-9.5-5.3-13.4 c-2.4-3.8-5.8-6.9-9.9-9.1c-4.2-2.2-9.4-3.3-15.6-3.3c-5.8,0-10.7,1-14.9,3.1c-4.1,2-7.6,4.9-10.2,8.6c-2.7,3.7-4.7,8.1-6,13.2 c-1.3,5.1-2,10.6-2,16.7c0,5.8,0.5,11.2,1.6,16.3c1.1,5.1,2.8,9.5,5.3,13.3c2.5,3.8,5.8,6.8,10,9c4.2,2.2,9.4,3.3,15.6,3.3 c5.7,0,10.6-1,14.8-3c4.2-2,7.6-4.9,10.3-8.6c2.7-3.7,4.7-8.1,5.9-13.1C1079.7,695.5,1080.4,689.9,1080.4,683.8L1080.4,683.8z"></path> <path class="st0" d="M1190.7,637.8c0,1.7,0,3.2-0.1,4.3c-0.1,1.2-0.2,2.1-0.5,2.8c-0.2,0.7-0.5,1.2-0.9,1.5 c-0.3,0.4-0.8,0.5-1.5,0.5c-0.6,0-1.4-0.2-2.3-0.5c-0.9-0.4-1.9-0.7-3.1-1.1c-1.1-0.3-2.4-0.7-3.8-1c-1.4-0.3-2.9-0.5-4.6-0.5 c-2,0-3.9,0.4-5.8,1.2c-1.9,0.8-3.9,2.1-5.9,3.9c-2.1,1.8-4.2,4.2-6.5,7.2c-2.3,3-4.8,6.6-7.5,10.9v69.5c0,0.6-0.2,1.2-0.5,1.6 c-0.3,0.4-0.8,0.8-1.5,1.1c-0.7,0.3-1.7,0.5-2.9,0.7c-1.3,0.2-2.9,0.2-4.8,0.2c-1.9,0-3.4-0.1-4.7-0.2c-1.3-0.2-2.3-0.4-3-0.7 c-0.7-0.3-1.3-0.7-1.5-1.1c-0.3-0.4-0.4-1-0.4-1.6V630.9c0-0.6,0.1-1.2,0.4-1.6c0.2-0.4,0.7-0.8,1.4-1.2c0.7-0.4,1.6-0.6,2.7-0.7 c1.1-0.1,2.5-0.2,4.3-0.2c1.7,0,3.2,0.1,4.3,0.2c1.1,0.1,2,0.4,2.6,0.7c0.6,0.4,1.1,0.7,1.3,1.2c0.3,0.4,0.4,1,0.4,1.6v15.4 c2.9-4.2,5.6-7.7,8.2-10.3c2.5-2.7,4.9-4.8,7.2-6.3c2.3-1.5,4.5-2.6,6.7-3.2c2.2-0.6,4.5-0.9,6.8-0.9c1,0,2.2,0.1,3.5,0.2 c1.3,0.1,2.6,0.3,4.1,0.6c1.4,0.3,2.7,0.7,3.8,1.1c1.1,0.4,1.9,0.8,2.4,1.2c0.5,0.4,0.8,0.8,0.9,1.1c0.2,0.3,0.3,0.8,0.4,1.3 c0.1,0.6,0.2,1.3,0.2,2.4C1190.7,634.6,1190.7,636,1190.7,637.8L1190.7,637.8z"></path> <path class="st0" d="M1362.7,632.1c0,7.6-1.3,14.4-3.8,20.5c-2.5,6.1-6.1,11.3-10.7,15.6c-4.7,4.3-10.4,7.6-17.1,10 c-6.8,2.3-14.9,3.5-24.2,3.5h-17.3v54.7c0,0.6-0.2,1.2-0.5,1.6c-0.4,0.5-0.9,0.8-1.6,1.1c-0.7,0.3-1.8,0.5-3.1,0.7 c-1.3,0.2-2.9,0.3-4.9,0.3c-2,0-3.6-0.1-4.9-0.3c-1.3-0.2-2.3-0.4-3.1-0.7c-0.8-0.3-1.3-0.6-1.6-1.1c-0.3-0.5-0.5-1-0.5-1.6V596.3 c0-3.1,0.8-5.4,2.5-6.7c1.6-1.3,3.5-2,5.5-2h32.5c3.3,0,6.4,0.1,9.5,0.4c3,0.3,6.6,0.9,10.7,1.8c4.1,0.9,8.3,2.6,12.6,5.1 c4.3,2.5,7.9,5.5,10.9,9.1c3,3.6,5.3,7.8,6.9,12.5C1361.9,621.1,1362.7,626.4,1362.7,632.1L1362.7,632.1z M1341.4,633.7 c0-6.2-1.1-11.3-3.5-15.5c-2.3-4.1-5.2-7.2-8.6-9.3c-3.4-2-6.9-3.3-10.6-3.9c-3.6-0.5-7.2-0.8-10.6-0.8h-18.7v60.9h18.2 c6.1,0,11.2-0.8,15.2-2.3c4-1.6,7.4-3.7,10.2-6.5c2.7-2.8,4.8-6.1,6.2-10C1340.7,642.5,1341.4,638.2,1341.4,633.7L1341.4,633.7z"></path> <path class="st0" d="M1453.1,637.8c0,1.7,0,3.2-0.1,4.3c-0.1,1.2-0.2,2.1-0.5,2.8c-0.2,0.7-0.5,1.2-0.9,1.5 c-0.4,0.4-0.8,0.5-1.5,0.5c-0.6,0-1.4-0.2-2.3-0.5c-0.9-0.4-1.9-0.7-3.1-1.1c-1.1-0.3-2.4-0.7-3.8-1c-1.4-0.3-2.9-0.5-4.6-0.5 c-2,0-3.9,0.4-5.8,1.2c-1.9,0.8-3.9,2.1-5.9,3.9c-2.1,1.8-4.2,4.2-6.5,7.2c-2.3,3-4.8,6.6-7.5,10.9v69.5c0,0.6-0.2,1.2-0.5,1.6 c-0.3,0.4-0.8,0.8-1.5,1.1c-0.7,0.3-1.7,0.5-2.9,0.7c-1.3,0.2-2.9,0.2-4.8,0.2c-1.9,0-3.4-0.1-4.7-0.2c-1.3-0.2-2.2-0.4-3-0.7 c-0.7-0.3-1.3-0.7-1.5-1.1c-0.3-0.4-0.4-1-0.4-1.6V630.9c0-0.6,0.1-1.2,0.4-1.6c0.2-0.4,0.7-0.8,1.4-1.2c0.7-0.4,1.6-0.6,2.7-0.7 c1.1-0.1,2.5-0.2,4.3-0.2c1.7,0,3.1,0.1,4.3,0.2c1.1,0.1,2,0.4,2.6,0.7c0.6,0.4,1.1,0.7,1.4,1.2c0.3,0.4,0.4,1,0.4,1.6v15.4 c2.9-4.2,5.6-7.7,8.2-10.3c2.5-2.7,5-4.8,7.2-6.3c2.3-1.5,4.5-2.6,6.8-3.2c2.2-0.6,4.5-0.9,6.7-0.9c1,0,2.2,0.1,3.5,0.2 c1.3,0.1,2.6,0.3,4.1,0.6c1.4,0.3,2.7,0.7,3.8,1.1c1.1,0.4,1.9,0.8,2.4,1.2c0.5,0.4,0.8,0.8,0.9,1.1c0.2,0.3,0.3,0.8,0.4,1.3 c0.1,0.6,0.2,1.3,0.2,2.4C1453.1,634.6,1453.1,636,1453.1,637.8L1453.1,637.8z"></path> <path class="st0" d="M1569.5,682.5c0,8.6-1.1,16.5-3.4,23.8c-2.3,7.2-5.7,13.5-10.2,18.7c-4.5,5.2-10.1,9.3-16.9,12.3 c-6.8,2.9-14.6,4.4-23.5,4.4c-8.7,0-16.3-1.3-22.7-3.9c-6.5-2.6-11.8-6.3-16.1-11.3c-4.3-4.9-7.5-10.9-9.6-18 c-2.1-7-3.2-15-3.2-23.9c0-8.6,1.1-16.5,3.3-23.8c2.2-7.2,5.6-13.5,10.1-18.7c4.5-5.2,10.1-9.3,16.8-12.2 c6.7-2.9,14.6-4.3,23.6-4.3c8.7,0,16.3,1.3,22.7,3.9c6.5,2.6,11.8,6.3,16.1,11.3c4.3,4.9,7.5,10.9,9.7,18 C1568.5,665.8,1569.5,673.7,1569.5,682.5L1569.5,682.5z M1549.5,683.8c0-5.7-0.5-11.1-1.6-16.2c-1.1-5.1-2.8-9.5-5.3-13.4 c-2.4-3.8-5.8-6.9-9.9-9.1c-4.2-2.2-9.4-3.3-15.6-3.3c-5.8,0-10.7,1-14.9,3.1c-4.1,2-7.6,4.9-10.2,8.6c-2.7,3.7-4.7,8.1-6,13.2 c-1.3,5.1-2,10.6-2,16.7c0,5.8,0.5,11.2,1.6,16.3c1.1,5.1,2.8,9.5,5.3,13.3c2.5,3.8,5.8,6.8,10,9c4.2,2.2,9.4,3.3,15.6,3.3 c5.7,0,10.6-1,14.8-3c4.2-2,7.6-4.9,10.3-8.6c2.7-3.7,4.7-8.1,5.9-13.1C1548.8,695.5,1549.5,689.9,1549.5,683.8L1549.5,683.8z"></path> <path class="st0" d="M1688.6,736.5c0,0.6-0.1,1.2-0.4,1.6c-0.3,0.5-0.7,0.8-1.4,1.1c-0.7,0.3-1.5,0.5-2.6,0.6 c-1.1,0.2-2.4,0.2-4,0.2c-1.6,0-3-0.1-4.1-0.2c-1.1-0.2-2-0.4-2.7-0.6c-0.7-0.3-1.2-0.7-1.5-1.1c-0.3-0.5-0.5-1-0.5-1.6v-14 c-5.6,6-11.3,10.7-17.3,14.1c-6,3.4-12.5,5-19.7,5c-7.8,0-14.4-1.5-19.8-4.5c-5.5-3-9.9-7.1-13.3-12.2c-3.4-5.1-5.9-11.2-7.5-18.1 c-1.6-6.9-2.3-14.2-2.3-21.9c0-9.1,1-17.3,2.9-24.6c2-7.3,4.9-13.6,8.7-18.7c3.8-5.2,8.6-9.1,14.3-11.9c5.7-2.8,12.2-4.2,19.7-4.2 c6.2,0,11.8,1.4,17,4c5.1,2.7,10.2,6.7,15.2,11.9v-61.4c0-0.5,0.1-1.1,0.4-1.6c0.3-0.5,0.8-0.9,1.6-1.2c0.8-0.3,1.8-0.5,3-0.7 c1.2-0.2,2.8-0.3,4.6-0.3c2,0,3.6,0.1,4.8,0.3c1.3,0.2,2.2,0.4,2.9,0.7c0.7,0.3,1.2,0.7,1.6,1.2c0.4,0.5,0.5,1,0.5,1.6V736.5 L1688.6,736.5z M1669.1,662.2c-5.2-6.5-10.3-11.4-15.2-14.8c-4.9-3.4-10-5.1-15.3-5.1c-4.9,0-9.1,1.2-12.6,3.5 c-3.4,2.3-6.2,5.4-8.4,9.3c-2.2,3.8-3.7,8.2-4.7,13c-1,4.9-1.5,9.8-1.5,14.8c0,5.3,0.4,10.5,1.2,15.6c0.8,5.1,2.2,9.6,4.3,13.6 c2,4,4.7,7.1,8.1,9.5c3.4,2.4,7.6,3.6,12.7,3.6c2.6,0,5.1-0.4,7.5-1.1c2.4-0.7,4.8-1.9,7.3-3.5c2.5-1.6,5.1-3.8,7.9-6.4 c2.7-2.6,5.6-5.8,8.7-9.7V662.2L1669.1,662.2z"></path> <path class="st0" d="M1814.9,736.5c0,0.6-0.1,1.2-0.4,1.6c-0.3,0.4-0.8,0.8-1.5,1.1c-0.7,0.3-1.6,0.5-2.8,0.7 c-1.1,0.2-2.5,0.2-4.2,0.2c-1.8,0-3.3-0.1-4.4-0.2c-1.1-0.2-2-0.4-2.7-0.7c-0.7-0.3-1.1-0.7-1.4-1.1c-0.2-0.4-0.3-1-0.3-1.6v-14 c-6,6.7-12,11.5-17.8,14.6c-5.9,3.1-11.8,4.6-17.8,4.6c-7.1,0-13-1.2-17.8-3.5c-4.8-2.3-8.7-5.5-11.7-9.6c-3-4-5.1-8.7-6.4-14.1 c-1.3-5.4-1.9-11.9-1.9-19.6v-64.1c0-0.6,0.1-1.2,0.4-1.6c0.3-0.4,0.8-0.8,1.6-1.2c0.8-0.4,1.8-0.6,3.1-0.7 c1.3-0.1,2.8-0.2,4.7-0.2s3.4,0.1,4.7,0.2c1.3,0.1,2.2,0.4,3,0.7c0.7,0.4,1.3,0.7,1.6,1.2c0.3,0.4,0.5,1,0.5,1.6v61.5 c0,6.2,0.5,11.1,1.3,14.8c0.9,3.7,2.3,6.9,4.1,9.5c1.8,2.6,4.2,4.7,7,6.1c2.8,1.4,6.1,2.2,9.9,2.2c4.9,0,9.7-1.7,14.5-5.2 c4.8-3.4,9.9-8.5,15.3-15.1v-73.8c0-0.6,0.1-1.2,0.4-1.6c0.3-0.4,0.8-0.8,1.6-1.2c0.8-0.4,1.8-0.6,3-0.7c1.2-0.1,2.8-0.2,4.8-0.2 c1.9,0,3.4,0.1,4.7,0.2c1.3,0.1,2.2,0.4,2.9,0.7c0.7,0.4,1.2,0.7,1.6,1.2c0.3,0.4,0.5,1,0.5,1.6V736.5L1814.9,736.5z"></path> <path class="st0" d="M1926.6,720.5c0,1.3-0.1,2.5-0.1,3.5c-0.1,1-0.2,1.8-0.4,2.5c-0.2,0.7-0.4,1.3-0.7,1.8 c-0.3,0.5-0.9,1.3-1.9,2.2c-1,1-2.6,2.2-5,3.6c-2.3,1.4-5,2.7-7.9,3.9c-2.9,1.1-6.1,2.1-9.6,2.8c-3.5,0.7-7,1.1-10.7,1.1 c-7.6,0-14.3-1.3-20.2-3.8c-5.9-2.5-10.8-6.2-14.7-11c-3.9-4.8-7-10.7-9-17.7c-2.1-7-3.1-15.1-3.1-24.2c0-10.4,1.3-19.4,3.8-26.8 c2.5-7.5,6-13.6,10.5-18.4c4.4-4.8,9.6-8.3,15.6-10.6c6-2.3,12.5-3.5,19.4-3.5c3.4,0,6.6,0.3,9.8,0.9c3.2,0.6,6.1,1.4,8.7,2.5 c2.7,1,5,2.2,7.1,3.5c2.1,1.3,3.6,2.5,4.5,3.4c0.9,0.9,1.6,1.7,1.9,2.2c0.4,0.5,0.7,1.2,0.9,1.9c0.2,0.7,0.4,1.6,0.5,2.5 c0.1,0.9,0.1,2.1,0.1,3.5c0,3.1-0.3,5.2-1.1,6.4c-0.7,1.2-1.6,1.8-2.6,1.8c-1.2,0-2.5-0.6-4-1.9c-1.5-1.3-3.5-2.7-5.8-4.3 c-2.3-1.6-5.2-3-8.5-4.3c-3.3-1.3-7.2-1.9-11.8-1.9c-9.3,0-16.5,3.6-21.4,10.7c-5,7.2-7.4,17.5-7.4,31.2c0,6.8,0.6,12.8,1.9,17.9 c1.3,5.1,3.2,9.4,5.7,12.9c2.5,3.4,5.6,6,9.2,7.7c3.6,1.7,7.8,2.5,12.5,2.5c4.5,0,8.4-0.7,11.7-2.1c3.4-1.4,6.3-3,8.7-4.6 c2.5-1.7,4.5-3.2,6.2-4.6c1.7-1.4,3-2.1,3.9-2.1c0.5,0,1,0.2,1.4,0.5c0.4,0.3,0.7,0.8,1,1.6c0.3,0.7,0.5,1.7,0.6,2.8 S1926.6,718.9,1926.6,720.5L1926.6,720.5z"></path> <path class="st0" d="M2044.3,627.8c2.3,0,4,0.5,4.8,1.6c0.9,1.1,1.3,2.6,1.3,4.6v102.5c0,0.6-0.2,1.2-0.5,1.6 c-0.3,0.4-0.8,0.8-1.6,1.1c-0.7,0.3-1.7,0.5-3,0.7c-1.2,0.2-2.8,0.2-4.6,0.2c-1.9,0-3.6-0.1-4.8-0.2c-1.3-0.2-2.3-0.4-3-0.7 c-0.7-0.3-1.3-0.7-1.6-1.1c-0.3-0.4-0.5-1-0.5-1.6v-92.6h-54.6v58.9c0,7.3,1.1,12.8,3.2,16.5c2.1,3.7,6,5.6,11.6,5.6 c1.8,0,3.4-0.2,4.8-0.5c1.4-0.4,2.7-0.7,3.8-1.1c1.1-0.4,2-0.8,2.8-1.1c0.8-0.4,1.5-0.5,2.1-0.5c0.4,0,0.8,0.1,1.1,0.3 c0.3,0.2,0.6,0.6,0.8,1.1c0.2,0.6,0.4,1.3,0.5,2.2c0.2,0.9,0.2,2.1,0.2,3.5c0,2.3-0.2,4.1-0.5,5.3c-0.3,1.3-0.8,2.3-1.4,2.9 c-0.6,0.7-1.6,1.3-2.8,1.8c-1.3,0.5-2.7,1-4.3,1.3c-1.6,0.3-3.3,0.6-5.1,0.9c-1.8,0.2-3.6,0.3-5.4,0.3c-5.5,0-10.2-0.7-14.1-2.2 c-3.9-1.5-7.1-3.6-9.6-6.6c-2.5-2.9-4.3-6.7-5.5-11.2c-1.1-4.5-1.7-9.8-1.7-15.9v-61.7h-14.8c-1.2,0-2.1-0.6-2.8-1.9 c-0.7-1.3-1.1-3.3-1.1-6.1c0-1.5,0.1-2.7,0.3-3.8c0.2-1,0.5-1.9,0.8-2.5c0.3-0.7,0.7-1.1,1.2-1.4c0.5-0.3,1.1-0.4,1.7-0.4h14.7 v-25.1c0-0.5,0.1-1.1,0.4-1.5c0.3-0.5,0.8-0.9,1.5-1.2c0.7-0.4,1.7-0.6,3-0.8c1.3-0.2,2.8-0.2,4.7-0.2c2,0,3.6,0.1,4.8,0.2 c1.2,0.2,2.2,0.4,2.9,0.8c0.7,0.3,1.2,0.8,1.5,1.2c0.3,0.5,0.5,1,0.5,1.5v25.1H2044.3L2044.3,627.8z M2052.6,595.2 c0,4.5-0.9,7.6-2.6,9.3c-1.7,1.6-4.9,2.5-9.5,2.5c-4.5,0-7.6-0.8-9.3-2.4c-1.7-1.6-2.5-4.6-2.5-9.1c0-4.5,0.9-7.6,2.6-9.3 c1.7-1.6,4.9-2.5,9.5-2.5c4.5,0,7.6,0.8,9.3,2.4C2051.8,587.7,2052.6,590.7,2052.6,595.2L2052.6,595.2z"></path> <path class="st0" d="M2184.5,682.5c0,8.6-1.1,16.5-3.4,23.8c-2.3,7.2-5.7,13.5-10.2,18.7c-4.5,5.2-10.1,9.3-16.9,12.3 c-6.8,2.9-14.6,4.4-23.5,4.4c-8.7,0-16.3-1.3-22.7-3.9c-6.5-2.6-11.8-6.3-16.2-11.3c-4.3-4.9-7.5-10.9-9.6-18 c-2.1-7-3.2-15-3.2-23.9c0-8.6,1.1-16.5,3.4-23.8c2.2-7.2,5.6-13.5,10.1-18.7c4.5-5.2,10.1-9.3,16.8-12.2 c6.7-2.9,14.6-4.3,23.6-4.3c8.7,0,16.3,1.3,22.7,3.9c6.4,2.6,11.8,6.3,16.1,11.3c4.3,4.9,7.5,10.9,9.7,18 C2183.5,665.8,2184.5,673.7,2184.5,682.5L2184.5,682.5z M2164.5,683.8c0-5.7-0.5-11.1-1.6-16.2c-1.1-5.1-2.8-9.5-5.3-13.4 c-2.4-3.8-5.8-6.9-9.9-9.1c-4.2-2.2-9.4-3.3-15.6-3.3c-5.8,0-10.7,1-14.9,3.1c-4.2,2-7.6,4.9-10.2,8.6c-2.7,3.7-4.7,8.1-6,13.2 c-1.3,5.1-1.9,10.6-1.9,16.7c0,5.8,0.5,11.2,1.6,16.3c1.1,5.1,2.8,9.5,5.3,13.3c2.5,3.8,5.8,6.8,10,9c4.2,2.2,9.4,3.3,15.6,3.3 c5.7,0,10.6-1,14.8-3c4.2-2,7.6-4.9,10.3-8.6c2.7-3.7,4.7-8.1,5.9-13.1C2163.8,695.5,2164.5,689.9,2164.5,683.8L2164.5,683.8z"></path> <path class="st0" d="M2304,736.5c0,0.6-0.1,1.2-0.5,1.6c-0.3,0.4-0.8,0.8-1.5,1.1c-0.7,0.3-1.7,0.5-2.9,0.7 c-1.3,0.2-2.8,0.2-4.7,0.2c-2,0-3.6-0.1-4.8-0.2c-1.2-0.2-2.2-0.4-2.9-0.7c-0.7-0.3-1.2-0.7-1.5-1.1c-0.3-0.4-0.5-1-0.5-1.6v-61.9 c0-6-0.5-10.9-1.4-14.6c-0.9-3.7-2.3-6.8-4.1-9.5c-1.8-2.7-4.1-4.7-7-6.1c-2.9-1.4-6.2-2.1-9.9-2.1c-4.9,0-9.7,1.7-14.6,5.2 c-4.8,3.4-9.9,8.5-15.2,15.1v73.8c0,0.6-0.2,1.2-0.5,1.6c-0.3,0.4-0.8,0.8-1.5,1.1c-0.7,0.3-1.7,0.5-2.9,0.7s-2.9,0.2-4.8,0.2 c-1.9,0-3.4-0.1-4.7-0.2c-1.3-0.2-2.3-0.4-3-0.7c-0.7-0.3-1.2-0.7-1.5-1.1c-0.3-0.4-0.4-1-0.4-1.6V630.9c0-0.6,0.1-1.2,0.3-1.6 c0.2-0.4,0.7-0.8,1.4-1.2c0.7-0.4,1.6-0.6,2.7-0.7c1.1-0.1,2.5-0.2,4.3-0.2c1.7,0,3.2,0.1,4.3,0.2c1.1,0.1,2,0.4,2.6,0.7 c0.6,0.4,1.1,0.7,1.3,1.2c0.3,0.4,0.4,1,0.4,1.6v14c5.9-6.7,11.9-11.5,17.8-14.6c5.9-3.1,11.9-4.6,17.9-4.6c7,0,13,1.2,17.8,3.6 c4.8,2.4,8.7,5.6,11.7,9.6c3,4,5.1,8.7,6.4,14c1.3,5.4,1.9,11.8,1.9,19.3V736.5L2304,736.5z"></path> <path class="st0" d="M906.2,0l137.2,0c0,0-9.1,39.1,13.9,79.2c23.5,41,166.3,154.8,150,266.7c-24,164.6-161.4,158.6-161.4,158.6 H876.7V388h112.2c0,0,77.9-0.2,77.9-56.7c0-55.6-84.6-128.3-119.7-171.9c-32-39.8-50.8-73.2-48.2-111.8C900.9,17.1,906.2,0,906.2,0 L906.2,0z"></path> <path class="st0" d="M1246.8,196.7h132.5l1.5,137.7c0,0-4.2,48.7,53,48.7c50.8,0,89.8-0.3,89.8-0.3v121.7h-153.1 c0,0-121.8-8.6-123.1-146C1246.4,254.5,1246.8,196.7,1246.8,196.7L1246.8,196.7z"></path> <path class="st0" d="M2303.2,0h-96c-109.4,0-233,83.8-233,252.2c0,195.3,147.5,252.2,233,252.2c48.7,0,63.7,0,96,0V383.9 c-93,0-190.1-20.5-190.1-131.7c0-109.4,85.9-130.6,190.1-130.6V0L2303.2,0z"></path> </g> </svg> 