<?xml version="1.0" encoding="UTF-8"?>
<svg xmlns="http://www.w3.org/2000/svg" version="1.1" viewBox="0 0 325 59">
  <defs>
    <style>
      .cls-1 {
        fill: #00aeef;
      }

      .cls-2 {
        fill: #006e9a;
      }
    </style>
  </defs>
  <!-- Generator: Adobe Illustrator 28.6.0, SVG Export Plug-In . SVG Version: 1.2.0 Build 709)  -->
  <g>
    <g id="Layer_1">
      <g>
        <path class="cls-2" d="M18,58.5c-1.8-.9-3.5-2.2-4.8-3.8-1.4-1.6-2.5-3.5-3.2-5.7-.8-2.1-1.2-4.5-1.2-6.9,0-14.6,12.2-22.5,10.9-37.3,0-.9-.2-1.7-.4-2.4-.3-.8-.6-1.5-1.1-2,1.8.9,3.5,2.2,4.8,3.8,1.4,1.6,2.5,3.5,3.2,5.6.7,2.1,1.2,4.5,1.2,6.9,0,12.6-11.5,21.9-11.5,35.4s.2,2.4.6,3.5c.5,1,1,2,1.6,2.8"/>
        <polygon class="cls-1" points="61.9 43.6 61.9 30.1 49.3 30.1 49.3 43.6 44 43.6 44 13 49.3 13 49.3 25.8 61.9 25.8 61.9 13 67.2 13 67.2 43.6 61.9 43.6"/>
        <path class="cls-1" d="M75.4,34.4c.3,4.5,2.6,5.6,6.2,5.6s6-.3,8.3-.6l.4,3.8c-2.6.4-5.7.9-10.1.9-7.9,0-9.9-5.1-9.9-12s2.6-12,10.4-12,10.2,4.4,10.2,11.4,0,1.1,0,1.7c-2.6.5-8.3,1-11.6,1.2l-4,.2ZM79.9,30.8c1.7,0,4.4-.3,6.1-.5,0-.3,0-.7,0-1.1,0-3.6-1.3-5.6-5.2-5.6s-5.7,3.1-5.7,7.3h4.7Z"/>
        <path class="cls-1" d="M93.6,36.7c0-4.1,1.8-6.7,6.3-7.3,2.6-.4,5.4-.5,8.3-.6,0-3.2-1.5-4.8-5-4.8s-5.7.3-8.1.6l-.4-3.7c2.6-.4,5.6-.9,9.1-.9,5.1,0,9.4,1.3,9.4,7.3v10.3c0,1.5,0,2.9-.2,4.3-2.6,1.5-6.1,2-10.5,2-6.5,0-8.9-2.5-8.9-7.3M108.1,32c-2,0-4.4,0-6.4.6-2.4.6-3.4,1.3-3.4,4s1.6,3.7,4.6,3.7,3.4,0,4.8-.7c0-.9.2-2,.2-3.2v-4.4h0Z"/>
        <path class="cls-1" d="M117.1,11.2h5v26.2c0,2.2.5,3.7,1.7,5.3l-4.4,2c-1.6-1.7-2.4-3.8-2.4-7.1V11.2h0Z"/>
        <path class="cls-1" d="M139.9,43.6c-1.1.2-2.5.3-3.5.3-4.8,0-6.7-2-6.7-6.4v-13.7h-3.9v-3.7h3.9v-5.8l5-.9v6.6h4.8v3.7h-4.8v13.2c0,2.2.9,3,3.2,3s1.2,0,1.8,0l.2,3.6Z"/>
        <path class="cls-1" d="M163.5,43.6h-5v-14.5c0-3.8-.7-5.3-5.6-5.3s-3.2.3-4.4.9v18.8h-5V11.2h5v9.6c1.7-.5,3.7-.9,5.8-.9,8.3,0,9.1,3.8,9.1,8.7v15h.1Z"/>
        <path class="cls-2" d="M188.6,17.5c-1.9-.3-3.9-.5-6.1-.5-8.2,0-8.3,4.8-8.3,11.2s0,11.2,8.3,11.2,4.1-.2,6.1-.5l.5,4.1c-1.9.5-4.7.9-7.7.9-10.1,0-12.6-4.8-12.6-15.6s2.5-15.6,12.6-15.6,5.7.3,7.7.9l-.5,4.1Z"/>
        <path class="cls-2" d="M192.3,36.7c0-4.1,1.8-6.7,6.3-7.3,2.6-.4,5.4-.5,8.3-.6,0-3.2-1.5-4.8-5-4.8s-5.7.3-8.1.6l-.4-3.7c2.6-.4,5.6-.9,9.1-.9,5.1,0,9.4,1.3,9.4,7.3v10.3c0,1.5,0,2.9-.2,4.3-2.6,1.5-6.1,2-10.5,2-6.4,0-8.9-2.5-8.9-7.3M206.9,32c-2,0-4.4,0-6.4.6-2.4.6-3.4,1.3-3.4,4s1.6,3.7,4.6,3.7,3.4,0,4.8-.7c0-.9.2-2,.2-3.2v-4.4h0Z"/>
        <path class="cls-2" d="M228.4,43.6c-1.1.2-2.5.3-3.5.3-4.8,0-6.7-2-6.7-6.4v-13.7h-3.9v-3.7h3.9v-5.8l5-.9v6.6h4.8v3.7h-5v13.2c0,2.2.9,3,3.2,3s1.2,0,1.8,0l.3,3.6Z"/>
        <path class="cls-2" d="M232,36.7c0-4.1,1.8-6.7,6.3-7.3,2.6-.4,5.4-.5,8.3-.6,0-3.2-1.5-4.8-5-4.8s-5.7.3-8.1.6l-.4-3.7c2.6-.4,5.6-.9,9.1-.9,5.1,0,9.4,1.3,9.4,7.3v10.3c0,1.5,0,2.9-.2,4.3-2.6,1.5-6,2-10.5,2-6.4,0-8.9-2.5-8.9-7.3M246.6,32c-2,0-4.4,0-6.4.6-2.4.6-3.4,1.3-3.4,4s1.6,3.7,4.6,3.7,3.4,0,4.8-.7c0-.9.2-2,.2-3.2v-4.4h0Z"/>
        <path class="cls-2" d="M254.6,11.2h5v26.2c0,2.2.5,3.7,1.7,5.3l-4.4,2c-1.5-1.7-2.4-3.8-2.4-7.1V11.2h0Z"/>
        <polygon class="cls-2" points="274.9 35.8 279.8 20.2 284.9 20.2 274.1 52.2 269 52.2 272.6 42.1 263.2 20.2 268.4 20.2 274.9 35.8"/>
        <path class="cls-2" d="M297.5,37.2c0-2.6-2.4-2.9-4.6-3.6-3.8-1.1-7.3-2.2-7.3-7.2s3.6-6.6,8.3-6.6,5.6.3,8.3.9l-.5,3.7c-1.8-.3-3.8-.6-5.8-.6s-5.3,0-5.3,2.4,2.8,2.9,4.8,3.6c4,1.3,7.3,2.2,7.3,7.3s-4,6.9-9.1,6.9-5.6-.3-8.1-.9l.5-3.8c1.8.3,4.4.7,6.2.7,2,0,5.5,0,5.5-2.8"/>
        <path class="cls-2" d="M319.6,43.6c-1.1.2-2.5.3-3.5.3-4.8,0-6.7-2-6.7-6.4v-13.7h-3.9v-3.7h3.9v-5.8l5-.9v6.6h4.8v3.7h-4.8v13.2c0,2.2.9,3,3.2,3s1.2,0,1.8,0l.2,3.6Z"/>
        <path class="cls-1" d="M29,57.7c-1.2-.6-2.3-1.5-3.2-2.6-.9-1.1-1.7-2.4-2.2-3.8s-.8-3-.8-4.7c0-9.8,9-15.4,7.6-28,1.7,1.5,3.2,4.3,4,6.4.5,1.5.8,3,.8,4.7,0,8.4-7.7,14.6-7.7,23.8s.1,1.6.4,2.3c.3.8.7,1.4,1.2,1.9"/>
        <path class="cls-1" d="M6.4,41c-1.2-.6-2.3-1.5-3.2-2.5-.9-1.1-1.7-2.4-2.2-3.8s-.8-3-.8-4.7C.2,20.2,9.2,14.6,7.8,2c1.7,1.5,3.2,4.3,4,6.4.5,1.5.8,3,.8,4.6,0,8.4-7.7,14.6-7.7,23.8s.1,1.6.4,2.3c.3.8.7,1.4,1.1,1.9"/>
      </g>
      <path class="cls-2" d="M324.2,13.6c0,1.3-1,2.3-2.3,2.3s-2.4-1-2.4-2.3,1-2.3,2.4-2.3c1.3,0,2.3,1,2.3,2.3ZM320.1,13.6c0,1,.8,1.8,1.8,1.8s1.7-.8,1.7-1.8-.7-1.8-1.8-1.8c-1,0-1.8.8-1.8,1.8ZM321.5,14.8h-.5v-2.3c.2,0,.5,0,.9,0s.6,0,.8.2c.1.1.2.3.2.5s-.2.4-.5.5h0c.2.1.4.3.4.6,0,.3.1.5.2.6h-.6c0,0-.1-.3-.2-.6,0-.2-.2-.4-.5-.4h-.2v.9h0ZM321.5,13.5h.2c.3,0,.5-.1.5-.3s-.1-.4-.5-.4-.2,0-.3,0v.6Z"/>
    </g>
  </g>
</svg>