<svg xmlns="http://www.w3.org/2000/svg" viewBox="0 0 100 73">
    <g fill="none" fill-rule="evenodd">
        <g class="claim" fill="#000" fill-rule="nonzero" transform="translate(1.4572 62.4528)">
            <path d="m0 0h3.18c1.17306667 0 2.067.32506667 2.6818.9752s.9222 1.58293333.9222 2.7984c0 1.19426667-.29326667 2.12176667-.8798 2.7825s-1.44513333.9911-2.5758.9911h-3.3284zm1.9822 5.883h1.007c1.2084 0 1.8126-.70313333 1.8126-2.1094 0-.72786667-.1537-1.2667-.4611-1.6165s-.79323333-.5247-1.4575-.5247h-.901z">
            </path>
            <path d="m11.2900095 1.8868c.1766667 0 .3498.02473333.5194.0742v1.6112c-.1342666-.0212-.2685333-.0318-.4028-.0318-.954 0-1.43099998.4876-1.43099998 1.4628v2.544h-1.8232v-5.4696h1.7278l.0212.7844c.28973338-.65013333.75259998-.9752 1.38859998-.9752z">
            </path>
            <path d="m14.852619 1.378h-1.8232v-1.378h1.8232zm0 6.1692h-1.8232v-5.4696h1.8232z"></path>
            <path d="m19.3374286 3.6252.477-1.5476h1.8232l-1.8232 5.4696h-2.0034l-1.8656-5.4696h1.9186l.4452 1.5476.5194 2.1518z">
            </path>
            <path d="m24.5536381 1.378h-1.8232v-1.378h1.8232zm0 6.1692h-1.8232v-5.4696h1.8232z"></path>
            <path d="m29.5260476 1.9292c.6077334 0 1.0829667.1749 1.4257.5247.3427334.3498.5141.83916667.5141 1.4681v3.6252h-1.8232v-3.2012c0-.2756-.0653666-.48936667-.1961-.6413-.1307333-.15193333-.3162333-.2279-.5565-.2279-.2826666 0-.5105666.106-.6837.318-.1731333.212-.2597.49113333-.2597.8374v2.915h-1.8232v-5.4696h1.7172l.053.7314c.3745334-.58653333.9186667-.8798 1.6324-.8798z">
            </path>
            <path d="m36.7244571 2.6818.0636-.6042h1.6642v5.3212c0 .77026667-.2508666 1.36916667-.7526 1.7967-.5017333.42753333-1.2084.6413-2.12.6413-1.5758666 0-2.4627333-.6042-2.6606-1.8126l1.7172-.0848c.1201334.39573333.4452.5936.9752.5936.3604 0 .6201-.07773333.7791-.2332s.2385-.39573333.2385-.7208v-.7314c-.3745333.43813333-.8833333.6572-1.5264.6572-.6996 0-1.2649333-.25793333-1.696-.7738-.4310666-.50173333-.6466-1.18366667-.6466-2.0458s.2190667-1.54406667.6572-2.0458c.4310667-.4876.9858-.7314 1.6642-.7314.6854667 0 1.2331334.25793333 1.643.7738zm-1.1236 3.3602c.3250667 0 .5847667-.12543333.7791-.3763.1943334-.25086667.2915-.58476667.2915-1.0017 0-.40986667-.0971666-.74023333-.2915-.9911-.1943333-.25086667-.4540333-.3763-.7791-.3763-.318 0-.5671.11836667-.7473.3551s-.2703.57416667-.2703 1.0123.0901.77733333.2703 1.0176.4293.3604.7473.3604z">
            </path>
            <path d="m46.3406762 3.2648-1.007-.0318v2.3532c0 .37453333.1731333.5618.5194.5618h.4876v1.3992h-1.113c-.636 0-1.0812-.12896667-1.3356-.3869s-.3816-.7049-.3816-1.3409v-2.5758l-.795.0212v-1.1872l.795.0212v-1.6854h1.8232v1.696l1.007-.0318z">
            </path>
            <path d="m51.0480857 1.9292c.6077333 0 1.0829667.1749 1.4257.5247s.5141.83916667.5141 1.4681v3.6252h-1.8232v-3.2012c0-.2756-.0653667-.48936667-.1961-.6413s-.3162333-.2279-.5565-.2279c-.2826667 0-.5105667.106-.6837.318s-.2597.49113333-.2597.8374v2.915h-1.8232v-7.5472h1.8232v2.7242c.3604-.53.8868667-.795 1.5794-.795z">
            </path>
            <path d="m60.0802952 5.0244v.2756h-3.9856c.0918667.74906667.4734667 1.1236 1.1448 1.1236.4664 0 .7844-.19433333.954-.583l1.749.1166c-.1908.5724-.5176333 1.01406667-.9805 1.325-.4628666.31093333-1.0335.4664-1.7119.4664-.9186666 0-1.643-.27206667-2.173-.8162s-.795-1.2508-.795-2.12c0-.86213333.265-1.56173333.795-2.0988.5158667-.53706667 1.2084-.8056 2.0776-.8056.9116 0 1.6288667.29326667 2.1518.8798.5158667.57946667.7738 1.325.7738 2.2366zm-3.975-.8162h2.1094c-.0848-.67133333-.4310666-1.007-1.0388-1.007-.6077333 0-.9646.33566667-1.0706 1.007z">
            </path>
            <path d="m70.2159143 4.4732.636-2.3956h1.802l-1.7172 5.4696h-1.749l-.7526-2.8408-.106-.5088-.106.5194-.7526 2.8302h-1.749l-1.7172-5.4696h1.8656l.6466 2.4062.2014 1.007.2014-1.007.5936-2.4062h1.6112l.6148 2.3744.2332 1.1236z">
            </path>
            <path d="m79.2693238 4.823c0 .86213333-.2720667 1.56526667-.8162 2.1094s-1.2508.8162-2.12.8162-1.5758667-.27206667-2.12-.8162-.8162-1.24726667-.8162-2.1094c0-.85506667.2720667-1.55466667.8162-2.0988s1.2508-.8162 2.12-.8162 1.5758667.27206667 2.12.8162.8162 1.24373333.8162 2.0988zm-3.763 1.1766c.1908.2756.4664.4134.8268.4134.3533333 0 .6324667-.1378.8374-.4134.1908-.26853333.2862-.66073333.2862-1.1766 0-.5088-.0971667-.89923333-.2915-1.1713s-.4717-.4081-.8321-.4081-.636.13603333-.8268.4081-.2862.6625-.2862 1.1713c0 .51586667.0954.90806667.2862 1.1766z">
            </path>
            <path d="m83.6905333 1.8868c.1766667 0 .3498.02473333.5194.0742v1.6112c-.1342666-.0212-.2685333-.0318-.4028-.0318-.954 0-1.431.4876-1.431 1.4628v2.544h-1.8232v-5.4696h1.7278l.0212.7844c.2897334-.65013333.7526-.9752 1.3886-.9752z">
            </path>
            <path d="m87.2531429 7.5472h-1.8232v-7.5472h1.8232z"></path>
            <path d="m92.4163524 2.597v-2.597h1.8232v7.5472h-1.6642l-.053-.6254c-.3816.5512-.9222.8268-1.6218.8268-.7066667 0-1.2755334-.26853333-1.7066-.8056-.4310667-.52293333-.6466-1.23666667-.6466-2.1412 0-.89746667.2155333-1.60413333.6466-2.12.424-.51586667.9646-.7738 1.6218-.7738.6642666 0 1.1978.22966667 1.6006.689zm-1.0282 3.6146c.3250666 0 .5847666-.13073333.7791-.3922.1943333-.26146667.2915-.60773333.2915-1.0388s-.0971667-.77556667-.2915-1.0335c-.1943334-.25793333-.4540334-.3869-.7791-.3869-.318 0-.5671.12366667-.7473.371s-.2703.59713333-.2703 1.0494c0 .45933333.0901.81266667.2703 1.06s.4293.371.7473.371z">
            </path>
        </g>
        <g fill="#de0000">
            <path d="m1.55495695 34.1152257h7.81413157v3.2718413h-3.56013257v1.1440851h3.25216786v3.1136972h-3.25216786v1.1758653h3.68346978v3.272598h-7.93746878z">
            </path>
            <path d="m21.3887922 34.1152257v7.0847017c0 3.4958156-2.1269995 5.0848227-5.379924 5.0848227-3.2521679 0-5.3791674-1.5890071-5.3791674-5.0848227v-7.0847017h4.2237322v6.6715598c0 .9382709.0302668 1.7645546 1.1554352 1.7645546 1.125925 0 1.1561918-.8262837 1.1561918-1.7645546v-6.6715598z">
            </path>
            <path d="m26.8443832 39.4209961h.2928313c.6931098 0 1.3869762-.1112305 1.3869762-1.0010745 0-.9208674-.6318194-1.0328546-1.3567094-1.0328546h-.3230981zm-4.1306617-5.3057704h5.1014694c2.6203484 0 4.8396616 1.1433285 4.8396616 4.1616853 0 1.8114681-.6779763 2.5734348-2.2503367 3.1136972v.0953404c.215651.1755475 3.2370345 4.607364 3.2370345 4.607364h-4.8706851l-1.8493016-3.8438839h-.0771804v3.8438839h-4.1306617z">
            </path>
            <path d="m37.6768716 40.1996096c0 1.3665461.894384 2.3033036 2.1739131 2.3033036 1.2787723 0 2.1731563-.9367575 2.1731563-2.3033036 0-1.2712057-.832337-2.3358405-2.1731563-2.3358405-1.3408194 0-2.1739131 1.0646348-2.1739131 2.3358405zm8.6010684-.0635603c0 3.8446405-2.8821562 6.1487008-6.4271553 6.1487008-3.5457559 0-6.4279121-2.3040603-6.4279121-6.1487008 0-3.7659468 2.8980463-6.2122611 6.4279121-6.2122611 3.5298657 0 6.4271553 2.4463143 6.4271553 6.2122611z">
            </path>
            <path d="m51.4845866 42.5029132h.2625645c1.4028663 0 2.4818778-.6666263 2.4818778-2.2397434 0-1.6843475-.9405409-2.3994007-2.4818778-2.3994007h-.2625645zm-4.2229755-8.3876875h4.3009125c3.8991208 0 6.8894808 1.7630412 6.8894808 6.1630775 0 3.5601326-2.4357209 5.8150094-5.8422494 5.8150094h-5.3481439z">
            </path>
            <path d="m63.5678506 39.4209961h.2928313c.6931098 0 1.3869762-.1112305 1.3869762-1.0010745 0-.9208674-.6318195-1.0328546-1.3567094-1.0328546h-.3230981zm-4.1306618-5.3057704h5.1022261c2.6195917 0 4.838905 1.1433285 4.838905 4.1616853 0 1.8114681-.6772197 2.5734348-2.2503367 3.1136972v.0953404c.2164076.1755475 3.2370344 4.607364 3.2370344 4.607364h-4.8706851l-1.8493016-3.8438839h-.0771803v3.8438839h-4.1306618z">
            </path>
            <path d="m70.8734999 46.0933126h4.2237322v-11.9780869h-4.2237322z"></path>
            <path d="m88.2141074 34.1152257-4.5006735 11.9780869h-3.5760226l-4.5006735-11.9780869h4.4083597l1.5413369 5.448781c.1694941.5879326.2920747 1.1758653.2920747 1.779688h.0930704c0-.6038227.1233372-1.1917554.2928313-1.779688l1.5413369-5.448781z">
            </path>
            <path d="m88.5523389 34.1152257h7.8148882v3.2718413h-3.5608892v1.1440851h3.2529245v3.1136972h-3.2529245v1.1758653h3.6849831v3.272598h-7.9389821z">
            </path>
            <path d="m3.57526597 21.109581.59549933.467622c2.08538264 1.6170039 4.59601386 2.9366365 7.2768958 2.9366365 1.1493818 0 2.97901-.4683788 2.97901-1.9151319 0-1.4475098-1.5315002-1.5746304-2.5953783-1.7872546l-2.34113708-.4260053c-4.55364034-.8081236-8.38390411-3.4897622-8.38390411-8.5117813 0-7.61739739 6.93715098-11.8736664 13.91667549-11.8736664 3.660013 0 7.021898.894384 10.1711588 2.80951588l-3.1492608 8.21289672c-1.9998789-1.36124945-4.2555123-2.4258842-6.7669002-2.4258842-1.0207479 0-2.5106312.38363171-2.5106312 1.7025076 0 1.192512 1.4475098 1.3620061 2.3403804 1.5746304l2.6392652.596256c4.9365154 1.1062516 8.5117813 3.7455167 8.5117813 9.1927844 0 7.6597708-6.9795245 11.4476611-13.9166755 11.4476611-4.04288803 0-8.72440561-1.1062516-12.3420451-2.9366365z">
            </path>
            <path d="m28.2124427.51075228h21.577203v8.76753583h-9.8306572v3.06451369h8.9794034v8.3407739h-8.9794034v3.1492608h10.1711587v8.7667791h-21.9177045z">
            </path>
            <path d="m61.5702417.51075228 4.0224579 18.53160612 4.6595742-18.53160612h8.9370299l4.3743096 18.53160612 4.3077225-18.53160612h12.1286642l-11.3197839 32.08886332h-10.1719154l-3.6592564-17.4488113-4.2138955 17.4488113h-9.9161609l-11.2350369-32.08886332z">
            </path>
        </g>
    </g>
</svg>
