<?xml version="1.0" encoding="UTF-8"?>
<svg width="191px" height="57px" viewBox="0 0 191 57" version="1.1" xmlns="http://www.w3.org/2000/svg" xmlns:xlink="http://www.w3.org/1999/xlink">
    <!-- Generator: Sketch 52.6 (67491) - http://www.bohemiancoding.com/sketch -->
    <title>Group 19</title>
    <desc>Created with Sketch.</desc>
    <defs>
        <polygon id="path-1" points="0 56.1709 190.081 56.1709 190.081 -0.0001 0 -0.0001"></polygon>
    </defs>
    <g id="Page-1" stroke="none" stroke-width="1" fill="none" fill-rule="evenodd">
        <g id="Group-19">
            <path d="M46.2754,45.8964 C46.4434,46.5644 45.8324,47.1664 45.1664,46.9884 L37.0114,44.8114 C34.3304,46.2564 31.2614,47.0784 28.0004,47.0784 C17.4944,47.0784 8.9744,38.5604 8.9744,28.0524 C8.9744,17.5444 17.4944,9.0274 28.0004,9.0274 C38.5074,9.0274 47.0254,17.5444 47.0254,28.0524 C47.0254,31.6594 46.0214,35.0314 44.2794,37.9064 L46.2754,45.8964 Z M27.9964,0.0004 C12.5354,0.0004 0.0004,12.5334 0.0004,27.9954 C0.0004,43.4574 12.4744,55.9914 27.9354,55.9914 C43.3984,55.9914 55.9944,43.4574 55.9944,27.9954 C55.9944,12.5334 43.4594,0.0004 27.9964,0.0004 Z" id="Fill-1" fill="#00BAC0"></path>
            <polygon id="Fill-3" fill="#546575" points="12.2227 20.8496 15.5687 20.8496 18.6407 32.3046 21.7087 20.8496 24.9687 20.8496 20.3747 35.6716 16.8167 35.6716"></polygon>
            <mask id="mask-2" fill="white">
                <use xlink:href="#path-1"></use>
            </mask>
            <g id="Clip-6"></g>
            <polygon id="Fill-5" fill="#546575" mask="url(#mask-2)" points="27.023 35.6719 30.072 35.6719 30.072 20.8499 27.023 20.8499"></polygon>
            <path d="M32.9727,32.707 L32.9727,30.844 L35.9377,30.844 L35.9377,32.496 C35.9377,32.812 36.0427,32.919 36.3617,32.919 L40.2987,32.919 C40.6177,32.919 40.7227,32.812 40.7227,32.496 L40.7227,30.717 C40.7227,30.252 40.5527,30.125 40.0017,29.997 L36.0647,29.149 C34.2017,28.748 33.0157,28.008 33.0157,26.102 L33.0157,23.814 C33.0157,21.803 33.9687,20.85 35.9787,20.85 L40.5527,20.85 C42.5647,20.85 43.5177,21.803 43.5177,23.814 L43.5177,25.509 L40.5527,25.509 L40.5527,24.026 C40.5527,23.709 40.4477,23.603 40.1287,23.603 L36.4887,23.603 C36.1697,23.603 36.0647,23.709 36.0647,24.026 L36.0647,25.635 C36.0647,26.102 36.2347,26.228 36.7857,26.355 L40.7227,27.202 C42.5857,27.604 43.7717,28.346 43.7717,30.252 L43.7717,32.707 C43.7717,34.72 42.8187,35.672 40.8067,35.672 L35.9377,35.672 C33.9257,35.672 32.9727,34.72 32.9727,32.707" id="Fill-7" fill="#546575" mask="url(#mask-2)"></path>
            <path d="M59.1709,50.7021 C60.9289,50.7021 62.4159,49.2501 62.4159,47.4381 C62.4159,45.6821 60.9289,44.2841 59.1529,44.2841 L55.9619,44.2841 L55.9619,50.7021 L59.1709,50.7021 Z M55.1189,43.6741 C55.1189,43.5481 55.2269,43.4401 55.3529,43.4401 L59.2069,43.4401 C61.4309,43.4401 63.2589,45.2511 63.2589,47.4571 C63.2589,49.6981 61.4309,51.5261 59.2249,51.5261 L55.9619,51.5261 L55.9619,55.7591 C55.9619,55.8841 55.8549,55.9911 55.6749,55.9911 L55.3529,55.9911 C55.2269,55.9911 55.1189,55.8841 55.1189,55.7591 L55.1189,43.6741 Z" id="Fill-8" fill="#546575" mask="url(#mask-2)"></path>
            <path d="M66.1299,43.6738 C66.1299,43.5478 66.2369,43.4408 66.3629,43.4408 L73.5529,43.4408 C73.6779,43.4408 73.7859,43.5478 73.7859,43.6738 L73.7859,43.9788 C73.7859,44.1048 73.6779,44.2118 73.5529,44.2118 L66.9899,44.2118 L66.9899,49.1598 L72.6739,49.1598 C72.7999,49.1598 72.9069,49.2678 72.9069,49.3938 L72.9069,49.6978 C72.9069,49.8228 72.7999,49.9308 72.6739,49.9308 L66.9899,49.9308 L66.9899,55.2378 L73.5529,55.2378 C73.6779,55.2378 73.7859,55.3458 73.7859,55.4718 L73.7859,55.7588 C73.7859,55.8838 73.6779,55.9908 73.5529,55.9908 L66.3629,55.9908 C66.2369,55.9908 66.1299,55.8838 66.1299,55.7588 L66.1299,43.6738 Z" id="Fill-9" fill="#546575" mask="url(#mask-2)"></path>
            <path d="M81.8564,50.3974 C83.5784,50.3974 85.0304,49.0524 85.0304,47.2784 C85.0304,45.5744 83.5784,44.2654 81.8384,44.2654 L78.0734,44.2654 L78.0734,50.3974 L81.8564,50.3974 Z M77.2124,43.6734 C77.2124,43.5474 77.3024,43.4404 77.4464,43.4404 L81.8924,43.4404 C84.0804,43.4404 85.8904,45.0904 85.8904,47.2784 C85.8904,49.0884 84.6354,50.5414 82.9324,51.0244 L85.5494,55.6684 C85.6394,55.8114 85.6034,55.9914 85.4244,55.9914 L84.8694,55.9914 C84.7434,55.9914 84.6714,55.9374 84.6184,55.8304 L82.0174,51.1314 C81.7854,51.1504 81.5874,51.1504 81.3544,51.1504 L78.0554,51.1504 L78.0554,55.7584 C78.0554,55.8834 77.9484,55.9914 77.7684,55.9914 L77.4464,55.9914 C77.3204,55.9914 77.2124,55.8834 77.2124,55.7584 L77.2124,43.6734 Z" id="Fill-10" fill="#546575" mask="url(#mask-2)"></path>
            <path d="M89.2275,43.6738 C89.2275,43.5478 89.3345,43.4408 89.4605,43.4408 L96.6505,43.4408 C96.7755,43.4408 96.8835,43.5478 96.8835,43.6738 L96.8835,43.9788 C96.8835,44.1048 96.7755,44.2118 96.6505,44.2118 L90.0875,44.2118 L90.0875,49.6618 L95.7715,49.6618 C95.8975,49.6618 96.0045,49.7708 96.0045,49.8958 C96.0045,50.0928 96.0405,50.4148 95.7715,50.4148 L90.0875,50.4148 L90.0705,55.7588 C90.0705,55.8838 89.9625,55.9908 89.7835,55.9908 L89.4605,55.9908 C89.3345,55.9908 89.2275,55.8838 89.2275,55.7588 L89.2275,43.6738 Z" id="Fill-11" fill="#546575" mask="url(#mask-2)"></path>
            <path d="M105.4189,55.3818 C108.5569,55.3818 111.1029,52.8718 111.1029,49.7338 C111.1029,46.5968 108.5569,44.0498 105.4189,44.0498 C102.2819,44.0498 99.7539,46.5968 99.7539,49.7338 C99.7539,52.8718 102.2819,55.3818 105.4189,55.3818 M105.4189,43.2618 C109.0229,43.2618 111.8919,46.1478 111.8919,49.7338 C111.8919,53.3378 109.0229,56.1708 105.4189,56.1708 C101.8339,56.1708 98.9649,53.3378 98.9649,49.7338 C98.9649,46.1478 101.8339,43.2618 105.4189,43.2618" id="Fill-12" fill="#546575" mask="url(#mask-2)"></path>
            <path d="M119.8018,50.3974 C121.5238,50.3974 122.9758,49.0524 122.9758,47.2784 C122.9758,45.5744 121.5238,44.2654 119.7838,44.2654 L116.0188,44.2654 L116.0188,50.3974 L119.8018,50.3974 Z M115.1578,43.6734 C115.1578,43.5474 115.2478,43.4404 115.3918,43.4404 L119.8378,43.4404 C122.0258,43.4404 123.8358,45.0904 123.8358,47.2784 C123.8358,49.0884 122.5808,50.5414 120.8778,51.0244 L123.4948,55.6684 C123.5848,55.8114 123.5488,55.9914 123.3698,55.9914 L122.8148,55.9914 C122.6888,55.9914 122.6168,55.9374 122.5638,55.8304 L119.9628,51.1314 C119.7308,51.1504 119.5328,51.1504 119.2998,51.1504 L116.0008,51.1504 L116.0008,55.7584 C116.0008,55.8834 115.8938,55.9914 115.7138,55.9914 L115.3918,55.9914 C115.2658,55.9914 115.1578,55.8834 115.1578,55.7584 L115.1578,43.6734 Z" id="Fill-13" fill="#546575" mask="url(#mask-2)"></path>
            <path d="M128.7158,43.3877 C128.7338,43.3157 128.8058,43.2617 128.8768,43.2617 L129.0738,43.2617 C129.1638,43.2617 129.2178,43.2977 129.2538,43.3877 L132.9468,54.3957 L132.9838,54.3957 L136.6948,43.3877 C136.7308,43.2977 136.7838,43.2617 136.8738,43.2617 L137.0698,43.2617 C137.1428,43.2617 137.2138,43.3157 137.2328,43.3877 L139.7788,55.7587 C139.8138,55.9377 139.7418,55.9917 139.5808,55.9917 L139.1508,55.9917 C139.0428,55.9917 138.9528,55.9017 138.9358,55.7937 L136.9088,45.2877 L136.8738,45.2877 L133.2518,56.0267 C133.2158,56.1347 133.1088,56.1707 133.0008,56.1707 L132.9288,56.1707 C132.8398,56.1707 132.7318,56.1527 132.6958,56.0267 L129.0738,45.2877 L129.0378,45.2877 L127.0128,55.7937 C126.9948,55.9017 126.9048,55.9917 126.7978,55.9917 L126.3668,55.9917 C126.2058,55.9917 126.1338,55.9377 126.1698,55.7587 L128.7158,43.3877 Z" id="Fill-14" fill="#546575" mask="url(#mask-2)"></path>
            <path d="M150.001,51.831 L146.935,44.606 L146.899,44.606 L143.779,51.831 L150.001,51.831 Z M141.144,55.776 L146.666,43.298 C146.702,43.226 146.791,43.172 146.881,43.172 L146.935,43.172 C147.024,43.172 147.114,43.19 147.168,43.298 L152.637,55.776 C152.672,55.884 152.672,55.991 152.475,55.991 L152.009,55.991 C151.883,55.991 151.794,55.901 151.758,55.83 L150.306,52.53 L143.457,52.53 L142.022,55.83 C141.986,55.901 141.897,55.991 141.772,55.991 L141.27,55.991 C141.144,55.991 141.09,55.919 141.144,55.776 Z" id="Fill-15" fill="#546575" mask="url(#mask-2)"></path>
            <path d="M155.0049,43.4951 C155.0049,43.3501 155.1309,43.2621 155.2739,43.2621 L155.5789,43.2621 L164.1849,54.4681 L164.2019,54.4681 L164.2019,43.6741 C164.2019,43.5481 164.3109,43.4401 164.4359,43.4401 L164.7939,43.4401 C164.9199,43.4401 165.0269,43.5481 165.0269,43.6741 L165.0269,55.9371 C165.0269,56.0991 164.8839,56.1711 164.7399,56.1711 L164.5079,56.1711 C164.4889,56.1711 164.3459,56.1161 155.8299,44.8571 L155.8119,44.8571 L155.8119,55.7591 C155.8119,55.8841 155.7039,55.9911 155.5789,55.9911 L155.2379,55.9911 C155.1119,55.9911 155.0049,55.8841 155.0049,55.7591 L155.0049,43.4951 Z" id="Fill-16" fill="#546575" mask="url(#mask-2)"></path>
            <path d="M174.7832,43.2617 C176.6122,43.2617 177.9742,43.8707 179.1402,44.9287 C179.2292,45.0187 179.2482,45.1617 179.1582,45.2507 L178.8712,45.5567 C178.7632,45.6637 178.6742,45.6457 178.5662,45.5377 C177.5452,44.6237 176.2542,44.0687 174.7832,44.0687 C171.6452,44.0687 169.1892,46.6317 169.1892,49.7337 C169.1892,52.8177 171.6452,55.3647 174.7832,55.3647 C176.3252,55.3647 177.4902,54.7537 178.5662,53.8577 C178.6742,53.7687 178.7812,53.7687 178.8532,53.8217 L179.1582,54.1257 C179.2482,54.1987 179.2482,54.3417 179.1582,54.4307 C177.9382,55.6147 176.3792,56.1707 174.7832,56.1707 C171.1972,56.1707 168.2932,53.3377 168.2932,49.7337 C168.2932,46.1477 171.1972,43.2617 174.7832,43.2617" id="Fill-17" fill="#546575" mask="url(#mask-2)"></path>
            <path d="M182.4248,43.6738 C182.4248,43.5478 182.5318,43.4408 182.6578,43.4408 L189.8478,43.4408 C189.9728,43.4408 190.0808,43.5478 190.0808,43.6738 L190.0808,43.9788 C190.0808,44.1048 189.9728,44.2118 189.8478,44.2118 L183.2848,44.2118 L183.2848,49.1598 L188.9688,49.1598 C189.0948,49.1598 189.2018,49.2678 189.2018,49.3938 L189.2018,49.6978 C189.2018,49.8228 189.0948,49.9308 188.9688,49.9308 L183.2848,49.9308 L183.2848,55.2378 L189.8478,55.2378 C189.9728,55.2378 190.0808,55.3458 190.0808,55.4718 L190.0808,55.7588 C190.0808,55.8838 189.9728,55.9908 189.8478,55.9908 L182.6578,55.9908 C182.5318,55.9908 182.4248,55.8838 182.4248,55.7588 L182.4248,43.6738 Z" id="Fill-18" fill="#546575" mask="url(#mask-2)"></path>
        </g>
    </g>
</svg>